<svg width="147" height="40" viewBox="0 0 147 40" fill="none" xmlns="http://www.w3.org/2000/svg">
<g clip-path="url(#clip0)">
<path fill-rule="evenodd" clip-rule="evenodd" d="M47.7714 33.7095H37.106V39.7139H47.7714C55.5276 39.7139 58.3871 39.1195 58.3871 39.1195V33.0452C58.3871 33.0452 55.5003 33.7095 47.7714 33.7095Z" fill="#1D6B35"/>
<path fill-rule="evenodd" clip-rule="evenodd" d="M23.2777 32.1898L25.2165 36.7723C26.6537 36.7562 28.1133 36.7479 29.5929 36.7479C31.8381 36.7479 34.0386 36.7669 36.1817 36.8032V32.615L45.1289 31.4474C45.1289 31.4474 43.8858 31.2306 40.506 30.9813C37.1265 30.732 32.2725 30.8229 32.2725 30.8229C32.2725 30.8229 30.3255 31.4828 29.5745 31.6149C28.8233 31.4828 26.8766 30.8229 26.8766 30.8229C26.8766 30.8229 22.0593 30.7322 18.6796 30.9813C15.3047 31.2298 13.0568 31.5882 13.0435 31.5902L23.2777 32.1898Z" fill="#1D6B35"/>
<path fill-rule="evenodd" clip-rule="evenodd" d="M22.8438 32.7673L22.8605 36.8056C23.6382 36.7921 24.4237 36.781 25.2164 36.7722L23.2777 32.1897L13.0435 31.5901V32.7462C19.9531 32.7293 22.8438 32.7673 22.8438 32.7673Z" fill="#155429"/>
<path fill-rule="evenodd" clip-rule="evenodd" d="M21.9189 33.7095H11.3765C3.6478 33.7095 0.760742 33.0452 0.760742 33.0452V39.1195C0.760742 39.1195 3.62049 39.7139 11.3765 39.7139H21.9189V33.7095Z" fill="#1D6B35"/>
<path fill-rule="evenodd" clip-rule="evenodd" d="M1.70579 33.2049C1.055 33.113 0.760742 33.0453 0.760742 33.0453V39.1196C0.760742 39.1196 1.79156 39.3338 4.29217 39.505C2.63329 37.6166 1.83197 35.2766 1.70579 33.2049Z" fill="#155429"/>
<path fill-rule="evenodd" clip-rule="evenodd" d="M4.2998 35.1606H5.4332V35.5183H5.12609L5.84857 37.5377C5.87872 37.6206 5.89615 37.7165 5.91777 37.8036H5.92642C5.94793 37.7165 5.96535 37.6206 5.99563 37.5377L6.70501 35.5183H6.35464V35.1606H7.46208V35.5183H7.18958L6.15135 38.2137H5.61487L4.56366 35.5183H4.2998V35.1606Z" fill="white"/>
<path fill-rule="evenodd" clip-rule="evenodd" d="M8.92231 36.5301C9.26402 36.5301 9.50192 36.3469 9.50192 36.0199C9.50192 35.7015 9.30727 35.5182 8.95691 35.5182H8.55464L8.54599 36.5301H8.92231ZM7.75 37.8561H8.04846L8.06576 35.5182H7.75V35.1606H9.09534C9.71833 35.1606 10.0125 35.5227 10.0125 35.9675C10.0125 36.4952 9.67508 36.7352 9.29011 36.7745V36.7831C9.45868 36.7963 9.57114 36.9401 9.67508 37.1145L10.0038 37.6729C10.0903 37.8168 10.1725 37.8561 10.272 37.8561H10.3846V38.2138H10.1033C9.84809 38.2138 9.73131 38.1876 9.55396 37.8909L9.1386 37.18C9.01316 36.962 8.94828 36.9139 8.80554 36.9139H8.54601L8.53736 37.8561H8.88772V38.2138H7.75V37.8561Z" fill="white"/>
<path fill-rule="evenodd" clip-rule="evenodd" d="M10.7564 37.8561H11.0591L11.0764 35.5183H10.7261V35.1607H12.8544L12.8717 35.9631H12.4694L12.4434 35.5183H11.5652L11.5567 36.4604H12.4218V36.8442H11.5567L11.5479 37.8561H12.4694L12.504 37.3588H12.9107L12.8761 38.2137H10.7564V37.8561Z" fill="white"/>
<path fill-rule="evenodd" clip-rule="evenodd" d="M14.6749 37.8561C15.4145 37.8561 15.8299 37.4024 15.8299 36.6391C15.8299 35.9544 15.4405 35.5183 14.6965 35.5183H14.2076L14.1904 37.8561H14.6749ZM13.3989 37.8561H13.706L13.7233 35.5183H13.3989V35.1607H14.8351C15.8085 35.1607 16.3664 35.732 16.3664 36.6174C16.3664 37.5203 15.7998 38.2137 14.8308 38.2137H13.3989V37.8561Z" fill="white"/>
<path fill-rule="evenodd" clip-rule="evenodd" d="M16.708 37.8561H17.0108L17.0281 35.5183H16.6777V35.1607H18.8061L18.8234 35.9631H18.421L18.3951 35.5183H17.517L17.5083 36.4604H18.3736V36.8442H17.5083L17.4996 37.8561H18.421L18.4557 37.3588H18.8623L18.8276 38.2137H16.708V37.8561Z" fill="white"/>
<path fill-rule="evenodd" clip-rule="evenodd" d="M41.3807 36.5301C41.7225 36.5301 41.9604 36.3469 41.9604 36.0199C41.9604 35.7015 41.7657 35.5182 41.4152 35.5182H41.013L41.0043 36.5301H41.3807ZM40.2085 37.8561H40.507L40.5243 35.5182H40.2085V35.1606H41.5537C42.1767 35.1606 42.4708 35.5227 42.4708 35.9675C42.4708 36.4952 42.1334 36.7352 41.7485 36.7745V36.7831C41.9172 36.7963 42.0296 36.9401 42.1334 37.1145L42.4623 37.6729C42.5487 37.8168 42.6309 37.8561 42.7305 37.8561H42.8429V38.2138H42.5618C42.3065 38.2138 42.1897 38.1876 42.0123 37.8909L41.5971 37.18C41.4715 36.962 41.4068 36.9139 41.264 36.9139H41.0044L40.9957 37.8561H41.3462V38.2138H40.2085V37.8561Z" fill="white"/>
<path fill-rule="evenodd" clip-rule="evenodd" d="M43.2148 37.8561H43.5176L43.5349 35.5183H43.1846V35.1607H45.3129L45.3301 35.9631H44.9279L44.9019 35.5183H44.0238L44.0152 36.4604H44.8804V36.8442H44.0152L44.0064 37.8561H44.9279L44.9626 37.3588H45.3692L45.3344 38.2137H43.2148V37.8561Z" fill="white"/>
<path fill-rule="evenodd" clip-rule="evenodd" d="M47.8647 36.0548V35.5663C47.7523 35.5357 47.5791 35.4921 47.35 35.4921C46.6275 35.4921 46.2511 35.937 46.2511 36.7002C46.2511 37.3939 46.6664 37.8823 47.2851 37.8823C47.4926 37.8823 47.7132 37.8604 47.8258 37.8386L47.8431 37.2891H48.2756L48.2585 38.1222C48.0637 38.1876 47.6744 38.2661 47.3154 38.2661C46.2296 38.2661 45.7148 37.5856 45.7148 36.7176C45.7148 35.7668 46.3464 35.1083 47.3542 35.1083C47.735 35.1083 48.094 35.1911 48.2973 35.274V36.0548H47.8647Z" fill="white"/>
<path fill-rule="evenodd" clip-rule="evenodd" d="M50.6588 37.8561H50.9616L50.9704 36.8747H49.5645L49.5557 37.8561H49.8801V38.2137H48.7642V37.8561H49.0669L49.0842 35.5183H48.7642V35.1607H49.8801V35.5183H49.573L49.5645 36.4908H50.9704L50.979 35.5183H50.6588V35.1607H51.7749V35.5183H51.4678L51.4505 37.8561H51.7749V38.2137H50.6588V37.8561Z" fill="white"/>
<path fill-rule="evenodd" clip-rule="evenodd" d="M52.922 37.8561H53.2335L53.2507 35.5183H52.5456L52.5282 35.9631H52.0957L52.113 35.1607H54.86L54.8772 35.9631H54.4447L54.4274 35.5183H53.7353L53.7179 37.8561H54.0682V38.2137H52.922V37.8561Z" fill="white"/>
<path fill-rule="evenodd" clip-rule="evenodd" d="M23.4049 4.96339C23.5363 4.87542 23.7155 4.81424 23.9089 4.78982C23.9666 4.78309 24.0244 4.77935 24.0817 4.77935C24.4472 4.77935 24.7108 4.92576 24.7379 5.14357C24.769 5.40037 24.4593 5.63475 24.0183 5.6892C23.9598 5.69643 23.9021 5.70004 23.8451 5.70004C23.4794 5.70004 23.2156 5.55351 23.1893 5.33533C23.1727 5.19976 23.2492 5.06793 23.4049 4.96339ZM26.7388 4.48343L27.6492 4.92539L26.763 5.41558L25.8523 4.97312L26.7388 4.48343ZM29.5386 4.39817C30.0167 4.39817 30.3775 4.60576 30.3775 4.88113C30.3775 5.15651 30.0167 5.36422 29.5386 5.36422C29.0602 5.36422 28.6994 5.15651 28.6994 4.88113C28.6994 4.60576 29.0602 4.39817 29.5386 4.39817ZM32.3384 4.48343L33.2245 4.97312L32.3143 5.41558L31.4276 4.92577L32.3384 4.48343ZM34.3397 5.14394C34.3662 4.92576 34.6301 4.77935 34.9958 4.77935C35.0528 4.77935 35.1111 4.78309 35.169 4.78982C35.3625 4.81424 35.5408 4.87542 35.6724 4.96339C35.8279 5.06793 35.9047 5.19976 35.8881 5.33533C35.8615 5.55326 35.5985 5.70004 35.2329 5.70004C35.1758 5.70004 35.1173 5.69643 35.0594 5.6892C34.6177 5.63475 34.3088 5.40037 34.3397 5.14394ZM29.7269 6.33602C32.6194 6.33602 34.7996 6.47869 36.2497 6.62049L36.5788 3.96408C35.1612 3.83774 32.4938 3.52249 29.5942 3.52249C26.6675 3.52249 23.9189 3.84172 22.4751 3.96757L22.8185 6.65999C24.2553 6.50648 26.5648 6.33602 29.7269 6.33602Z" fill="#E2C029"/>
<path fill-rule="evenodd" clip-rule="evenodd" d="M30.3888 1.63121C30.0016 1.63121 29.688 1.94782 29.688 2.33783C29.688 2.64398 29.8808 2.9044 30.1509 3.00284L30.8405 1.79805C30.7184 1.69426 30.561 1.63121 30.3888 1.63121ZM22.3427 2.10919C21.9556 2.10919 21.6424 2.42556 21.6424 2.81581C21.6424 3.20582 21.9556 3.52244 22.3427 3.52244C22.7301 3.52244 23.0437 3.20582 23.0437 2.81581C23.0437 2.42556 22.7301 2.10919 22.3427 2.10919ZM23.9527 1.98981C23.5655 1.98981 23.2516 2.30643 23.2516 2.69644C23.2516 3.08644 23.5655 3.40306 23.9527 3.40306C24.3399 3.40306 24.6533 3.08644 24.6533 2.69644C24.6533 2.30643 24.3399 1.98981 23.9527 1.98981ZM25.5615 1.87046C25.175 1.87046 24.8608 2.18671 24.8608 2.57696C24.8608 2.96709 25.175 3.28371 25.5615 3.28371C25.9492 3.28371 26.2629 2.96709 26.2629 2.57696C26.2629 2.18671 25.9492 1.87046 25.5615 1.87046ZM27.1704 1.75109C26.7832 1.75109 26.4696 2.06733 26.4696 2.45758C26.4696 2.84796 26.7832 3.16396 27.1704 3.16396C27.5576 3.16396 27.8712 2.84796 27.8712 2.45758C27.8712 2.06733 27.5576 1.75109 27.1704 1.75109ZM28.7792 1.63121C28.3929 1.63121 28.0784 1.94782 28.0784 2.33783C28.0784 2.72821 28.3929 3.04445 28.7792 3.04445C29.1663 3.04445 29.4803 2.72821 29.4803 2.33783C29.4803 1.94782 29.1663 1.63121 28.7792 1.63121ZM22.807 1.24122C22.807 0.850964 22.4933 0.534349 22.106 0.534349C21.7188 0.534349 21.4053 0.850964 21.4053 1.24122C21.4053 1.63123 21.7188 1.94759 22.106 1.94759C22.4933 1.94759 22.807 1.63123 22.807 1.24122ZM30.2847 0.762988C30.2847 0.372981 29.971 0.056366 29.5838 0.056366C29.1967 0.056366 28.883 0.372981 28.883 0.762988C28.883 1.15374 29.1967 1.46961 29.5838 1.46961C29.971 1.46961 30.2847 1.15374 30.2847 0.762988Z" fill="#E2C029"/>
<path fill-rule="evenodd" clip-rule="evenodd" d="M30.8405 1.79806L30.1509 3.00285C30.225 3.03001 30.3052 3.04446 30.3888 3.04446C30.776 3.04446 31.0898 2.72822 31.0898 2.33784C31.0898 2.12141 30.9929 1.92765 30.8405 1.79806ZM31.9977 1.75107C31.611 1.75107 31.2968 2.06731 31.2968 2.45757C31.2968 2.84795 31.611 3.16394 31.9977 3.16394C32.3853 3.16394 32.699 2.84795 32.699 2.45757C32.699 2.06731 32.3853 1.75107 31.9977 1.75107ZM33.6069 1.87045C33.2197 1.87045 32.906 2.18669 32.906 2.57694C32.906 2.96708 33.2197 3.28369 33.6069 3.28369C33.9944 3.28369 34.3078 2.96708 34.3078 2.57694C34.3078 2.18669 33.9944 1.87045 33.6069 1.87045ZM35.2164 1.98982C34.8292 1.98982 34.5156 2.30644 34.5156 2.69645C34.5156 3.08645 34.8292 3.40307 35.2164 3.40307C35.6032 3.40307 35.9168 3.08645 35.9168 2.69645C35.9168 2.30644 35.6032 1.98982 35.2164 1.98982ZM36.8253 2.10918C36.4383 2.10918 36.1244 2.42554 36.1244 2.8158C36.1244 3.2058 36.4383 3.52242 36.8253 3.52242C37.2128 3.52242 37.5259 3.2058 37.5259 2.8158C37.5259 2.42554 37.2128 2.10918 36.8253 2.10918ZM37.062 0.534332C36.675 0.534332 36.3611 0.850948 36.3611 1.2412C36.3611 1.63121 36.675 1.94758 37.062 1.94758C37.4492 1.94758 37.7631 1.63121 37.7631 1.2412C37.7631 0.850948 37.4492 0.534332 37.062 0.534332Z" fill="#D2AD15"/>
<path fill-rule="evenodd" clip-rule="evenodd" d="M32.3384 4.48346L33.2245 4.97314L32.3143 5.41548L31.4276 4.92579L32.3384 4.48346ZM34.3397 5.14399C34.3662 4.92581 34.6301 4.77941 34.9958 4.77941C35.0528 4.77941 35.1111 4.78302 35.169 4.78987C35.3625 4.81417 35.5408 4.87547 35.6724 4.96344C35.8279 5.06786 35.9046 5.19982 35.8881 5.33538C35.8615 5.55331 35.5985 5.70009 35.2329 5.70009C35.1758 5.70009 35.1173 5.69636 35.0594 5.68925C34.6177 5.63468 34.3088 5.4003 34.3397 5.14399ZM29.5389 5.36416C29.2554 5.36416 29.0131 5.29102 28.8627 5.17439L28.1699 6.35014C28.6643 6.34105 29.1832 6.33594 29.7275 6.33594C32.62 6.33594 34.8001 6.47873 36.2501 6.62041L36.5792 3.96413C35.2006 3.84139 32.641 3.53973 29.8351 3.52341L29.3095 4.41506C29.382 4.40422 29.4585 4.39812 29.5389 4.39812C30.017 4.39812 30.3778 4.60571 30.3778 4.88108C30.3778 5.15645 30.017 5.36416 29.5389 5.36416Z" fill="#D2AD15"/>
<path fill-rule="evenodd" clip-rule="evenodd" d="M36.1812 32.615V32.7673H46.1417V31.5901C46.1417 31.5901 45.7764 31.5324 45.1284 31.4474L36.1812 32.615Z" fill="#155429"/>
<path fill-rule="evenodd" clip-rule="evenodd" d="M57.7419 39.2235C58.1845 39.1544 58.3876 39.1195 58.3876 39.1195V33.0453C58.3876 33.0453 57.676 33.2089 56.0146 33.3737C57.1429 34.7592 57.5932 37.0155 57.7419 39.2235Z" fill="#155429"/>
<path fill-rule="evenodd" clip-rule="evenodd" d="M27.1082 34.9215H27.3702L27.3852 32.8982H27.082V32.5887H28.9239L28.9389 33.2833H28.5908L28.5683 32.8982H27.8083L27.8008 33.7136H28.5496V34.0458H27.8008L27.7934 34.9215H28.5908L28.6207 34.4912H28.9726L28.9427 35.231H27.1082V34.9215Z" fill="white"/>
<path fill-rule="evenodd" clip-rule="evenodd" d="M29.411 34.9215H29.6656L29.6806 32.8982H29.3511V32.5887H30.0399L31.2529 34.1855C31.3316 34.2911 31.4439 34.4647 31.515 34.5818H31.5226L31.5076 32.8982H31.2156V32.5887H32.129V32.8982H31.8745L31.8595 35.231H31.5189L30.2084 33.5172C30.1336 33.4192 30.0624 33.3135 30.025 33.238L30.0174 33.2456L30.0324 34.9215H30.3207V35.231H29.411V34.9215Z" fill="white"/>
<path fill-rule="evenodd" clip-rule="evenodd" d="M48.5298 27.5091H48.5304L48.5298 27.5061V27.5091Z" fill="url(#paint0_linear)"/>
<path fill-rule="evenodd" clip-rule="evenodd" d="M57.665 14.7589C57.665 13.3945 55.8426 13.8256 54.8432 13.8256C53.8434 13.8256 53.9147 12.5352 53.9147 12.5352H55.8174C57.3361 12.5352 58.3073 13.4709 57.665 14.7589Z" fill="#D2AD15"/>
<path fill-rule="evenodd" clip-rule="evenodd" d="M51.7603 11.967C52.2043 11.5232 52.6649 11.2787 53.3199 11.2787C54.774 11.2787 56.877 11.1861 57.1705 10.423C57.4258 10.6905 57.4021 11.2306 56.7806 11.8512C58.4179 11.8512 58.7061 12.2234 58.8713 12.5713C59.2985 13.4706 58.5573 14.7588 57.6647 14.7588C58.307 13.4709 57.3358 12.5352 55.8172 12.5352H53.9144H53.6297H53.3199C53.097 12.5352 52.8526 12.6519 52.6492 12.8552C52.218 13.2863 52.218 13.9878 52.6492 14.4187L55.6636 17.4312C55.854 17.6213 55.9915 17.8372 56.1034 18.0671L51.1446 14.2666C50.926 13.4739 51.138 12.5892 51.7603 11.967Z" fill="#EFD544"/>
<path fill-rule="evenodd" clip-rule="evenodd" d="M48.2068 9.01705C48.1826 8.92657 48.1671 8.84143 48.1587 8.76074C48.5961 8.24788 49.3262 8.0461 50.3124 8.46217C51.5537 8.98544 52.6848 8.07907 52.6848 8.07907C51.8312 9.71347 50.6459 9.18325 49.6181 8.86051C49.0568 8.68452 48.53 8.85754 48.2068 9.01705Z" fill="#B98F16"/>
<path fill-rule="evenodd" clip-rule="evenodd" d="M42.9824 15.1644C41.9274 14.5617 41.0793 14.1224 41.0776 14.1216L41.0773 14.1215L41.4787 15.857C41.4787 15.857 40.2878 17.7937 39.6499 18.8447C39.6635 18.8515 39.6779 18.8569 39.6916 18.8642C39.6916 18.8642 42.9884 15.168 42.9882 15.1679V15.1678C42.9863 15.1667 42.9844 15.1656 42.9824 15.1644Z" fill="#B98F16"/>
<path fill-rule="evenodd" clip-rule="evenodd" d="M48.6867 12.4238C48.6867 11.1531 47.8285 10.632 47.4447 10.4621C46.8757 10.4388 46.289 10.492 45.7856 10.6972C45.95 12.1998 48.1095 14.2081 49.4072 14.6517C49.4176 14.6548 49.4273 14.6581 49.4379 14.6613C48.818 14.1835 49.8487 12.4238 48.6867 12.4238Z" fill="#D2AD15"/>
<path fill-rule="evenodd" clip-rule="evenodd" d="M44.2989 15.9438C43.8561 15.6709 43.4061 15.4066 42.9881 15.1678L42.988 15.1679L39.6913 18.864C39.5084 18.7666 39.3037 18.7056 39.0823 18.7056V20.0009H39.0842C38.5282 20.1235 38.1567 20.5838 38.1567 21.294H39.0849L39.0842 22.4494C39.207 22.586 39.4004 22.6731 39.5969 22.6788L44.3044 15.9471C44.3023 15.9463 44.2977 15.9454 44.2989 15.9438Z" fill="#E2C029"/>
<path fill-rule="evenodd" clip-rule="evenodd" d="M49.1478 15.8991C47.8634 16.7045 45.303 16.5895 45.3005 16.5879C45.2991 16.5869 45.2978 16.586 45.2964 16.5851C45.2934 16.5863 46.0194 17.0301 46.7702 17.7533L51.8125 18.5557C51.8125 18.5557 50.1847 16.9328 49.1478 15.8991Z" fill="#D2AD15"/>
<path fill-rule="evenodd" clip-rule="evenodd" d="M54.6545 24.9717C54.0715 24.9717 52.3102 24.7393 52.3102 23.4473V20.7711L50.9654 22.9628L50.9478 25.1826C53.1199 27.6731 52.5757 30.5126 51.5848 31.6566V32.5159C52.2012 32.504 52.8069 32.4896 53.3874 32.4684L53.2359 31.8227L54.0405 30.4276C54.0405 30.4276 53.6891 25.9363 54.6545 24.9717Z" fill="#D2AD15"/>
<path fill-rule="evenodd" clip-rule="evenodd" d="M44.3046 15.9472L39.5972 22.6787C39.6036 22.6787 39.6098 22.6798 39.617 22.6798C39.6959 22.6798 41.2821 21.5019 41.2821 21.5019L45.3007 16.5878C44.9855 16.3744 44.6473 16.1584 44.3046 15.9472Z" fill="#EFD544"/>
<path fill-rule="evenodd" clip-rule="evenodd" d="M45.7855 10.6973C44.0454 11.5962 43.2481 14.1944 41.0771 14.1216C41.0802 14.123 43.5445 15.3995 45.3005 16.5878C45.3038 16.5901 49.865 16.7943 49.865 14.742C48.7072 14.742 45.971 12.3956 45.7855 10.6973Z" fill="#F6E477"/>
<path fill-rule="evenodd" clip-rule="evenodd" d="M41.4074 12.575C41.7845 11.6001 41.9228 10.0143 42.336 8.43988L40.3622 7.18548L39.8884 6.36426H37.672L37.2598 7.07778C38.1156 7.1602 38.6632 7.22242 38.6801 7.22403L39.0671 7.27299V10.3663L41.4074 12.575Z" fill="#E2C029"/>
<path fill-rule="evenodd" clip-rule="evenodd" d="M44.0819 5.03987V3.71198L45.4484 4.31321C45.4362 4.24281 45.4074 3.87074 46.0506 3.51355C46.0226 3.91388 46.6063 4.20823 47.2805 4.4141C46.5814 6.03783 45.548 8.52308 45.7856 10.6972C44.0459 11.5962 43.2484 14.1943 41.0773 14.1216C41.0773 14.1216 40.5228 13.8584 40.3374 13.5359C42.3963 13.5359 41.2807 7.8398 44.0819 5.03987Z" fill="#EFD544"/>
<path fill-rule="evenodd" clip-rule="evenodd" d="M49.7318 26.5753C50.4016 27.2469 50.8036 28.0251 50.8036 28.7767C50.8036 30.4722 49.6548 31.089 49.6548 31.089C48.2921 30.6525 47.9101 32.0354 47.8154 32.5376C48.2972 32.5384 48.7989 32.5386 49.3207 32.5386C50.0665 32.5386 50.8778 32.5307 51.5846 32.5178V31.6566C52.5756 30.5127 53.1196 27.673 50.9477 25.1827L49.7318 26.5753Z" fill="#EFD544"/>
<path fill-rule="evenodd" clip-rule="evenodd" d="M48.4013 24.2083C48.4009 23.9338 48.4007 23.47 48.4003 23.206L48.4001 23.2061C48.4002 23.2695 48.4002 23.3329 48.4003 23.3974L44.1766 24.3798L41.3804 29.8828C42.2192 29.9509 42.9723 30.0239 43.6252 30.0943L43.356 29.382L46.7651 24.5211L48.4013 24.2083Z" fill="#EFD544"/>
<path fill-rule="evenodd" clip-rule="evenodd" d="M42.2047 24.8385C41.8901 27.5869 40.0857 28.4583 40.0857 28.4583C40.0857 28.4583 39.7413 28.3729 39.3844 28.3729C38.5908 28.3729 38.2026 29.6843 38.2026 29.6843C38.6214 29.7032 39.0602 29.7283 39.4992 29.7556C39.8717 29.7754 40.2361 29.7981 40.5846 29.8233C40.8583 29.8435 41.1212 29.864 41.379 29.8856L44.1768 24.3798L42.2047 24.8385Z" fill="#E2C029"/>
<path fill-rule="evenodd" clip-rule="evenodd" d="M48.3981 21.683L46.5823 20.3527L41.5181 24.5427C41.5181 24.5427 41.7813 24.9094 42.2045 24.8385L48.4 23.3974C48.3992 22.743 48.3986 22.1406 48.3981 21.683Z" fill="#D2AD15"/>
<path fill-rule="evenodd" clip-rule="evenodd" d="M45.3006 16.588L43.856 18.3546L48.3985 21.683C48.398 21.1577 48.3976 20.8233 48.3976 20.8233C48.3976 20.5369 48.3491 20.2564 48.2645 19.9849C48.0005 19.1096 47.3782 18.3389 46.7705 17.7532C46.0434 17.053 45.3418 16.616 45.3007 16.588H45.3006Z" fill="#EFD544"/>
<path fill-rule="evenodd" clip-rule="evenodd" d="M48.0217 5.75553C47.716 5.76595 47.4607 5.56801 47.4527 5.31381C47.4517 5.28518 47.455 5.25705 47.4599 5.22941C47.8365 5.25283 48.2263 5.30365 48.5515 5.35521C48.5139 5.5731 48.2944 5.74612 48.0217 5.75553ZM50.5995 6.50846L49.4294 5.63716L49.231 4.80503C49.231 4.80503 48.1756 4.68766 47.2805 4.41412C46.5815 6.03774 45.5481 8.5231 45.7857 10.6973C47.3949 10.0415 49.8553 10.9355 49.8553 10.9355L49.4688 9.89549L50.0336 9.24208C50.0336 9.24208 48.3573 9.43728 48.3567 9.43629C47.8619 8.32405 48.2759 7.77624 49.3541 7.77624C49.8039 7.77624 50.1529 7.99413 50.1529 7.99413L50.3863 7.23512L50.1844 6.85909L50.4695 6.88536L50.5995 6.50846Z" fill="#E2C029"/>
<path fill-rule="evenodd" clip-rule="evenodd" d="M10.7378 27.5053H10.7383V27.5023L10.7378 27.5053Z" fill="url(#paint1_linear)"/>
<path fill-rule="evenodd" clip-rule="evenodd" d="M1.39934 14.7561C1.39934 13.3918 3.21274 13.8229 4.20724 13.8229C5.20211 13.8229 5.13115 12.5325 5.13115 12.5325H3.23779C1.72661 12.5325 0.760244 13.4682 1.39934 14.7561Z" fill="#D2AD15"/>
<path fill-rule="evenodd" clip-rule="evenodd" d="M7.27473 11.9643C6.83295 11.5205 6.37463 11.276 5.72282 11.276C4.27593 11.276 2.18327 11.1834 1.89118 10.4203C1.63722 10.6878 1.66079 11.2279 2.27916 11.8484C0.65 11.8484 0.363214 12.2206 0.198842 12.5685C-0.226279 13.4678 0.511296 14.7561 1.39942 14.7561C0.760322 13.4682 1.72669 12.5325 3.23787 12.5325H5.13123H5.41456H5.72282C5.94458 12.5325 6.1878 12.6492 6.39018 12.8525C6.81925 13.2835 6.81925 13.985 6.39018 14.416L3.39064 17.4285C3.20122 17.6186 3.06437 17.8345 2.95306 18.0644L7.88742 14.2639C8.10486 13.4712 7.89396 12.5865 7.27473 11.9643Z" fill="#E2C029"/>
<path fill-rule="evenodd" clip-rule="evenodd" d="M10.8104 9.01433C10.8345 8.92386 10.8499 8.83871 10.8583 8.75802C10.4231 8.24516 9.6966 8.04339 8.71518 8.45945C7.48004 8.98273 6.35449 8.07635 6.35449 8.07635C7.20387 9.71075 8.38335 9.18054 9.40611 8.8578C9.96463 8.6818 10.4888 8.85482 10.8104 9.01433Z" fill="#B98F16"/>
<path fill-rule="evenodd" clip-rule="evenodd" d="M16.0092 15.1617C17.059 14.559 17.9029 14.1196 17.9047 14.1189L17.9049 14.1188L17.5055 15.8543C17.5055 15.8543 18.6905 17.791 19.3253 18.842C19.3117 18.8488 19.2974 18.8541 19.2838 18.8615L16.0034 15.1652V15.1651C16.0054 15.164 16.0072 15.1628 16.0092 15.1617Z" fill="#E2C029"/>
<path fill-rule="evenodd" clip-rule="evenodd" d="M11.5685 10.4594C11.1866 10.6293 10.3327 11.1504 10.3327 12.4211C9.17637 12.4211 10.2021 14.1808 9.58545 14.6586C9.59582 14.6554 9.60544 14.652 9.61581 14.6489C10.9071 14.2053 13.0561 12.197 13.2194 10.6945C12.7185 10.4893 12.1347 10.4362 11.5685 10.4594Z" fill="#D2AD15"/>
<path fill-rule="evenodd" clip-rule="evenodd" d="M14.6988 15.9411C15.1395 15.6681 15.5872 15.4039 16.0032 15.1651L16.0033 15.1652L19.2837 18.8613C19.4657 18.7639 19.6693 18.7029 19.8897 18.7029V19.9982H19.8877C20.4411 20.1208 20.8107 20.5811 20.8107 21.2913H19.8871L19.8877 22.4467C19.7656 22.5832 19.5732 22.6704 19.3776 22.6761L14.6934 15.9444C14.6955 15.9435 14.7 15.9427 14.6988 15.9411Z" fill="#EFD544"/>
<path fill-rule="evenodd" clip-rule="evenodd" d="M9.8742 15.8964C11.1523 16.7018 13.7 16.5867 13.7025 16.5851C13.7039 16.5841 13.7052 16.5833 13.7066 16.5824C13.7095 16.5835 12.9871 17.0273 12.2401 17.7505L7.22266 18.5529C7.22266 18.5529 8.84243 16.9301 9.8742 15.8964Z" fill="#E2C029"/>
<path fill-rule="evenodd" clip-rule="evenodd" d="M4.39453 24.9689C4.97465 24.9689 6.72733 24.7366 6.72733 23.4446V20.7684L8.0655 22.9601L8.08303 25.1799C5.92163 27.6703 6.46312 30.5099 7.44911 31.6539V32.5132C6.8358 32.5013 6.2331 32.4869 5.65546 32.4657L5.80613 31.82L5.0055 30.4249C5.0055 30.4249 5.35522 25.9336 4.39453 24.9689Z" fill="#F6E477"/>
<path fill-rule="evenodd" clip-rule="evenodd" d="M7.4495 32.5151C8.15277 32.528 8.96007 32.5359 9.70233 32.5359C10.2216 32.5359 10.7208 32.5357 11.2002 32.5349C11.106 32.0326 10.7258 30.6498 9.36989 31.0863C9.36989 31.0863 8.22681 30.4695 8.22681 28.7738C8.22681 28.0202 8.62269 27.2448 9.29276 26.5718L8.08342 25.1798C5.92203 27.6703 6.46352 30.5099 7.4495 31.6538V32.5151Z" fill="#E2C029"/>
<path fill-rule="evenodd" clip-rule="evenodd" d="M14.6933 15.9444L19.3775 22.676C19.3711 22.676 19.3651 22.6771 19.3578 22.6771C19.2793 22.6771 17.7009 21.4992 17.7009 21.4992L13.7021 16.5851C14.0158 16.3716 14.3524 16.1556 14.6933 15.9444Z" fill="#D2AD15"/>
<path fill-rule="evenodd" clip-rule="evenodd" d="M9.16016 14.7392C9.16016 16.7916 13.6988 16.5874 13.7022 16.5852C15.4495 15.3968 17.9016 14.1202 17.9046 14.1189C15.7443 14.1916 14.9511 11.5935 13.2196 10.6945C13.0349 12.3929 10.3122 14.7392 9.16016 14.7392Z" fill="#F6E477"/>
<path fill-rule="evenodd" clip-rule="evenodd" d="M17.5764 12.5723C17.2011 11.5974 17.0635 10.0116 16.6523 8.43716L18.6164 7.18277L19.0879 6.36154H21.2935L21.7036 7.07506C20.852 7.15748 20.307 7.2197 20.2902 7.22131L19.9051 7.27027V10.3636L17.5764 12.5723Z" fill="#D2AD15"/>
<path fill-rule="evenodd" clip-rule="evenodd" d="M14.9152 5.03715V3.70926L13.5554 4.31049C13.5675 4.2401 13.5964 3.86803 12.9562 3.51083C12.9841 3.91116 12.4032 4.20552 11.7324 4.41138C12.428 6.03512 13.4564 8.52036 13.2199 10.6945C14.951 11.5934 15.7446 14.1916 17.905 14.1188C17.905 14.1188 18.4567 13.8557 18.6412 13.5332C16.5925 13.5332 17.7026 7.83708 14.9152 5.03715Z" fill="#E2C029"/>
<path fill-rule="evenodd" clip-rule="evenodd" d="M3.40181 20.7684C3.84556 21.2146 4.43629 21.4601 5.06465 21.4601C5.69265 21.4601 6.28362 21.2146 6.7275 20.7684L8.06568 22.9602L8.0832 25.18L10.6125 28.0912C10.6137 27.2804 10.6207 20.8206 10.6207 20.8206C10.6207 20.5342 10.669 20.2537 10.753 19.9822C11.0157 19.1069 11.6351 18.3361 12.2398 17.7505L7.22234 18.5529L6.19428 19.568C6.19428 19.568 5.08934 20.687 4.28685 19.8803C3.85729 19.449 3.85729 18.7477 4.28685 18.3168L7.2859 15.3045C7.58379 15.0055 7.78296 14.6452 7.88724 14.2639L2.95287 18.0644C2.52676 18.9453 2.67435 20.0377 3.40181 20.7684ZM12.2404 17.75C12.2403 17.7502 12.24 17.7504 12.2399 17.7505C12.24 17.7504 12.2403 17.7502 12.2404 17.75Z" fill="#EFD544"/>
<path fill-rule="evenodd" clip-rule="evenodd" d="M10.6167 24.2056C10.6171 23.9311 10.6173 23.4673 10.6177 23.2033L10.6179 23.2034C10.6178 23.2667 10.6178 23.3302 10.6177 23.3946L14.8205 24.3771L17.603 29.88C16.7683 29.9482 16.0189 30.0212 15.3693 30.0916L15.6371 29.3793L12.2449 24.5184L10.6167 24.2056Z" fill="#F6E477"/>
<path fill-rule="evenodd" clip-rule="evenodd" d="M16.7827 24.8358C17.0957 27.5842 18.8912 28.4556 18.8912 28.4556C18.8912 28.4556 19.2339 28.3702 19.5891 28.3702C20.3787 28.3702 20.765 29.6816 20.765 29.6816C20.3482 29.7005 19.9116 29.7256 19.4748 29.7529C19.1041 29.7727 18.7415 29.7954 18.3948 29.8206C18.1224 29.8408 17.8608 29.8614 17.6043 29.8829L14.8203 24.3771L16.7827 24.8358Z" fill="#D2AD15"/>
<path fill-rule="evenodd" clip-rule="evenodd" d="M10.62 21.6803L12.4269 20.3499L17.4661 24.54C17.4661 24.54 17.2041 24.9067 16.7831 24.8358L10.6182 23.3947C10.6189 22.7402 10.6195 22.1379 10.62 21.6803Z" fill="#E2C029"/>
<path fill-rule="evenodd" clip-rule="evenodd" d="M13.7022 16.5852L15.1397 18.3518L10.6196 21.6802C10.6201 21.155 10.6205 20.8206 10.6205 20.8206C10.6205 20.5342 10.6687 20.2537 10.7529 19.9821C11.0156 19.1069 11.6349 18.3361 12.2395 17.7505C12.963 17.0502 13.6612 16.6132 13.7021 16.5852H13.7022Z" fill="#B98F16"/>
<path fill-rule="evenodd" clip-rule="evenodd" d="M10.9946 5.75281C10.7232 5.74327 10.5048 5.57037 10.4674 5.35236C10.791 5.30093 11.1788 5.25011 11.5536 5.22656C11.5584 5.25432 11.5617 5.28246 11.5608 5.31109C11.5527 5.56529 11.2988 5.7631 10.9946 5.75281ZM11.7323 4.41141C10.8416 4.68482 9.79143 4.80231 9.79143 4.80231L9.59399 5.63432L8.42969 6.50574L8.55901 6.88264L8.84272 6.85637L8.64182 7.2324L8.87406 7.99141C8.87406 7.99141 9.22131 7.77352 9.66889 7.77352C10.7418 7.77352 11.1538 8.32121 10.6614 9.43358C10.6608 9.43457 8.99277 9.23936 8.99277 9.23936L9.55487 9.89277L9.17022 10.9328C9.17022 10.9328 11.6184 10.0388 13.2197 10.6945C13.4561 8.52039 12.4278 6.03502 11.7323 4.41141Z" fill="#EFD544"/>
<path fill-rule="evenodd" clip-rule="evenodd" d="M38.1222 23.8456C38.1222 28.7234 29.466 30.4511 29.466 30.4511C29.466 30.4511 20.8105 28.7234 20.8105 23.8456V8.10364C20.8105 8.10364 23.7395 7.54541 29.466 7.54541C35.1933 7.54541 38.1222 8.10364 38.1222 8.10364V23.8456Z" fill="#D2AD15"/>
<path fill-rule="evenodd" clip-rule="evenodd" d="M29.4662 30.4511C29.4662 30.4511 38.1224 28.7235 38.1224 23.8456V8.10363C38.1224 8.10363 35.1935 7.54553 29.4662 7.54553C28.1173 7.54553 26.9235 7.57652 25.8867 7.62386C33.7017 7.93743 36.825 8.9986 36.825 8.9986C36.825 8.9986 36.832 19.9793 36.832 24.0031C36.832 28.027 29.4662 30.4511 29.4662 30.4511Z" fill="#B98F16"/>
<path fill-rule="evenodd" clip-rule="evenodd" d="M31.2139 17.0765L30.5514 16.9937L30.3464 17.2684L28.7988 16.2776C28.9544 17.0598 29.3791 18.5499 30.468 19.8176C31.1933 20.3447 31.9515 20.8966 32.5535 21.3345C32.506 18.7755 31.6433 17.3665 31.4188 16.8019L31.2139 17.0765Z" fill="#4B4B4B"/>
<path fill-rule="evenodd" clip-rule="evenodd" d="M28.0465 18.0612C27.2355 17.4798 27.5009 16.3296 28.0344 15.7885L30.3466 17.2683L30.5515 16.9937L31.2141 17.0765L31.4189 16.8018L33.1288 17.0973C32.8096 16.5843 32.2779 15.7584 31.4701 15.2054L31.6751 14.9308C31.2622 14.7355 30.3183 14.5806 29.2271 14.5806H27.5629L28.7389 11.2133C29.0517 10.3069 28.4945 9.58183 27.8881 9.51453C26.9719 9.41327 26.5929 10.4033 26.5929 10.4033L27.5978 11.4314C27.6205 11.4366 26.3019 14.5252 26.3019 14.5252C26.1673 14.8487 26.0792 15.2678 26.0762 15.7207C26.0707 16.5856 26.4642 17.4685 27.2661 18.2508C27.9463 18.9145 30.89 21.2334 30.89 21.2334L31.127 20.9172L32.5536 21.3344C32.5536 21.3344 28.273 18.2232 28.0465 18.0612Z" fill="white"/>
<path fill-rule="evenodd" clip-rule="evenodd" d="M28.7989 16.2775L28.0344 15.7885C27.5008 16.3296 27.2353 17.4797 28.0463 18.0611C28.2931 18.2375 29.3396 18.9975 30.468 19.8175C29.3791 18.5498 28.9546 17.0598 28.7989 16.2775Z" fill="#636363"/>
<path fill-rule="evenodd" clip-rule="evenodd" d="M33.1287 17.0973L31.4189 16.8018C31.6433 17.3665 32.506 18.7754 32.5536 21.3344C33.2362 21.8312 33.7176 22.1812 33.7176 22.1812L34.0551 21.7295L34.9396 22.3443C34.8912 21.9369 34.8228 21.5533 34.7388 21.1899C34.3553 19.3835 33.7209 18.0241 33.1287 17.0973Z" fill="black"/>
<path fill-rule="evenodd" clip-rule="evenodd" d="M31.6304 27.6567C31.5925 27.561 31.5219 27.4696 31.3865 27.4696H30.8897V25.1084L30.4827 25.2942V27.4625H29.728C29.6404 27.4625 29.4713 27.5874 29.4133 27.5874H29.0761C28.9401 27.5874 28.8693 27.6784 28.8319 27.7745L28.8072 27.8488L28.7931 27.9428C28.79 27.9729 28.79 27.9931 28.79 27.9931H29.6038L29.771 27.8684H30.1104C29.8966 28.0003 29.6678 28.142 29.581 28.195C29.4648 28.2665 29.4506 28.3821 29.4675 28.4837L29.4855 28.5625L29.5205 28.6475C29.5335 28.6753 29.543 28.6926 29.543 28.6926L30.9218 27.8749H31.6722C31.6722 27.8749 31.6717 27.855 31.6689 27.8247L31.6456 27.7274L31.6304 27.6567Z" fill="#4B4B4B"/>
<path fill-rule="evenodd" clip-rule="evenodd" d="M24.4803 18.8967L24.4038 18.9997L24.4493 19.6703L24.5767 19.4976L24.6684 19.5088L25.1944 20.4257C25.1944 20.4257 25.2012 20.4214 25.2123 20.4146L25.2776 20.3609L25.3348 20.3098C25.4108 20.227 25.4748 20.1067 25.3983 19.9722C25.3777 19.9364 25.3439 19.8769 25.3022 19.804L26.8574 20.5456L27.4932 20.3947L24.9447 19.1823C24.8883 19.0852 24.8109 18.9374 24.8109 18.9374C24.7655 18.8668 24.5966 18.8404 24.4803 18.8967Z" fill="#636363"/>
<path fill-rule="evenodd" clip-rule="evenodd" d="M27.5981 11.4314L26.5931 10.4034L22.2637 11.4314H27.5981Z" fill="black"/>
<path fill-rule="evenodd" clip-rule="evenodd" d="M24.3211 19.1118L23.4928 19.2185C23.4928 19.2185 23.2455 19.5369 23.1193 19.7072C23.0381 19.817 23.0673 19.9292 23.1205 20.0173L23.1706 20.0825L23.2298 20.1498C23.2514 20.1699 23.2673 20.1822 23.2673 20.1822L23.6894 19.6122L24.03 19.5637C23.867 19.7845 23.6931 20.0191 23.6325 20.1016C23.5513 20.2114 23.5808 20.3238 23.6345 20.4118L23.6883 20.4814L23.7432 20.5441C23.7649 20.5647 23.7808 20.5769 23.7808 20.5769L24.4495 19.6703L24.404 18.9997L24.3211 19.1118Z" fill="#4B4B4B"/>
<path fill-rule="evenodd" clip-rule="evenodd" d="M29.9043 20.4496C29.7749 20.3461 29.6384 20.2366 29.4976 20.1233V21.3116L29.4374 21.3191L27.4938 20.3947L26.8579 20.5456L29.2817 21.7014L29.5303 22.0233L29.929 21.9658L30.0795 21.5865L29.9043 21.3602V20.4496Z" fill="#4B4B4B"/>
<path fill-rule="evenodd" clip-rule="evenodd" d="M28.1662 10.3997C28.1662 10.3997 27.7028 10.6079 27.5894 10.6079C27.4765 10.6079 27.3706 10.5145 27.3706 10.3997C27.3706 10.2846 27.4765 10.1913 27.5894 10.1913C27.7028 10.1913 28.1662 10.3997 28.1662 10.3997Z" fill="black"/>
<path fill-rule="evenodd" clip-rule="evenodd" d="M23.4209 12.9807C23.1303 12.4638 23.4705 12.1479 23.7094 11.9054C23.8822 11.729 24.032 11.5777 24.0352 11.3551C24.0395 11.0628 23.8741 11.0094 23.4675 10.9502C23.2259 10.9148 22.9761 10.8784 22.8339 10.6944C22.7535 10.5891 22.7207 10.4664 22.7396 10.3399C22.7818 10.0573 23.0703 9.84611 23.1027 9.82306C23.1843 9.76567 23.2955 9.78625 23.3515 9.86817C23.4082 9.95022 23.3883 10.0631 23.3073 10.1205C23.2434 10.1662 23.1077 10.2927 23.0926 10.3944C23.0899 10.4147 23.0905 10.4382 23.1161 10.4714C23.1689 10.5405 23.3544 10.5674 23.518 10.5915C23.8699 10.6428 24.4016 10.7204 24.3922 11.3603C24.387 11.7297 24.1614 11.9592 23.9625 12.1616C23.7358 12.3916 23.5511 12.5598 23.6736 12.8846C23.7539 13.0975 24.1175 13.2105 24.0476 13.3365C23.9817 13.4552 23.5633 13.234 23.4209 12.9807Z" fill="black"/>
<path fill-rule="evenodd" clip-rule="evenodd" d="M30.8899 21.2334C30.8899 21.2334 30.7322 21.1092 30.483 20.9113V21.6604H30.4878L30.2861 22.0143L30.483 22.3609V25.2942L30.8899 25.1084V22.368L31.0916 22.0143L30.8899 21.6604V21.2334Z" fill="black"/>
<path fill-rule="evenodd" clip-rule="evenodd" d="M33.9227 21.9065L33.7178 22.1812L33.9227 21.9065Z" fill="#636363"/>
<path fill-rule="evenodd" clip-rule="evenodd" d="M33.8483 16.4399C33.2281 15.7953 32.4927 15.2765 31.6753 14.9308L31.4702 15.2055C32.278 15.7584 32.8096 16.5844 33.1289 17.0973C33.7211 18.0241 34.3555 19.3835 34.739 21.19C34.8228 21.5533 34.8914 21.9369 34.9398 22.3443L35.7945 22.9461C36.2303 20.4636 35.4024 18.055 33.8483 16.4399Z" fill="#636363"/>
<path fill-rule="evenodd" clip-rule="evenodd" d="M55.981 18.0671L51.0468 14.2666C51.1509 14.6479 51.3502 15.0082 51.6481 15.3072L54.647 18.3195C55.0766 18.7505 55.0766 19.4517 54.647 19.883C53.8447 20.6897 52.7396 19.5708 52.7396 19.5708L51.7116 18.5556L46.6941 17.7533C47.2989 18.3388 47.9182 19.1096 48.1809 19.985C48.265 20.2564 48.3132 20.537 48.3132 20.8233C48.3132 20.8233 48.3202 27.283 48.3216 28.0939L50.8508 25.1826L50.8682 22.9629L52.2064 20.7711C52.6504 21.2173 53.2412 21.4628 53.8694 21.4628C54.4976 21.4628 55.0885 21.2173 55.5321 20.7711C56.2595 20.0405 56.4071 18.948 55.981 18.0671ZM46.6939 17.7533C46.6937 17.7531 46.6935 17.7529 46.6934 17.7528C46.6935 17.7529 46.6937 17.7531 46.6939 17.7533Z" fill="#E2C029"/>
<path d="M82.1754 27.0769L80.9132 18.9631H79.0861L77.7038 23.1823C77.5595 23.6391 77.4033 24.2521 77.259 24.8651H77.235C77.1148 24.3002 76.9224 23.591 76.7902 23.1582L75.4199 18.9631H73.5808L72.3427 27.0769H73.9173L74.3861 23.2905C74.4703 22.5813 74.5424 21.848 74.6025 21.1268H74.6265C74.7467 21.7879 74.9391 22.5692 75.1554 23.2664L76.4056 27.0769H77.9201L79.2304 22.9779C79.4347 22.3168 79.579 21.6437 79.6871 21.1268H79.7112C79.7713 21.6918 79.8554 22.425 79.9636 23.1582L80.5526 27.0769H82.1754ZM85.4913 19.2877C85.4913 18.7588 85.0586 18.3501 84.5297 18.3501C84.0128 18.3501 83.5801 18.7708 83.5801 19.2877C83.5801 19.8045 84.0128 20.2132 84.5297 20.2132C85.0586 20.2132 85.4913 19.7925 85.4913 19.2877ZM85.299 27.0769V21.0907C84.4095 21.0667 83.4839 21.1028 82.7266 21.1989V22.1606C83.0752 22.1846 83.4839 22.2327 83.7724 22.2808V27.0769H85.299ZM89.0854 19.2877C89.0854 18.7588 88.6647 18.3501 88.1358 18.3501C87.6069 18.3501 87.1742 18.7708 87.1742 19.2877C87.1742 19.8045 87.6069 20.2132 88.1358 20.2132C88.6647 20.2132 89.0854 19.7925 89.0854 19.2877ZM88.9051 27.5217V21.0907C88.0156 21.0667 87.09 21.1028 86.3207 21.1989V22.1606C86.6693 22.1846 87.078 22.2327 87.3665 22.2808V27.6779C87.3665 28.4833 87.1742 28.7718 86.5491 28.7718C86.3327 28.7718 86.0563 28.7117 85.8279 28.6275L85.7317 29.9378C85.9841 30.0099 86.3087 30.058 86.5852 30.058C88.3161 30.058 88.9051 29.1324 88.9051 27.5217ZM96.1373 27.0769V22.8818C96.1373 21.836 95.7045 20.9826 94.3582 20.9826C93.3846 20.9826 92.6874 21.4754 92.3268 22.1726H92.3148C92.3749 21.848 92.3989 21.3792 92.3989 21.0907C91.5936 21.0667 90.668 21.1028 89.9107 21.1989V22.1606C90.2593 22.1846 90.668 22.2327 90.9565 22.2808V27.0769H92.4831V24.192C92.4831 23.1462 93.0961 22.2687 93.8774 22.2687C94.4424 22.2687 94.6107 22.6414 94.6107 23.2544V27.0769H96.1373ZM97.9949 27.0769C98.5959 27.0769 99.233 27.125 100.05 27.125C102.707 27.125 104.57 25.7066 104.57 22.9299C104.57 20.1411 103.019 18.9271 100.423 18.9271C99.5335 18.9271 98.62 18.9631 97.9949 18.9751V27.0769ZM99.1008 19.8647C99.4013 19.8526 99.8941 19.8286 100.315 19.8286C102.418 19.8286 103.404 20.9345 103.404 23.002C103.404 25.2017 102.07 26.1874 100.171 26.1874C99.846 26.1874 99.4013 26.1634 99.1008 26.1153V19.8647ZM110.337 25.9951C109.748 26.2114 109.159 26.3196 108.57 26.3196C107.308 26.3196 106.707 25.6345 106.731 24.168H110.637C110.637 24.168 110.673 23.8314 110.673 23.4588C110.673 22.1125 109.976 20.9946 108.305 20.9946C106.61 20.9946 105.613 22.3409 105.613 24.1199C105.613 26.2235 106.598 27.1851 108.437 27.1851C109.135 27.1851 109.832 27.0529 110.481 26.8245L110.337 25.9951ZM106.743 23.4107C106.863 22.3769 107.452 21.812 108.233 21.812C109.075 21.812 109.591 22.3769 109.567 23.4107H106.743ZM117.126 27.0769V22.9058C117.126 21.848 116.693 20.9946 115.323 20.9946C114.301 20.9946 113.568 21.5475 113.219 22.3649H113.195C113.267 22.0043 113.291 21.4634 113.291 21.1028H112.246V27.0769H113.328V24.216C113.328 22.8938 114.037 21.8841 115.022 21.8841C115.816 21.8841 116.044 22.3889 116.044 23.2304V27.0769H117.126ZM125.507 27.0769V18.9631H124.401V22.401H120.266V18.9631H119.16V27.0769H120.266V23.3386H124.401V27.0769H125.507ZM132.217 27.0769V21.1749C131.604 21.0787 130.919 21.0066 130.197 21.0066C128.226 21.0066 127.048 22.2808 127.048 24.3843C127.048 26.1994 127.841 27.1851 129.248 27.1851C130.185 27.1851 130.919 26.6562 131.243 25.8508L131.267 25.8628C131.195 26.2114 131.171 26.7403 131.171 27.0769H132.217ZM131.147 23.9756C131.147 25.0334 130.582 26.2956 129.5 26.2956C128.599 26.2956 128.19 25.5623 128.19 24.2761C128.19 22.5572 128.947 21.8721 130.077 21.8721C130.438 21.8721 130.786 21.9081 131.147 21.9923V23.9756ZM138.92 27.0769V21.1749C138.307 21.0787 137.621 21.0066 136.9 21.0066C134.929 21.0066 133.751 22.2808 133.751 24.3843C133.751 26.1994 134.544 27.1851 135.951 27.1851C136.888 27.1851 137.621 26.6562 137.946 25.8508L137.97 25.8628C137.898 26.2114 137.874 26.7403 137.874 27.0769H138.92ZM137.85 23.9756C137.85 25.0334 137.285 26.2956 136.203 26.2956C135.301 26.2956 134.893 25.5623 134.893 24.2761C134.893 22.5572 135.65 21.8721 136.78 21.8721C137.141 21.8721 137.489 21.9081 137.85 21.9923V23.9756ZM145.622 21.1749C145.009 21.0787 144.324 21.0066 143.603 21.0066C141.632 21.0066 140.454 22.2808 140.454 24.3723C140.454 26.2235 141.259 27.1851 142.665 27.1851C143.555 27.1851 144.288 26.6682 144.613 25.8628L144.637 25.8749C144.565 26.1874 144.553 26.5119 144.553 26.9086V27.4495C144.553 28.6756 143.94 29.2165 142.689 29.2165C142.088 29.2165 141.451 29.1084 140.946 28.9401L140.826 29.9378C141.307 30.058 141.908 30.1421 142.581 30.1421C144.565 30.1421 145.622 29.2045 145.622 27.3534V21.1749ZM144.553 23.9756C144.553 25.0334 144 26.2956 142.906 26.2956C142.004 26.2956 141.596 25.5623 141.596 24.2761C141.596 22.5572 142.353 21.8721 143.483 21.8721C143.843 21.8721 144.192 21.9081 144.553 21.9923V23.9756Z" fill="#155429"/>
</g>
<defs>
<linearGradient id="paint0_linear" x1="48.5312" y1="27.5089" x2="48.5302" y2="27.5089" gradientUnits="userSpaceOnUse">
<stop stop-color="#B88E15"/>
<stop offset="1" stop-color="#D1AC14"/>
</linearGradient>
<linearGradient id="paint1_linear" x1="10.7377" y1="27.506" x2="10.7386" y2="27.506" gradientUnits="userSpaceOnUse">
<stop stop-color="#B88E15"/>
<stop offset="1" stop-color="#D1AC14"/>
</linearGradient>
<clipPath id="clip0">
<rect width="147" height="39.7482" fill="white"/>
</clipPath>
</defs>
</svg>
