<svg width="49" height="48" viewBox="0 0 49 48" fill="none" xmlns="http://www.w3.org/2000/svg">
<path fill-rule="evenodd" clip-rule="evenodd" d="M33.5788 43.3337C33.5788 43.9374 33.1506 44.5719 32.4979 44.5719C32.1105 44.5719 31.8759 44.3057 31.8759 43.9579C31.8759 43.5178 32.2429 43.1802 33.5788 43.1802V43.3337ZM34.8637 42.0442C34.8637 40.9186 34.3741 40.2535 32.8139 40.2535C32.1918 40.2535 31.4882 40.407 30.9274 40.6116L31.1211 41.5736C31.6106 41.379 32.2021 41.2359 32.661 41.2359C33.3441 41.2359 33.5787 41.5224 33.5787 42.1261V42.341C31.8044 42.341 30.6418 42.914 30.6418 44.1114C30.6418 44.9402 31.1823 45.5541 32.0898 45.5541C32.8547 45.5541 33.4767 45.1448 33.7214 44.5718L33.7317 44.5819C33.6909 44.8481 33.6807 45.1551 33.6807 45.462C34.3333 45.4825 35.1083 45.4518 35.7508 45.3699V44.5819C35.455 44.5616 35.1083 44.5207 34.8637 44.4796V42.0442ZM27.1591 39.3632C27.3936 39.4143 27.669 39.4553 27.9137 39.4758V41.3177H24.9463V39.4758C25.1909 39.4553 25.4662 39.4143 25.7009 39.3632V38.5446H22.8659V39.3427C23.1311 39.4042 23.4473 39.4553 23.7532 39.4758V44.5206C23.4473 44.5411 23.1311 44.5923 22.8659 44.6536V45.4518H25.7009V44.6332C25.4662 44.5819 25.1909 44.5411 24.9463 44.5206V42.4434H27.9137V44.5206C27.669 44.5411 27.3936 44.5819 27.1591 44.6332V45.4518H29.9939V44.6536C29.7288 44.5923 29.4127 44.5411 29.1068 44.5206V39.4758C29.4127 39.4553 29.7288 39.4042 29.9939 39.3427V38.5446H27.1591V39.3632ZM45.2032 42.7913C45.2032 43.6816 44.785 44.49 44.0814 44.49C43.4798 44.49 43.1943 43.9988 43.1943 43.0472C43.1943 41.768 43.7347 41.2871 44.4996 41.2871C44.7545 41.2871 44.9788 41.3178 45.2032 41.369V42.7913ZM44.6219 40.2739C42.8373 40.2739 41.8584 41.4507 41.8584 43.1697C41.8584 44.7252 42.5313 45.554 43.7449 45.554C44.418 45.554 44.9889 45.1857 45.2541 44.5922L45.2745 44.6023C45.2235 44.8685 45.2133 45.0936 45.2133 45.3494V45.6667C45.2133 46.5364 44.7545 46.9252 43.7857 46.9252C43.2859 46.9252 42.7354 46.8332 42.2866 46.6694L42.1643 47.8257C42.5925 47.928 43.1433 47.9997 43.7143 47.9997C45.6416 47.9997 46.4675 47.089 46.4675 45.5439V40.4274C45.9169 40.3352 45.3255 40.2739 44.6219 40.2739ZM39.1972 43.3337C39.1972 43.9374 38.7688 44.5719 38.1162 44.5719C37.7287 44.5719 37.4942 44.3057 37.4942 43.9579C37.4942 43.5178 37.8613 43.1802 39.1972 43.1802V43.3337ZM40.4821 42.0442C40.4821 40.9186 39.9925 40.2535 38.4324 40.2535C37.8103 40.2535 37.1067 40.407 36.5459 40.6116L36.7396 41.5736C37.2291 41.379 37.8206 41.2359 38.2795 41.2359C38.9626 41.2359 39.1972 41.5224 39.1972 42.1261V42.341C37.4228 42.341 36.2603 42.914 36.2603 44.1114C36.2603 44.9402 36.8008 45.5541 37.7083 45.5541C38.4732 45.5541 39.0952 45.1448 39.3399 44.5718L39.3502 44.5819C39.3093 44.8481 39.2992 45.1551 39.2992 45.462C39.9518 45.4825 40.7268 45.4518 41.3692 45.3699V44.5819C41.0735 44.5616 40.7268 44.5207 40.4821 44.4796V42.0442ZM10.816 42.3102C10.8873 41.6144 11.2953 41.205 11.8459 41.205C12.4067 41.205 12.7636 41.5836 12.7432 42.3102H10.816ZM11.9069 40.2638C10.4079 40.2638 9.52068 41.4303 9.52068 42.9551C9.52068 44.7458 10.4079 45.5542 12.019 45.5542C12.6207 45.5542 13.2632 45.4417 13.8342 45.2472L13.7017 44.2955C13.1816 44.4695 12.6717 44.5616 12.1721 44.5616C11.2238 44.5616 10.8159 44.0807 10.8056 43.1698H13.9668C13.9668 43.1698 14.0076 42.8016 14.0076 42.423C14.0076 41.2155 13.3856 40.2638 11.9069 40.2638ZM5.10594 44.3774C4.85102 44.3774 4.5654 44.3673 4.37166 44.3366V39.6191C4.5858 39.5987 4.8917 39.5884 5.19761 39.5884C6.78851 39.5884 7.39013 40.4788 7.39013 41.9829C7.39013 43.6407 6.44172 44.3774 5.10594 44.3774ZM5.28939 38.5037C4.44305 38.5037 3.59672 38.5446 3.04599 38.5446H2.18945V39.3427C2.45457 39.4042 2.77067 39.4554 3.07658 39.4758V44.5207C2.77067 44.5411 2.45457 44.5923 2.18945 44.6536V45.4518H3.07658C3.41307 45.4518 4.2696 45.4928 4.98348 45.4928C7.22689 45.4928 8.77701 44.2545 8.77701 41.8805C8.77701 39.4655 7.42073 38.5037 5.28939 38.5037ZM18.2699 40.2638C17.4337 40.2638 16.8422 40.6834 16.5363 41.2973L16.5261 41.2871C16.5771 41.0108 16.5975 40.6014 16.5975 40.3559C15.9244 40.3354 15.1495 40.3661 14.5071 40.448V41.2359C14.8028 41.2563 15.1495 41.2973 15.3942 41.3383V45.4518H16.6689V42.9959C16.6689 42.0852 17.189 41.3279 17.8619 41.3279C18.3617 41.3279 18.5146 41.6555 18.5146 42.1978V45.4518H19.7791V41.8806C19.7791 40.9904 19.4119 40.2638 18.2699 40.2638Z" fill="#155429"/>
<path fill-rule="evenodd" clip-rule="evenodd" d="M39.3546 27.6356H30.5547V32.5664H39.3546C45.7542 32.5664 48.1135 32.0782 48.1135 32.0782V27.0901C48.1135 27.0901 45.7316 27.6356 39.3546 27.6356Z" fill="#1D6B35"/>
<path fill-rule="evenodd" clip-rule="evenodd" d="M19.1444 26.3877L20.7441 30.1508C21.9299 30.1376 23.1342 30.1308 24.355 30.1308C26.2074 30.1308 28.0231 30.1464 29.7913 30.1762V26.7369L37.1736 25.7781C37.1736 25.7781 36.1479 25.6 33.3593 25.3953C30.5708 25.1906 26.5658 25.2652 26.5658 25.2652C26.5658 25.2652 24.9594 25.8071 24.3398 25.9156C23.72 25.8071 22.1138 25.2652 22.1138 25.2652C22.1138 25.2652 18.1391 25.1907 15.3506 25.3953C12.5659 25.5994 10.7112 25.8937 10.7002 25.8953L19.1444 26.3877Z" fill="#1D6B35"/>
<path fill-rule="evenodd" clip-rule="evenodd" d="M18.7864 26.8622L18.8001 30.1784C19.4418 30.1673 20.0899 30.1582 20.744 30.151L19.1444 26.3879L10.7002 25.8955V26.8449C16.4012 26.8309 18.7864 26.8622 18.7864 26.8622Z" fill="#155429"/>
<path fill-rule="evenodd" clip-rule="evenodd" d="M18.0228 27.6356H9.3244C2.94751 27.6356 0.56543 27.0901 0.56543 27.0901V32.0782C0.56543 32.0782 2.92497 32.5664 9.3244 32.5664H18.0228V27.6356Z" fill="#1D6B35"/>
<path fill-rule="evenodd" clip-rule="evenodd" d="M1.34518 27.2214C0.808216 27.1459 0.56543 27.0903 0.56543 27.0903V32.0785C0.56543 32.0785 1.41595 32.2544 3.47917 32.3949C2.11045 30.8442 1.44929 28.9226 1.34518 27.2214Z" fill="#155429"/>
<path fill-rule="evenodd" clip-rule="evenodd" d="M3.48633 28.8274H4.42148V29.1211H4.16809L4.76419 30.7794C4.78907 30.8474 4.80345 30.9262 4.8213 30.9978H4.82843C4.84618 30.9262 4.86055 30.8474 4.88554 30.7794L5.47083 29.1211H5.18175V28.8274H6.09549V29.1211H5.87065L5.01402 31.3345H4.57137L3.70403 29.1211H3.48633V28.8274Z" fill="white"/>
<path fill-rule="evenodd" clip-rule="evenodd" d="M7.29919 29.9521C7.58113 29.9521 7.77742 29.8016 7.77742 29.5331C7.77742 29.2716 7.61682 29.1211 7.32774 29.1211H6.99583L6.9887 29.9521H7.29919ZM6.33203 31.0409H6.57828L6.59256 29.1211H6.33203V28.8274H7.44206C7.95608 28.8274 8.19876 29.1247 8.19876 29.49C8.19876 29.9234 7.92039 30.1204 7.60276 30.1527V30.1597C7.74184 30.1706 7.83464 30.2887 7.92039 30.4319L8.19163 30.8904C8.263 31.0086 8.33081 31.0409 8.4129 31.0409H8.50579V31.3346H8.27371C8.06315 31.3346 7.96679 31.3131 7.82046 31.0695L7.47775 30.4857C7.37425 30.3067 7.32072 30.2672 7.20294 30.2672H6.98881L6.98167 31.0409H7.27075V31.3346H6.33203V31.0409Z" fill="white"/>
<path fill-rule="evenodd" clip-rule="evenodd" d="M8.81307 31.0408H9.06289L9.07717 29.1211H8.78809V28.8274H10.5442L10.5585 29.4864H10.2265L10.205 29.1211H9.48045L9.47341 29.8947H10.1872V30.2099H9.47341L9.46617 31.0408H10.2265L10.255 30.6325H10.5906L10.562 31.3345H8.81307V31.0408Z" fill="white"/>
<path fill-rule="evenodd" clip-rule="evenodd" d="M12.046 31.0409C12.6563 31.0409 12.999 30.6683 12.999 30.0415C12.999 29.4792 12.6777 29.1211 12.0639 29.1211H11.6605L11.6463 31.0409H12.046ZM10.9932 31.0408H11.2466L11.2608 29.1211H10.9932V28.8274H12.1781C12.9812 28.8274 13.4416 29.2965 13.4416 30.0236C13.4416 30.7651 12.9741 31.3345 12.1746 31.3345H10.9932V31.0408Z" fill="white"/>
<path fill-rule="evenodd" clip-rule="evenodd" d="M13.7232 31.0408H13.973L13.9873 29.1211H13.6982V28.8274H15.4543L15.4686 29.4864H15.1366L15.1152 29.1211H14.3907L14.3836 29.8947H15.0975V30.2099H14.3836L14.3763 31.0408H15.1366L15.1653 30.6325H15.5007L15.4721 31.3345H13.7232V31.0408Z" fill="white"/>
<path fill-rule="evenodd" clip-rule="evenodd" d="M34.0805 29.9521C34.3624 29.9521 34.5587 29.8016 34.5587 29.5331C34.5587 29.2716 34.3981 29.1211 34.1089 29.1211H33.777L33.7699 29.9521H34.0805ZM33.1133 31.0409H33.3595L33.3738 29.1211H33.1133V28.8274H34.2232C34.7372 28.8274 34.9799 29.1247 34.9799 29.49C34.9799 29.9234 34.7015 30.1204 34.3839 30.1527V30.1597C34.5231 30.1706 34.6159 30.2887 34.7015 30.4319L34.9729 30.8904C35.0442 31.0086 35.112 31.0409 35.1941 31.0409H35.2869V31.3346H35.055C34.8443 31.3346 34.7479 31.3131 34.6016 31.0695L34.259 30.4857C34.1554 30.3067 34.102 30.2672 33.9842 30.2672H33.77L33.7628 31.0409H34.052V31.3346H33.1133V31.0409Z" fill="white"/>
<path fill-rule="evenodd" clip-rule="evenodd" d="M35.5943 31.0408H35.8441L35.8584 29.1211H35.5693V28.8274H37.3254L37.3396 29.4864H37.0077L36.9863 29.1211H36.2618L36.2547 29.8947H36.9685V30.2099H36.2547L36.2474 31.0408H37.0077L37.0364 30.6325H37.3718L37.3432 31.3345H35.5943V31.0408Z" fill="white"/>
<path fill-rule="evenodd" clip-rule="evenodd" d="M39.4311 29.5617V29.1606C39.3383 29.1354 39.1954 29.0996 39.0064 29.0996C38.4103 29.0996 38.0997 29.465 38.0997 30.0917C38.0997 30.6613 38.4424 31.0624 38.9528 31.0624C39.124 31.0624 39.3061 31.0444 39.3989 31.0265L39.4132 30.5753H39.7701L39.7559 31.2594C39.5952 31.3131 39.274 31.3776 38.9778 31.3776C38.0819 31.3776 37.6572 30.8188 37.6572 30.106C37.6572 29.3252 38.1783 28.7844 39.0098 28.7844C39.324 28.7844 39.6202 28.8525 39.788 28.9205V29.5617H39.4311Z" fill="white"/>
<path fill-rule="evenodd" clip-rule="evenodd" d="M41.7361 31.0408H41.9859L41.9932 30.2349H40.8332L40.826 31.0408H41.0936V31.3345H40.1729V31.0408H40.4227L40.4369 29.1211H40.1729V28.8274H41.0936V29.1211H40.8402L40.8332 29.9197H41.9932L42.0003 29.1211H41.7361V28.8274H42.657V29.1211H42.4036L42.3893 31.0408H42.657V31.3345H41.7361V31.0408Z" fill="white"/>
<path fill-rule="evenodd" clip-rule="evenodd" d="M43.6036 31.0408H43.8607L43.8749 29.1211H43.293L43.2788 29.4864H42.9219L42.9362 28.8274H45.2027L45.2169 29.4864H44.86L44.8457 29.1211H44.2747L44.2603 31.0408H44.5494V31.3345H43.6036V31.0408Z" fill="white"/>
<path fill-rule="evenodd" clip-rule="evenodd" d="M19.2493 4.02971C19.3577 3.95747 19.5056 3.90723 19.6651 3.88718C19.7128 3.88165 19.7605 3.87858 19.8077 3.87858C20.1093 3.87858 20.3268 3.99881 20.3492 4.17767C20.3748 4.38856 20.1193 4.58103 19.7554 4.62574C19.7072 4.63167 19.6595 4.63464 19.6125 4.63464C19.3108 4.63464 19.0931 4.51431 19.0714 4.33514C19.0577 4.22382 19.1208 4.11556 19.2493 4.02971ZM22.0003 3.63555L22.7515 3.99849L22.0203 4.40103L21.2689 4.03768L22.0003 3.63555ZM24.3103 3.56553C24.7048 3.56553 25.0024 3.736 25.0024 3.96213C25.0024 4.18826 24.7048 4.35884 24.3103 4.35884C23.9155 4.35884 23.6179 4.18826 23.6179 3.96213C23.6179 3.736 23.9155 3.56553 24.3103 3.56553ZM26.6203 3.63555L27.3514 4.03768L26.6004 4.40103L25.8688 3.9988L26.6203 3.63555ZM28.2715 4.17798C28.2934 3.99881 28.5111 3.87858 28.8128 3.87858C28.8598 3.87858 28.9079 3.88165 28.9558 3.88718C29.1153 3.90723 29.2625 3.95747 29.3711 4.02971C29.4994 4.11556 29.5628 4.22382 29.549 4.33514C29.5271 4.51411 29.3101 4.63464 29.0085 4.63464C28.9614 4.63464 28.913 4.63167 28.8653 4.62574C28.5009 4.58103 28.246 4.38856 28.2715 4.17798ZM24.4658 5.15689C26.8524 5.15689 28.6512 5.27404 29.8477 5.39049L30.1192 3.20907C28.9496 3.10531 26.7488 2.84644 24.3563 2.84644C21.9415 2.84644 19.6737 3.10859 18.4824 3.21193L18.7658 5.42292C19.9513 5.29686 21.8568 5.15689 24.4658 5.15689Z" fill="#E2C029"/>
<path fill-rule="evenodd" clip-rule="evenodd" d="M25.0107 1.29322C24.6913 1.29322 24.4325 1.55322 24.4325 1.8735C24.4325 2.1249 24.5915 2.33876 24.8144 2.41959L25.3834 1.43023C25.2827 1.345 25.1528 1.29322 25.0107 1.29322ZM18.3724 1.68573C18.0529 1.68573 17.7945 1.94553 17.7945 2.26601C17.7945 2.58628 18.0529 2.84628 18.3724 2.84628C18.6919 2.84628 18.9507 2.58628 18.9507 2.26601C18.9507 1.94553 18.6919 1.68573 18.3724 1.68573ZM19.7005 1.58774C19.3811 1.58774 19.1221 1.84775 19.1221 2.16802C19.1221 2.48829 19.3811 2.74829 19.7005 2.74829C20.02 2.74829 20.2786 2.48829 20.2786 2.16802C20.2786 1.84775 20.02 1.58774 19.7005 1.58774ZM21.0278 1.48973C20.7088 1.48973 20.4496 1.74943 20.4496 2.0699C20.4496 2.39027 20.7088 2.65028 21.0278 2.65028C21.3476 2.65028 21.6064 2.39027 21.6064 2.0699C21.6064 1.74943 21.3476 1.48973 21.0278 1.48973ZM22.3554 1.39171C22.036 1.39171 21.7772 1.65141 21.7772 1.97189C21.7772 2.29246 22.036 2.55195 22.3554 2.55195C22.6749 2.55195 22.9336 2.29246 22.9336 1.97189C22.9336 1.65141 22.6749 1.39171 22.3554 1.39171ZM23.6829 1.29322C23.3642 1.29322 23.1046 1.55322 23.1046 1.8735C23.1046 2.19407 23.3642 2.45377 23.6829 2.45377C24.0023 2.45377 24.2614 2.19407 24.2614 1.8735C24.2614 1.55322 24.0023 1.29322 23.6829 1.29322ZM18.7552 0.973016C18.7552 0.652541 18.4964 0.392539 18.1768 0.392539C17.8573 0.392539 17.5986 0.652541 17.5986 0.973016C17.5986 1.29329 17.8573 1.55308 18.1768 1.55308C18.4964 1.55308 18.7552 1.29329 18.7552 0.973016ZM24.9252 0.580273C24.9252 0.260002 24.6664 0 24.3469 0C24.0275 0 23.7686 0.260002 23.7686 0.580273C23.7686 0.901157 24.0275 1.16055 24.3469 1.16055C24.6664 1.16055 24.9252 0.901157 24.9252 0.580273Z" fill="#E2C029"/>
<path fill-rule="evenodd" clip-rule="evenodd" d="M25.3844 1.43034L24.8154 2.4197C24.8766 2.44201 24.9428 2.45388 25.0117 2.45388C25.3312 2.45388 25.5901 2.19418 25.5901 1.8736C25.5901 1.69587 25.5101 1.53676 25.3844 1.43034ZM26.339 1.39178C26.02 1.39178 25.7608 1.65148 25.7608 1.97195C25.7608 2.29253 26.02 2.55202 26.339 2.55202C26.6589 2.55202 26.9177 2.29253 26.9177 1.97195C26.9177 1.65148 26.6589 1.39178 26.339 1.39178ZM27.6667 1.48977C27.3473 1.48977 27.0885 1.74947 27.0885 2.06994C27.0885 2.39031 27.3473 2.65032 27.6667 2.65032C27.9865 2.65032 28.2451 2.39031 28.2451 2.06994C28.2451 1.74947 27.9865 1.48977 27.6667 1.48977ZM28.9948 1.58778C28.6753 1.58778 28.4166 1.84779 28.4166 2.16806C28.4166 2.48833 28.6753 2.74833 28.9948 2.74833C29.3139 2.74833 29.5727 2.48833 29.5727 2.16806C29.5727 1.84779 29.3139 1.58778 28.9948 1.58778ZM30.3223 1.6858C30.003 1.6858 29.744 1.9456 29.744 2.26607C29.744 2.58634 30.003 2.84635 30.3223 2.84635C30.642 2.84635 30.9003 2.58634 30.9003 2.26607C30.9003 1.9456 30.642 1.6858 30.3223 1.6858ZM30.5177 0.392578C30.1985 0.392578 29.9395 0.65258 29.9395 0.973055C29.9395 1.29333 30.1985 1.55312 30.5177 1.55312C30.8372 1.55312 31.0962 1.29333 31.0962 0.973055C31.0962 0.65258 30.8372 0.392578 30.5177 0.392578Z" fill="#D2AD15"/>
<path fill-rule="evenodd" clip-rule="evenodd" d="M26.6203 3.63559L27.3514 4.03772L26.6004 4.40097L25.8688 3.99884L26.6203 3.63559ZM28.2714 4.17799C28.2933 3.99882 28.511 3.87859 28.8127 3.87859C28.8597 3.87859 28.9078 3.88156 28.9557 3.88719C29.1152 3.90714 29.2624 3.95748 29.371 4.02972C29.4993 4.11547 29.5626 4.22383 29.5489 4.33516C29.527 4.51412 29.31 4.63465 29.0084 4.63465C28.9613 4.63465 28.9129 4.63159 28.8652 4.62575C28.5008 4.58094 28.2459 4.38847 28.2714 4.17799ZM24.3102 4.35878C24.0763 4.35878 23.8764 4.29872 23.7523 4.20295L23.1807 5.16846C23.5885 5.16099 24.0167 5.1568 24.4658 5.1568C26.8523 5.1568 28.6512 5.27406 29.8476 5.3904L30.1191 3.20908C28.9816 3.1083 26.8697 2.86057 24.5546 2.84717L24.1209 3.57939C24.1808 3.57049 24.2439 3.56547 24.3102 3.56547C24.7047 3.56547 25.0023 3.73594 25.0023 3.96208C25.0023 4.18821 24.7047 4.35878 24.3102 4.35878Z" fill="#D2AD15"/>
<path fill-rule="evenodd" clip-rule="evenodd" d="M29.791 26.7369V26.862H38.0093V25.8952C38.0093 25.8952 37.7079 25.8479 37.1733 25.7781L29.791 26.7369Z" fill="#155429"/>
<path fill-rule="evenodd" clip-rule="evenodd" d="M47.5804 32.1638C47.9456 32.1071 48.1132 32.0785 48.1132 32.0785V27.0903C48.1132 27.0903 47.526 27.2247 46.1553 27.3601C47.0861 28.4978 47.4577 30.3506 47.5804 32.1638Z" fill="#155429"/>
<path fill-rule="evenodd" clip-rule="evenodd" d="M22.3048 28.631H22.521L22.5333 26.9695H22.2832V26.7153H23.8029L23.8153 27.2858H23.528L23.5095 26.9695H22.8825L22.8763 27.6391H23.4941V27.9119H22.8763L22.8701 28.631H23.528L23.5527 28.2777H23.8431L23.8184 28.8852H22.3048V28.631Z" fill="white"/>
<path fill-rule="evenodd" clip-rule="evenodd" d="M24.2047 28.631H24.4148L24.4271 26.9695H24.1553V26.7153H24.7236L25.7245 28.0266C25.7894 28.1134 25.882 28.2559 25.9407 28.3521H25.947L25.9346 26.9695H25.6937V26.7153H26.4473V26.9695H26.2374L26.2249 28.8852H25.9439L24.8626 27.4778C24.8009 27.3973 24.7422 27.3105 24.7113 27.2485L24.7051 27.2548L24.7174 28.631H24.9553V28.8852H24.2047V28.631Z" fill="white"/>
<path fill-rule="evenodd" clip-rule="evenodd" d="M39.9795 22.5439H39.98L39.9795 22.5415V22.5439Z" fill="url(#paint0_linear_867:20468)"/>
<path fill-rule="evenodd" clip-rule="evenodd" d="M47.5162 12.0733C47.5162 10.9529 46.0125 11.3069 45.1879 11.3069C44.363 11.3069 44.4218 10.2473 44.4218 10.2473H45.9918C47.2448 10.2473 48.0461 11.0156 47.5162 12.0733Z" fill="#D2AD15"/>
<path fill-rule="evenodd" clip-rule="evenodd" d="M42.6453 9.7809C43.0116 9.41643 43.3916 9.21562 43.9321 9.21562C45.1319 9.21562 46.867 9.13959 47.1092 8.51294C47.3198 8.73258 47.3003 9.17613 46.7875 9.68573C48.1384 9.68573 48.3762 9.99137 48.5125 10.2771C48.865 11.0156 48.2534 12.0735 47.517 12.0735C48.0469 11.0159 47.2456 10.2474 45.9926 10.2474H44.4227H44.1877H43.9321C43.7482 10.2474 43.5466 10.3433 43.3788 10.5102C43.023 10.8642 43.023 11.4403 43.3788 11.7942L45.8659 14.268C46.023 14.4241 46.1365 14.6014 46.2288 14.7902L42.1373 11.6693C41.957 11.0183 42.1319 10.2918 42.6453 9.7809Z" fill="#EFD544"/>
<path fill-rule="evenodd" clip-rule="evenodd" d="M39.7126 7.3584C39.6926 7.2841 39.6798 7.21418 39.6729 7.14792C40.0337 6.72676 40.6361 6.56106 41.4499 6.90273C42.474 7.33244 43.4073 6.58813 43.4073 6.58813C42.703 7.93029 41.725 7.49488 40.877 7.22985C40.4139 7.08532 39.9792 7.22741 39.7126 7.3584Z" fill="#B98F16"/>
<path fill-rule="evenodd" clip-rule="evenodd" d="M35.402 12.4065C34.5315 11.9116 33.8317 11.5508 33.8303 11.5502L33.8301 11.55L34.1613 12.9753C34.1613 12.9753 33.1787 14.5656 32.6523 15.4287C32.6636 15.4343 32.6755 15.4387 32.6867 15.4447C32.6867 15.4447 35.4069 12.4095 35.4068 12.4094V12.4093C35.4051 12.4083 35.4036 12.4074 35.402 12.4065Z" fill="#B98F16"/>
<path fill-rule="evenodd" clip-rule="evenodd" d="M40.1085 10.1559C40.1085 9.11236 39.4004 8.68448 39.0837 8.54495C38.6143 8.52581 38.1302 8.56947 37.7148 8.73802C37.8504 9.97188 39.6323 11.6211 40.703 11.9854C40.7116 11.9879 40.7196 11.9907 40.7282 11.9933C40.2168 11.6009 41.0672 10.1559 40.1085 10.1559Z" fill="#D2AD15"/>
<path fill-rule="evenodd" clip-rule="evenodd" d="M36.4887 13.0464C36.1233 12.8223 35.7521 12.6053 35.4072 12.4092L35.4071 12.4093L32.687 15.4445C32.5361 15.3645 32.3673 15.3144 32.1845 15.3144V16.3781H32.1862C31.7274 16.4788 31.4209 16.8568 31.4209 17.44H32.1867L32.1862 18.3888C32.2875 18.5009 32.447 18.5725 32.6092 18.5772L36.4932 13.0492C36.4915 13.0485 36.4877 13.0477 36.4887 13.0464Z" fill="#E2C029"/>
<path fill-rule="evenodd" clip-rule="evenodd" d="M40.4893 13.0098C39.4295 13.6711 37.317 13.5767 37.3149 13.5753C37.3138 13.5745 37.3127 13.5738 37.3115 13.5731C37.3091 13.574 37.9081 13.9385 38.5275 14.5324L42.6879 15.1913C42.6879 15.1913 41.3448 13.8586 40.4893 13.0098Z" fill="#D2AD15"/>
<path fill-rule="evenodd" clip-rule="evenodd" d="M45.033 20.4602C44.552 20.4602 43.0987 20.2694 43.0987 19.2084V17.0107L41.9891 18.8106L41.9746 20.6334C43.7668 22.6786 43.3178 25.0104 42.5002 25.9499V26.6555C43.0088 26.6457 43.5085 26.6339 43.9875 26.6165L43.8626 26.0862L44.5264 24.9406C44.5264 24.9406 44.2365 21.2524 45.033 20.4602Z" fill="#D2AD15"/>
<path fill-rule="evenodd" clip-rule="evenodd" d="M36.4934 13.0493L32.6094 18.5772C32.6147 18.5772 32.6198 18.5781 32.6257 18.5781C32.6908 18.5781 33.9996 17.6108 33.9996 17.6108L37.3153 13.5754C37.0552 13.4001 36.7762 13.2227 36.4934 13.0493Z" fill="#EFD544"/>
<path fill-rule="evenodd" clip-rule="evenodd" d="M37.7149 8.73804C36.2792 9.47624 35.6213 11.6098 33.8301 11.5501C33.8326 11.5512 35.8659 12.5994 37.3147 13.5753C37.3174 13.5772 41.0809 13.7448 41.0809 12.0595C40.1256 12.0595 37.8679 10.1327 37.7149 8.73804Z" fill="#F6E477"/>
<path fill-rule="evenodd" clip-rule="evenodd" d="M34.1029 10.2802C34.414 9.47957 34.5281 8.17731 34.869 6.88442L33.2405 5.85432L32.8495 5.17993H31.0208L30.6807 5.76587C31.3868 5.83355 31.8387 5.88465 31.8526 5.88597L32.1719 5.92617V8.46636L34.1029 10.2802Z" fill="#E2C029"/>
<path fill-rule="evenodd" clip-rule="evenodd" d="M36.3093 4.09227V3.00181L37.4368 3.49554C37.4267 3.43773 37.4029 3.13219 37.9336 2.83887C37.9105 3.16761 38.3922 3.40934 38.9484 3.57839C38.3716 4.91179 37.5189 6.95265 37.715 8.73805C36.2796 9.47625 35.6216 11.6098 33.8302 11.5501C33.8302 11.5501 33.3727 11.334 33.2197 11.0692C34.9185 11.0692 33.998 6.39155 36.3093 4.09227Z" fill="#EFD544"/>
<path fill-rule="evenodd" clip-rule="evenodd" d="M40.9708 21.7769C41.5235 22.3284 41.8551 22.9675 41.8551 23.5847C41.8551 24.977 40.9073 25.4836 40.9073 25.4836C39.783 25.1251 39.4677 26.2607 39.3896 26.6731C39.7872 26.6738 40.2011 26.674 40.6316 26.674C41.247 26.674 41.9164 26.6674 42.4995 26.6569V25.9496C43.3172 25.0103 43.7661 22.6783 41.974 20.6333L40.9708 21.7769Z" fill="#EFD544"/>
<path fill-rule="evenodd" clip-rule="evenodd" d="M39.873 19.8333C39.8727 19.6079 39.8725 19.227 39.8722 19.0103L39.872 19.0104C39.8721 19.0624 39.8721 19.1145 39.8722 19.1674L36.3873 19.9742L34.0801 24.4932C34.7722 24.5491 35.3936 24.6091 35.9322 24.6669L35.7102 24.082L38.5229 20.0902L39.873 19.8333Z" fill="#EFD544"/>
<path fill-rule="evenodd" clip-rule="evenodd" d="M34.761 20.3508C34.5014 22.6077 33.0127 23.3233 33.0127 23.3233C33.0127 23.3233 32.7285 23.2532 32.434 23.2532C31.7793 23.2532 31.459 24.3301 31.459 24.3301C31.8045 24.3456 32.1665 24.3663 32.5288 24.3887C32.8361 24.4049 33.1368 24.4236 33.4243 24.4442C33.6501 24.4608 33.867 24.4777 34.0798 24.4954L36.3882 19.9741L34.761 20.3508Z" fill="#E2C029"/>
<path fill-rule="evenodd" clip-rule="evenodd" d="M39.871 17.7595L38.3728 16.667L34.1943 20.1078C34.1943 20.1078 34.4116 20.409 34.7607 20.3508L39.8725 19.1673C39.8719 18.6299 39.8714 18.1352 39.871 17.7595Z" fill="#D2AD15"/>
<path fill-rule="evenodd" clip-rule="evenodd" d="M37.315 13.5754L36.123 15.0262L39.871 17.7595C39.8706 17.3281 39.8703 17.0535 39.8703 17.0535C39.8703 16.8183 39.8303 16.588 39.7605 16.365C39.5427 15.6462 39.0292 15.0133 38.5278 14.5324C37.9279 13.9573 37.349 13.5984 37.3151 13.5754H37.315Z" fill="#EFD544"/>
<path fill-rule="evenodd" clip-rule="evenodd" d="M39.5602 4.67989C39.308 4.68844 39.0974 4.5259 39.0907 4.31715C39.0899 4.29364 39.0927 4.27054 39.0967 4.24784C39.4074 4.26708 39.729 4.30881 39.9973 4.35115C39.9663 4.53007 39.7852 4.67215 39.5602 4.67989ZM41.687 5.29822L40.7215 4.58272L40.5578 3.89938C40.5578 3.89938 39.6871 3.80299 38.9485 3.57837C38.3718 4.91167 37.5192 6.95263 37.7152 8.73803C39.0429 8.19952 41.0729 8.93365 41.0729 8.93365L40.7541 8.07963L41.2201 7.54305C41.2201 7.54305 39.837 7.70335 39.8365 7.70254C39.4282 6.78918 39.7698 6.33932 40.6594 6.33932C41.0306 6.33932 41.3185 6.51824 41.3185 6.51824L41.5111 5.89495L41.3445 5.58615L41.5797 5.60773L41.687 5.29822Z" fill="#E2C029"/>
<path fill-rule="evenodd" clip-rule="evenodd" d="M1.09286 12.0711C1.09286 10.9507 2.58907 11.3047 3.40962 11.3047C4.23048 11.3047 4.17193 10.2451 4.17193 10.2451H2.60974C1.36288 10.2451 0.565541 11.0134 1.09286 12.0711Z" fill="#D2AD15"/>
<path fill-rule="evenodd" clip-rule="evenodd" d="M5.94026 9.7787C5.57575 9.41423 5.1976 9.21342 4.6598 9.21342C3.46598 9.21342 1.73935 9.13739 1.49835 8.51074C1.28881 8.73038 1.30826 9.17393 1.81847 9.68354C0.474266 9.68354 0.237641 9.98918 0.102019 10.2749C-0.248744 11.0134 0.359822 12.0713 1.09261 12.0713C0.565291 11.0137 1.36263 10.2453 2.60949 10.2453H4.17168H4.40546H4.6598C4.84276 10.2453 5.04345 10.3411 5.21043 10.508C5.56445 10.862 5.56445 11.4381 5.21043 11.792L2.73554 14.2658C2.57925 14.4219 2.46633 14.5992 2.37449 14.788L6.44579 11.6671C6.62519 11.0161 6.45118 10.2896 5.94026 9.7787Z" fill="#E2C029"/>
<path fill-rule="evenodd" clip-rule="evenodd" d="M8.85818 7.3562C8.87804 7.2819 8.89077 7.21198 8.89769 7.14572C8.53858 6.72456 7.93918 6.55886 7.12942 6.90054C6.11032 7.33024 5.18164 6.58594 5.18164 6.58594C5.88245 7.92809 6.85563 7.49268 7.6995 7.22765C8.16032 7.08313 8.59285 7.22521 8.85818 7.3562Z" fill="#B98F16"/>
<path fill-rule="evenodd" clip-rule="evenodd" d="M13.1474 12.4043C14.0135 11.9094 14.7099 11.5486 14.7113 11.548L14.7115 11.5479L14.3819 12.9731C14.3819 12.9731 15.3597 14.5634 15.8834 15.4265C15.8722 15.4321 15.8604 15.4365 15.8492 15.4425L13.1426 12.4072V12.4071C13.1442 12.4062 13.1457 12.4052 13.1474 12.4043Z" fill="#E2C029"/>
<path fill-rule="evenodd" clip-rule="evenodd" d="M9.48289 8.54272C9.16777 8.68226 8.46319 9.11013 8.46319 10.1537C7.50915 10.1537 8.35546 11.5987 7.84668 11.9911C7.85523 11.9884 7.86317 11.9857 7.87173 11.9831C8.93715 11.6189 10.7103 9.96965 10.845 8.73579C10.4317 8.56725 9.95004 8.52368 9.48289 8.54272Z" fill="#D2AD15"/>
<path fill-rule="evenodd" clip-rule="evenodd" d="M12.066 13.0442C12.4296 12.8201 12.799 12.6031 13.1422 12.407L13.1423 12.4071L15.8489 15.4423C15.9991 15.3623 16.1671 15.3123 16.349 15.3123V16.3759H16.3473C16.8039 16.4766 17.1088 16.8546 17.1088 17.4378H16.3468L16.3473 18.3866C16.2465 18.4987 16.0878 18.5703 15.9264 18.575L12.0615 13.047C12.0633 13.0463 12.067 13.0455 12.066 13.0442Z" fill="#EFD544"/>
<path fill-rule="evenodd" clip-rule="evenodd" d="M8.08522 13.0076C9.13975 13.6689 11.2419 13.5745 11.2439 13.5732C11.245 13.5723 11.2462 13.5716 11.2473 13.5709C11.2497 13.5718 10.6537 13.9363 10.0373 14.5302L5.89746 15.1891C5.89746 15.1891 7.23392 13.8564 8.08522 13.0076Z" fill="#E2C029"/>
<path fill-rule="evenodd" clip-rule="evenodd" d="M3.56445 20.458C4.0431 20.458 5.48922 20.2672 5.48922 19.2062V17.0085L6.59333 18.8084L6.60779 20.6313C4.82445 22.6764 5.27123 25.0082 6.08475 25.9477V26.6533C5.57872 26.6435 5.08144 26.6317 4.60483 26.6143L4.72915 26.084L4.06855 24.9384C4.06855 24.9384 4.35711 21.2502 3.56445 20.458Z" fill="#F6E477"/>
<path fill-rule="evenodd" clip-rule="evenodd" d="M6.08459 26.6548C6.66485 26.6653 7.33094 26.6719 7.94337 26.6719C8.37182 26.6719 8.78368 26.6717 9.17924 26.671C9.10155 26.2585 8.78785 25.123 7.66908 25.4815C7.66908 25.4815 6.72594 24.9749 6.72594 23.5825C6.72594 22.9636 7.05257 22.3268 7.60544 21.7742L6.60763 20.6311C4.82428 22.6762 5.27106 25.0081 6.08459 25.9475V26.6548Z" fill="#E2C029"/>
<path fill-rule="evenodd" clip-rule="evenodd" d="M12.0619 13.0471L15.9269 18.575C15.9216 18.575 15.9166 18.5759 15.9106 18.5759C15.8458 18.5759 14.5435 17.6086 14.5435 17.6086L11.2441 13.5732C11.503 13.3979 11.7806 13.2205 12.0619 13.0471Z" fill="#D2AD15"/>
<path fill-rule="evenodd" clip-rule="evenodd" d="M7.49609 12.0573C7.49609 13.7427 11.2409 13.575 11.2437 13.5732C12.6853 12.5973 14.7086 11.549 14.711 11.5479C12.9286 11.6076 12.2741 9.47404 10.8455 8.73584C10.6931 10.1305 8.44667 12.0573 7.49609 12.0573Z" fill="#F6E477"/>
<path fill-rule="evenodd" clip-rule="evenodd" d="M14.4401 10.278C14.1305 9.47737 14.017 8.17511 13.6777 6.88222L15.2983 5.85212L15.6873 5.17773H17.5071L17.8454 5.76367C17.1428 5.83136 16.6932 5.88245 16.6793 5.88377L16.3616 5.92397V8.46416L14.4401 10.278Z" fill="#D2AD15"/>
<path fill-rule="evenodd" clip-rule="evenodd" d="M12.2443 4.09007V2.99962L11.1223 3.49335C11.1323 3.43553 11.1561 3.13 10.6279 2.83667C10.6509 3.16541 10.1716 3.40714 9.61816 3.57619C10.1921 4.90959 11.0406 6.95046 10.8455 8.73586C12.2738 9.47406 12.9286 11.6076 14.7111 11.5479C14.7111 11.5479 15.1663 11.3318 15.3185 11.067C13.6282 11.067 14.5441 6.38935 12.2443 4.09007Z" fill="#E2C029"/>
<path fill-rule="evenodd" clip-rule="evenodd" d="M2.74471 17.0084C3.11085 17.3748 3.59825 17.5765 4.11671 17.5765C4.63486 17.5765 5.12247 17.3748 5.48871 17.0084L6.59282 18.8083L6.60728 20.6311L8.69414 23.0218C8.69516 22.356 8.70096 17.0513 8.70096 17.0513C8.70096 16.8161 8.74077 16.5857 8.81011 16.3627C9.02688 15.644 9.5379 15.011 10.0368 14.5301L5.897 15.189L5.04875 16.0226C5.04875 16.0226 4.13707 16.9416 3.47495 16.2791C3.12052 15.9249 3.12052 15.349 3.47495 14.9952L5.94943 12.5215C6.19522 12.2759 6.35955 11.9801 6.44559 11.667L2.3743 14.7879C2.02272 15.5113 2.1445 16.4083 2.74471 17.0084ZM10.0372 14.5298C10.0371 14.53 10.0369 14.5301 10.0368 14.5302C10.0369 14.5301 10.0371 14.53 10.0372 14.5298Z" fill="#EFD544"/>
<path fill-rule="evenodd" clip-rule="evenodd" d="M8.69824 19.8311C8.69855 19.6057 8.69875 19.2248 8.69906 19.0081L8.69926 19.0082C8.69916 19.0602 8.69916 19.1123 8.69906 19.1652L12.1668 19.972L14.4626 24.491C13.7739 24.5469 13.1555 24.6069 12.6196 24.6647L12.8405 24.0798L10.0416 20.088L8.69824 19.8311Z" fill="#F6E477"/>
<path fill-rule="evenodd" clip-rule="evenodd" d="M13.7851 20.3486C14.0434 22.6055 15.5249 23.3212 15.5249 23.3212C15.5249 23.3212 15.8076 23.251 16.1007 23.251C16.7522 23.251 17.0709 24.3279 17.0709 24.3279C16.7271 24.3434 16.3668 24.3641 16.0064 24.3865C15.7005 24.4028 15.4014 24.4214 15.1153 24.442C14.8906 24.4586 14.6747 24.4755 14.463 24.4932L12.166 19.9719L13.7851 20.3486Z" fill="#D2AD15"/>
<path fill-rule="evenodd" clip-rule="evenodd" d="M8.70075 17.7573L10.1916 16.6648L14.3494 20.1056C14.3494 20.1056 14.1332 20.4068 13.7858 20.3486L8.69922 19.1651C8.69983 18.6277 8.70034 18.1331 8.70075 17.7573Z" fill="#E2C029"/>
<path fill-rule="evenodd" clip-rule="evenodd" d="M11.2436 13.5732L12.4297 15.024L8.7002 17.7573C8.7006 17.3259 8.70091 17.0513 8.70091 17.0513C8.70091 16.8161 8.74072 16.5858 8.81016 16.3628C9.02693 15.644 9.53785 15.0111 10.0368 14.5302C10.6337 13.9551 11.2098 13.5962 11.2435 13.5732H11.2436Z" fill="#B98F16"/>
<path fill-rule="evenodd" clip-rule="evenodd" d="M9.0098 4.67771C8.7859 4.66987 8.60568 4.52789 8.57483 4.34886C8.8418 4.30662 9.16181 4.26489 9.47103 4.24555C9.475 4.26835 9.47775 4.29145 9.47694 4.31497C9.47032 4.52371 9.26078 4.68615 9.0098 4.67771ZM9.61851 3.57617C8.88358 3.8007 8.01711 3.89718 8.01711 3.89718L7.85421 4.58042L6.89355 5.29603L7.00026 5.60553L7.23434 5.58396L7.06858 5.89275L7.2602 6.51604C7.2602 6.51604 7.54672 6.33712 7.91601 6.33712C8.80121 6.33712 9.14118 6.78688 8.73493 7.70034C8.73442 7.70115 7.35815 7.54085 7.35815 7.54085L7.82193 8.07743L7.50456 8.93145C7.50456 8.93145 9.52453 8.19732 10.8457 8.73583C11.0408 6.95044 10.1924 4.90947 9.61851 3.57617Z" fill="#EFD544"/>
<path fill-rule="evenodd" clip-rule="evenodd" d="M31.393 19.5355C31.393 23.5411 24.2509 24.9599 24.2509 24.9599C24.2509 24.9599 17.1094 23.5411 17.1094 19.5355V6.60831C17.1094 6.60831 19.526 6.1499 24.2509 6.1499C28.9765 6.1499 31.393 6.60831 31.393 6.60831V19.5355Z" fill="#D2AD15"/>
<path fill-rule="evenodd" clip-rule="evenodd" d="M24.2503 24.9598C24.2503 24.9598 31.3924 23.5411 31.3924 19.5354V6.60821C31.3924 6.60821 28.9758 6.1499 24.2503 6.1499C23.1373 6.1499 22.1523 6.17535 21.2969 6.21423C27.7449 6.47173 30.3219 7.34315 30.3219 7.34315C30.3219 7.34315 30.3277 16.3604 30.3277 19.6648C30.3277 22.9691 24.2503 24.9598 24.2503 24.9598Z" fill="#B98F16"/>
<path fill-rule="evenodd" clip-rule="evenodd" d="M25.6929 13.9766L25.1462 13.9086L24.9771 14.1342L23.7002 13.3206C23.8286 13.9629 24.1789 15.1866 25.0774 16.2276C25.6759 16.6604 26.3014 17.1136 26.7981 17.4732C26.7589 15.3718 26.0471 14.2148 25.8619 13.7511L25.6929 13.9766Z" fill="#4B4B4B"/>
<path fill-rule="evenodd" clip-rule="evenodd" d="M23.0788 14.7852C22.4097 14.3077 22.6287 13.3632 23.0688 12.9188L24.9766 14.1341L25.1457 13.9085L25.6924 13.9765L25.8614 13.751L27.2722 13.9936C27.0088 13.5724 26.5701 12.8941 25.9036 12.44L26.0728 12.2145C25.7321 12.0541 24.9533 11.9269 24.0529 11.9269H22.6798L23.6501 9.16169C23.9082 8.41738 23.4485 7.82198 22.9482 7.76671C22.1922 7.68356 21.8795 8.49657 21.8795 8.49657L22.7086 9.34082C22.7273 9.34509 21.6394 11.8814 21.6394 11.8814C21.5283 12.1471 21.4556 12.4913 21.4532 12.8632C21.4486 13.5734 21.7733 14.2985 22.4349 14.9409C22.9961 15.4859 25.425 17.3902 25.425 17.3902L25.6205 17.1305L26.7976 17.4731C26.7976 17.4731 23.2657 14.9182 23.0788 14.7852Z" fill="white"/>
<path fill-rule="evenodd" clip-rule="evenodd" d="M23.6998 13.3206L23.069 12.9189C22.6288 13.3633 22.4097 14.3078 23.0789 14.7853C23.2825 14.9301 24.1459 15.5542 25.077 16.2276C24.1785 15.1866 23.8283 13.963 23.6998 13.3206Z" fill="#636363"/>
<path fill-rule="evenodd" clip-rule="evenodd" d="M27.272 13.9939L25.8613 13.7512C26.0464 14.2149 26.7582 15.3719 26.7975 17.4734C27.3607 17.8813 27.7579 18.1687 27.7579 18.1687L28.0364 17.7978L28.7662 18.3027C28.7263 17.9681 28.6698 17.6531 28.6005 17.3547C28.2841 15.8713 27.7606 14.755 27.272 13.9939Z" fill="black"/>
<path fill-rule="evenodd" clip-rule="evenodd" d="M26.0359 22.6649C26.0047 22.5864 25.9464 22.5112 25.8347 22.5112H25.4248V20.5723L25.089 20.7248V22.5054H24.4663C24.394 22.5054 24.2545 22.608 24.2067 22.608H23.9284C23.8162 22.608 23.7577 22.6827 23.7269 22.7616L23.7065 22.8227L23.6949 22.8998C23.6924 22.9246 23.6924 22.9412 23.6924 22.9412H24.3638L24.5017 22.8388H24.7818C24.6054 22.9471 24.4166 23.0634 24.345 23.107C24.2491 23.1657 24.2374 23.2606 24.2514 23.344L24.2662 23.4087L24.295 23.4786C24.3058 23.5013 24.3137 23.5156 24.3137 23.5156L25.4513 22.8441H26.0704C26.0704 22.8441 26.07 22.8278 26.0677 22.8028L26.0484 22.7229L26.0359 22.6649Z" fill="#4B4B4B"/>
<path fill-rule="evenodd" clip-rule="evenodd" d="M20.1364 15.4715L20.0732 15.5561L20.1108 16.1068L20.2159 15.9651L20.2915 15.9742L20.7256 16.7272C20.7256 16.7272 20.7312 16.7236 20.7404 16.718L20.7942 16.674L20.8414 16.632C20.9041 16.564 20.9569 16.4652 20.8938 16.3548C20.8768 16.3254 20.8489 16.2765 20.8145 16.2167L22.0977 16.8256L22.6223 16.7017L20.5195 15.7061C20.473 15.6263 20.4091 15.505 20.4091 15.505C20.3717 15.447 20.2323 15.4253 20.1364 15.4715Z" fill="#636363"/>
<path fill-rule="evenodd" clip-rule="evenodd" d="M22.709 9.34108L21.8798 8.49683L18.3076 9.34108H22.709Z" fill="black"/>
<path fill-rule="evenodd" clip-rule="evenodd" d="M20.0049 15.648L19.3215 15.7356C19.3215 15.7356 19.1174 15.9971 19.0133 16.137C18.9463 16.2271 18.9704 16.3192 19.0143 16.3916L19.0556 16.4451L19.1045 16.5004C19.1223 16.5169 19.1355 16.527 19.1355 16.527L19.4837 16.0589L19.7647 16.0191C19.6302 16.2004 19.4867 16.393 19.4367 16.4608C19.3697 16.551 19.3941 16.6433 19.4384 16.7156L19.4828 16.7727L19.5281 16.8242C19.546 16.8411 19.5591 16.8511 19.5591 16.8511L20.1109 16.1066L20.0733 15.5559L20.0049 15.648Z" fill="#4B4B4B"/>
<path fill-rule="evenodd" clip-rule="evenodd" d="M24.6112 16.7467C24.5044 16.6618 24.3918 16.5718 24.2756 16.4788V17.4546L24.226 17.4607L22.6223 16.7017L22.0977 16.8255L24.0975 17.7747L24.3026 18.039L24.6316 17.9918L24.7557 17.6804L24.6112 17.4945V16.7467Z" fill="#4B4B4B"/>
<path fill-rule="evenodd" clip-rule="evenodd" d="M23.1779 8.49384C23.1779 8.49384 22.7956 8.66483 22.702 8.66483C22.6088 8.66483 22.5215 8.58819 22.5215 8.49384C22.5215 8.39939 22.6088 8.32275 22.702 8.32275C22.7956 8.32275 23.1779 8.49384 23.1779 8.49384Z" fill="black"/>
<path fill-rule="evenodd" clip-rule="evenodd" d="M19.2627 10.6132C19.0229 10.1887 19.3036 9.92931 19.5008 9.73013C19.6433 9.5853 19.7669 9.46103 19.7696 9.27823C19.7731 9.03824 19.6367 8.99437 19.3012 8.94572C19.1018 8.91671 18.8958 8.88679 18.7784 8.73565C18.7121 8.64924 18.685 8.54848 18.7006 8.44456C18.7354 8.21251 18.9734 8.03908 19.0002 8.02015C19.0675 7.97302 19.1593 7.98992 19.2055 8.05719C19.2522 8.12457 19.2358 8.21729 19.169 8.26442C19.1163 8.30197 19.0043 8.40579 18.9919 8.48935C18.9896 8.50604 18.9901 8.52527 19.0112 8.55255C19.0548 8.60934 19.2078 8.63143 19.3428 8.65117C19.6332 8.69331 20.0719 8.75702 20.0641 9.28251C20.0598 9.58591 19.8737 9.7743 19.7096 9.9405C19.5226 10.1294 19.3701 10.2675 19.4712 10.5343C19.5375 10.7091 19.8375 10.8019 19.7798 10.9054C19.7255 11.0029 19.3802 10.8212 19.2627 10.6132Z" fill="black"/>
<path fill-rule="evenodd" clip-rule="evenodd" d="M25.425 17.3903C25.425 17.3903 25.2948 17.2883 25.0892 17.1257V17.7409H25.0931L24.9268 18.0315L25.0892 18.3161V20.7249L25.425 20.5724V18.3219L25.5913 18.0315L25.425 17.7409V17.3903Z" fill="black"/>
<path fill-rule="evenodd" clip-rule="evenodd" d="M27.9279 17.9431L27.7588 18.1687L27.9279 17.9431Z" fill="#636363"/>
<path fill-rule="evenodd" clip-rule="evenodd" d="M27.8655 13.4539C27.3537 12.9245 26.747 12.4985 26.0725 12.2146L25.9033 12.4401C26.5698 12.8942 27.0085 13.5725 27.2719 13.9937C27.7605 14.7548 28.2839 15.8711 28.6004 17.3546C28.6695 17.6529 28.7261 17.9679 28.766 18.3025L29.4712 18.7967C29.8308 16.7581 29.1477 14.7801 27.8655 13.4539Z" fill="#636363"/>
<path fill-rule="evenodd" clip-rule="evenodd" d="M46.1272 14.7901L42.056 11.6692C42.142 11.9823 42.3064 12.2781 42.5522 12.5237L45.0266 14.9973C45.381 15.3513 45.381 15.9271 45.0266 16.2813C44.3645 16.9438 43.4528 16.0249 43.4528 16.0249L42.6045 15.1912L38.4647 14.5324C38.9637 15.0132 39.4746 15.6462 39.6914 16.365C39.7608 16.5879 39.8006 16.8184 39.8006 17.0535C39.8006 17.0535 39.8064 22.3582 39.8075 23.024L41.8943 20.6333L41.9087 18.8105L43.0128 17.0106C43.3791 17.377 43.8666 17.5787 44.3849 17.5787C44.9033 17.5787 45.3908 17.377 45.7568 17.0106C46.357 16.4106 46.4788 15.5135 46.1272 14.7901ZM38.4643 14.5324C38.4642 14.5322 38.464 14.5321 38.4639 14.532C38.464 14.5321 38.4642 14.5322 38.4643 14.5324Z" fill="#E2C029"/>
<defs>
<linearGradient id="paint0_linear_867:20468" x1="39.9806" y1="22.5437" x2="39.9798" y2="22.5437" gradientUnits="userSpaceOnUse">
<stop stop-color="#B88E15"/>
<stop offset="1" stop-color="#D1AC14"/>
</linearGradient>
</defs>
</svg>
