<?xml version="1.0" encoding="UTF-8" standalone="no"?>
<svg
   xmlns:dc="http://purl.org/dc/elements/1.1/"
   xmlns:cc="http://creativecommons.org/ns#"
   xmlns:rdf="http://www.w3.org/1999/02/22-rdf-syntax-ns#"
   xmlns:svg="http://www.w3.org/2000/svg"
   xmlns="http://www.w3.org/2000/svg"
   xmlns:sodipodi="http://sodipodi.sourceforge.net/DTD/sodipodi-0.dtd"
   xmlns:inkscape="http://www.inkscape.org/namespaces/inkscape"
   viewBox="0 0 58.920353 39.657536"
   fill="none"
   version="1.1"
   id="svg681"
   sodipodi:docname="pwa-logo.svg"
   width="58.920353"
   height="39.657536"
   inkscape:version="1.0.2 (e86c870879, 2021-01-15, custom)">
  <metadata
     id="metadata685">
    <rdf:RDF>
      <cc:Work
         rdf:about="">
        <dc:format>image/svg+xml</dc:format>
        <dc:type
           rdf:resource="http://purl.org/dc/dcmitype/StillImage" />
        <dc:title></dc:title>
      </cc:Work>
    </rdf:RDF>
  </metadata>
  <sodipodi:namedview
     pagecolor="#ffffff"
     bordercolor="#666666"
     borderopacity="1"
     objecttolerance="10"
     gridtolerance="10"
     guidetolerance="10"
     inkscape:pageopacity="0"
     inkscape:pageshadow="2"
     inkscape:window-width="1920"
     inkscape:window-height="1017"
     id="namedview683"
     showgrid="false"
     fit-margin-top="0"
     fit-margin-left="0"
     fit-margin-right="0"
     fit-margin-bottom="0"
     inkscape:zoom="7.2653061"
     inkscape:cx="73.424804"
     inkscape:cy="19.943634"
     inkscape:window-x="-8"
     inkscape:window-y="-8"
     inkscape:window-maximized="1"
     inkscape:current-layer="g664" />
  <g
     clip-path="url(#clip0)"
     id="g664"
     transform="translate(-0.07519553,-0.056366)">
    <path
       fill-rule="evenodd"
       clip-rule="evenodd"
       d="M 47.7714,33.7095 H 37.106 v 6.0044 h 10.6654 c 7.7562,0 10.6157,-0.5944 10.6157,-0.5944 v -6.0743 c 0,0 -2.8868,0.6643 -10.6157,0.6643 z"
       fill="#1d6b35"
       id="path504" />
    <path
       fill-rule="evenodd"
       clip-rule="evenodd"
       d="m 23.2777,32.1898 1.9388,4.5825 c 1.4372,-0.0161 2.8968,-0.0244 4.3764,-0.0244 2.2452,0 4.4457,0.019 6.5888,0.0553 V 32.615 l 8.9472,-1.1676 c 0,0 -1.2431,-0.2168 -4.6229,-0.4661 -3.3795,-0.2493 -8.2335,-0.1584 -8.2335,-0.1584 0,0 -1.947,0.6599 -2.698,0.792 -0.7512,-0.1321 -2.6979,-0.792 -2.6979,-0.792 0,0 -4.8173,-0.0907 -8.197,0.1584 -3.3749,0.2485 -5.6228,0.6069 -5.6361,0.6089 z"
       fill="#1d6b35"
       id="path506" />
    <path
       fill-rule="evenodd"
       clip-rule="evenodd"
       d="m 22.8438,32.7673 0.0167,4.0383 c 0.7777,-0.0135 1.5632,-0.0246 2.3559,-0.0334 L 23.2777,32.1897 13.0435,31.5901 v 1.1561 c 6.9096,-0.0169 9.8003,0.0211 9.8003,0.0211 z"
       fill="#155429"
       id="path508" />
    <path
       fill-rule="evenodd"
       clip-rule="evenodd"
       d="M 21.9189,33.7095 H 11.3765 c -7.7287,0 -10.615758,-0.6643 -10.615758,-0.6643 v 6.0743 c 0,0 2.859748,0.5944 10.615758,0.5944 h 10.5424 z"
       fill="#1d6b35"
       id="path510" />
    <path
       fill-rule="evenodd"
       clip-rule="evenodd"
       d="M 1.70579,33.2049 C 1.055,33.113 0.760742,33.0453 0.760742,33.0453 v 6.0743 c 0,0 1.030818,0.2142 3.531428,0.3854 -1.65888,-1.8884 -2.4602,-4.2284 -2.58638,-6.3001 z"
       fill="#155429"
       id="path512" />
    <path
       fill-rule="evenodd"
       clip-rule="evenodd"
       d="m 4.2998,35.1606 h 1.1334 v 0.3577 H 5.12609 l 0.72248,2.0194 c 0.03015,0.0829 0.04758,0.1788 0.0692,0.2659 h 0.00865 c 0.02151,-0.0871 0.03893,-0.183 0.06921,-0.2659 L 6.70501,35.5183 H 6.35464 v -0.3577 h 1.10744 v 0.3577 H 7.18958 L 6.15135,38.2137 H 5.61487 L 4.56366,35.5183 H 4.2998 Z"
       fill="#ffffff"
       id="path514" />
    <path
       fill-rule="evenodd"
       clip-rule="evenodd"
       d="m 8.92231,36.5301 c 0.34171,0 0.57961,-0.1832 0.57961,-0.5102 0,-0.3184 -0.19465,-0.5017 -0.54501,-0.5017 H 8.55464 L 8.54599,36.5301 Z M 7.75,37.8561 h 0.29846 l 0.0173,-2.3379 H 7.75 v -0.3576 h 1.34534 c 0.62299,0 0.91716,0.3621 0.91716,0.8069 0,0.5277 -0.33742,0.7677 -0.72239,0.807 v 0.0086 c 0.16857,0.0132 0.28103,0.157 0.38497,0.3314 l 0.32872,0.5584 c 0.0865,0.1439 0.1687,0.1832 0.2682,0.1832 h 0.1126 v 0.3577 h -0.2813 c -0.25521,0 -0.37199,-0.0262 -0.54934,-0.3229 L 9.1386,37.18 C 9.01316,36.962 8.94828,36.9139 8.80554,36.9139 H 8.54601 l -0.00865,0.9422 h 0.35036 v 0.3577 H 7.75 Z"
       fill="#ffffff"
       id="path516" />
    <path
       fill-rule="evenodd"
       clip-rule="evenodd"
       d="m 10.7564,37.8561 h 0.3027 l 0.0173,-2.3378 h -0.3503 v -0.3576 h 2.1283 l 0.0173,0.8024 h -0.4023 l -0.026,-0.4448 h -0.8782 l -0.0085,0.9421 h 0.8651 v 0.3838 h -0.8651 l -0.0088,1.0119 h 0.9215 l 0.0346,-0.4973 h 0.4067 l -0.0346,0.8549 h -2.1197 z"
       fill="#ffffff"
       id="path518" />
    <path
       fill-rule="evenodd"
       clip-rule="evenodd"
       d="m 14.6749,37.8561 c 0.7396,0 1.155,-0.4537 1.155,-1.217 0,-0.6847 -0.3894,-1.1208 -1.1334,-1.1208 h -0.4889 l -0.0172,2.3378 z m -1.276,0 h 0.3071 l 0.0173,-2.3378 h -0.3244 v -0.3576 h 1.4362 c 0.9734,0 1.5313,0.5713 1.5313,1.4567 0,0.9029 -0.5666,1.5963 -1.5356,1.5963 h -1.4319 z"
       fill="#ffffff"
       id="path520" />
    <path
       fill-rule="evenodd"
       clip-rule="evenodd"
       d="m 16.708,37.8561 h 0.3028 l 0.0173,-2.3378 h -0.3504 v -0.3576 h 2.1284 l 0.0173,0.8024 H 18.421 L 18.3951,35.5183 H 17.517 l -0.0087,0.9421 h 0.8653 v 0.3838 h -0.8653 l -0.0087,1.0119 h 0.9214 l 0.0347,-0.4973 h 0.4066 l -0.0347,0.8549 H 16.708 Z"
       fill="#ffffff"
       id="path522" />
    <path
       fill-rule="evenodd"
       clip-rule="evenodd"
       d="m 41.3807,36.5301 c 0.3418,0 0.5797,-0.1832 0.5797,-0.5102 0,-0.3184 -0.1947,-0.5017 -0.5452,-0.5017 H 41.013 l -0.0087,1.0119 z m -1.1722,1.326 h 0.2985 l 0.0173,-2.3379 h -0.3158 v -0.3576 h 1.3452 c 0.623,0 0.9171,0.3621 0.9171,0.8069 0,0.5277 -0.3374,0.7677 -0.7223,0.807 v 0.0086 c 0.1687,0.0132 0.2811,0.157 0.3849,0.3314 l 0.3289,0.5584 c 0.0864,0.1439 0.1686,0.1832 0.2682,0.1832 h 0.1124 v 0.3577 h -0.2811 c -0.2553,0 -0.3721,-0.0262 -0.5495,-0.3229 L 41.5971,37.18 C 41.4715,36.962 41.4068,36.9139 41.264,36.9139 h -0.2596 l -0.0087,0.9422 h 0.3505 v 0.3577 h -1.1377 z"
       fill="#ffffff"
       id="path524" />
    <path
       fill-rule="evenodd"
       clip-rule="evenodd"
       d="m 43.2148,37.8561 h 0.3028 l 0.0173,-2.3378 h -0.3503 v -0.3576 h 2.1283 l 0.0172,0.8024 h -0.4022 l -0.026,-0.4448 h -0.8781 l -0.0086,0.9421 h 0.8652 v 0.3838 h -0.8652 l -0.0088,1.0119 h 0.9215 l 0.0347,-0.4973 h 0.4066 l -0.0348,0.8549 h -2.1196 z"
       fill="#ffffff"
       id="path526" />
    <path
       fill-rule="evenodd"
       clip-rule="evenodd"
       d="m 47.8647,36.0548 v -0.4885 c -0.1124,-0.0306 -0.2856,-0.0742 -0.5147,-0.0742 -0.7225,0 -1.0989,0.4449 -1.0989,1.2081 0,0.6937 0.4153,1.1821 1.034,1.1821 0.2075,0 0.4281,-0.0219 0.5407,-0.0437 l 0.0173,-0.5495 h 0.4325 l -0.0171,0.8331 c -0.1948,0.0654 -0.5841,0.1439 -0.9431,0.1439 -1.0858,0 -1.6006,-0.6805 -1.6006,-1.5485 0,-0.9508 0.6316,-1.6093 1.6394,-1.6093 0.3808,0 0.7398,0.0828 0.9431,0.1657 v 0.7808 z"
       fill="#ffffff"
       id="path528" />
    <path
       fill-rule="evenodd"
       clip-rule="evenodd"
       d="m 50.6588,37.8561 h 0.3028 l 0.0088,-0.9814 h -1.4059 l -0.0088,0.9814 h 0.3244 v 0.3576 h -1.1159 v -0.3576 h 0.3027 l 0.0173,-2.3378 h -0.32 v -0.3576 h 1.1159 v 0.3576 H 49.573 l -0.0085,0.9725 h 1.4059 l 0.0086,-0.9725 h -0.3202 v -0.3576 h 1.1161 v 0.3576 h -0.3071 l -0.0173,2.3378 h 0.3244 v 0.3576 h -1.1161 z"
       fill="#ffffff"
       id="path530" />
    <path
       fill-rule="evenodd"
       clip-rule="evenodd"
       d="m 52.922,37.8561 h 0.3115 l 0.0172,-2.3378 h -0.7051 l -0.0174,0.4448 h -0.4325 l 0.0173,-0.8024 h 2.747 l 0.0172,0.8024 h -0.4325 l -0.0173,-0.4448 h -0.6921 l -0.0174,2.3378 h 0.3503 v 0.3576 H 52.922 Z"
       fill="#ffffff"
       id="path532" />
    <path
       fill-rule="evenodd"
       clip-rule="evenodd"
       d="m 23.4049,4.96339 c 0.1314,-0.08797 0.3106,-0.14915 0.504,-0.17357 0.0577,-0.00673 0.1155,-0.01047 0.1728,-0.01047 0.3655,0 0.6291,0.14641 0.6562,0.36422 0.0311,0.2568 -0.2786,0.49118 -0.7196,0.54563 -0.0585,0.00723 -0.1162,0.01084 -0.1732,0.01084 -0.3657,0 -0.6295,-0.14653 -0.6558,-0.36471 -0.0166,-0.13557 0.0599,-0.2674 0.2156,-0.37194 z M 26.7388,4.48343 27.6492,4.92539 26.763,5.41558 25.8523,4.97312 Z m 2.7998,-0.08526 c 0.4781,0 0.8389,0.20759 0.8389,0.48296 0,0.27538 -0.3608,0.48309 -0.8389,0.48309 -0.4784,0 -0.8392,-0.20771 -0.8392,-0.48309 0,-0.27537 0.3608,-0.48296 0.8392,-0.48296 z m 2.7998,0.08526 0.8861,0.48969 -0.9102,0.44246 -0.8867,-0.48981 z m 2.0013,0.66051 c 0.0265,-0.21818 0.2904,-0.36459 0.6561,-0.36459 0.057,0 0.1153,0.00374 0.1732,0.01047 0.1935,0.02442 0.3718,0.0856 0.5034,0.17357 0.1555,0.10454 0.2323,0.23637 0.2157,0.37194 -0.0266,0.21793 -0.2896,0.36471 -0.6552,0.36471 -0.0571,0 -0.1156,-0.00361 -0.1735,-0.01084 C 34.6177,5.63475 34.3088,5.40037 34.3397,5.14394 Z m -4.6128,1.19208 c 2.8925,0 5.0727,0.14267 6.5228,0.28447 l 0.3291,-2.65641 c -1.4176,-0.12634 -4.085,-0.44159 -6.9846,-0.44159 -2.9267,0 -5.6753,0.31923 -7.1191,0.44508 l 0.3434,2.69242 c 1.4368,-0.15351 3.7463,-0.32397 6.9084,-0.32397 z"
       fill="#e2c029"
       id="path534" />
    <path
       fill-rule="evenodd"
       clip-rule="evenodd"
       d="m 30.3888,1.63121 c -0.3872,0 -0.7008,0.31661 -0.7008,0.70662 0,0.30615 0.1928,0.56657 0.4629,0.66501 L 30.8405,1.79805 C 30.7184,1.69426 30.561,1.63121 30.3888,1.63121 Z m -8.0461,0.47798 c -0.3871,0 -0.7003,0.31637 -0.7003,0.70662 0,0.39001 0.3132,0.70663 0.7003,0.70663 0.3874,0 0.701,-0.31662 0.701,-0.70663 0,-0.39025 -0.3136,-0.70662 -0.701,-0.70662 z m 1.61,-0.11938 c -0.3872,0 -0.7011,0.31662 -0.7011,0.70663 0,0.39 0.3139,0.70662 0.7011,0.70662 0.3872,0 0.7006,-0.31662 0.7006,-0.70662 0,-0.39001 -0.3134,-0.70663 -0.7006,-0.70663 z m 1.6088,-0.11935 c -0.3865,0 -0.7007,0.31625 -0.7007,0.7065 0,0.39013 0.3142,0.70675 0.7007,0.70675 0.3877,0 0.7014,-0.31662 0.7014,-0.70675 0,-0.39025 -0.3137,-0.7065 -0.7014,-0.7065 z m 1.6089,-0.11937 c -0.3872,0 -0.7008,0.31624 -0.7008,0.70649 0,0.39038 0.3136,0.70638 0.7008,0.70638 0.3872,0 0.7008,-0.316 0.7008,-0.70638 0,-0.39025 -0.3136,-0.70649 -0.7008,-0.70649 z m 1.6088,-0.11988 c -0.3863,0 -0.7008,0.31661 -0.7008,0.70662 0,0.39038 0.3145,0.70662 0.7008,0.70662 0.3871,0 0.7011,-0.31624 0.7011,-0.70662 0,-0.39001 -0.314,-0.70662 -0.7011,-0.70662 z M 22.807,1.24122 c 0,-0.390256 -0.3137,-0.706871 -0.701,-0.706871 -0.3872,0 -0.7007,0.316615 -0.7007,0.706871 0,0.39001 0.3135,0.70637 0.7007,0.70637 0.3873,0 0.701,-0.31636 0.701,-0.70637 z m 7.4777,-0.478232 c 0,-0.390007 -0.3137,-0.706622 -0.7009,-0.706622 -0.3871,0 -0.7008,0.316615 -0.7008,0.706622 0,0.390752 0.3137,0.706622 0.7008,0.706622 0.3872,0 0.7009,-0.31587 0.7009,-0.706622 z"
       fill="#e2c029"
       id="path536" />
    <path
       fill-rule="evenodd"
       clip-rule="evenodd"
       d="m 30.8405,1.79806 -0.6896,1.20479 c 0.0741,0.02716 0.1543,0.04161 0.2379,0.04161 0.3872,0 0.701,-0.31624 0.701,-0.70662 0,-0.21643 -0.0969,-0.41019 -0.2493,-0.53978 z m 1.1572,-0.04699 c -0.3867,0 -0.7009,0.31624 -0.7009,0.7065 0,0.39038 0.3142,0.70637 0.7009,0.70637 0.3876,0 0.7013,-0.31599 0.7013,-0.70637 0,-0.39026 -0.3137,-0.7065 -0.7013,-0.7065 z m 1.6092,0.11938 c -0.3872,0 -0.7009,0.31624 -0.7009,0.70649 0,0.39014 0.3137,0.70675 0.7009,0.70675 0.3875,0 0.7009,-0.31661 0.7009,-0.70675 0,-0.39025 -0.3134,-0.70649 -0.7009,-0.70649 z m 1.6095,0.11937 c -0.3872,0 -0.7008,0.31662 -0.7008,0.70663 0,0.39 0.3136,0.70662 0.7008,0.70662 0.3868,0 0.7004,-0.31662 0.7004,-0.70662 0,-0.39001 -0.3136,-0.70663 -0.7004,-0.70663 z m 1.6089,0.11936 c -0.387,0 -0.7009,0.31636 -0.7009,0.70662 0,0.39 0.3139,0.70662 0.7009,0.70662 0.3875,0 0.7006,-0.31662 0.7006,-0.70662 0,-0.39026 -0.3131,-0.70662 -0.7006,-0.70662 z M 37.062,0.534332 c -0.387,0 -0.7009,0.316616 -0.7009,0.706868 0,0.39001 0.3139,0.70638 0.7009,0.70638 0.3872,0 0.7011,-0.31637 0.7011,-0.70638 0,-0.390252 -0.3139,-0.706868 -0.7011,-0.706868 z"
       fill="#d2ad15"
       id="path538" />
    <path
       fill-rule="evenodd"
       clip-rule="evenodd"
       d="m 32.3384,4.48346 0.8861,0.48968 -0.9102,0.44234 -0.8867,-0.48969 z m 2.0013,0.66053 c 0.0265,-0.21818 0.2904,-0.36458 0.6561,-0.36458 0.057,0 0.1153,0.00361 0.1732,0.01046 0.1935,0.0243 0.3718,0.0856 0.5034,0.17357 0.1555,0.10442 0.2322,0.23638 0.2157,0.37194 -0.0266,0.21793 -0.2896,0.36471 -0.6552,0.36471 -0.0571,0 -0.1156,-0.00373 -0.1735,-0.01084 C 34.6177,5.63468 34.3088,5.4003 34.3397,5.14399 Z m -4.8008,0.22017 c -0.2835,0 -0.5258,-0.07314 -0.6762,-0.18977 l -0.6928,1.17575 c 0.4944,-0.00909 1.0133,-0.0142 1.5576,-0.0142 2.8925,0 5.0726,0.14279 6.5226,0.28447 L 36.5792,3.96413 C 35.2006,3.84139 32.641,3.53973 29.8351,3.52341 l -0.5256,0.89165 c 0.0725,-0.01084 0.149,-0.01694 0.2294,-0.01694 0.4781,0 0.8389,0.20759 0.8389,0.48296 0,0.27537 -0.3608,0.48308 -0.8389,0.48308 z"
       fill="#d2ad15"
       id="path540" />
    <path
       fill-rule="evenodd"
       clip-rule="evenodd"
       d="m 36.1812,32.615 v 0.1523 h 9.9605 v -1.1772 c 0,0 -0.3653,-0.0577 -1.0133,-0.1427 z"
       fill="#155429"
       id="path542" />
    <path
       fill-rule="evenodd"
       clip-rule="evenodd"
       d="m 57.7419,39.2235 c 0.4426,-0.0691 0.6457,-0.104 0.6457,-0.104 v -6.0742 c 0,0 -0.7116,0.1636 -2.373,0.3284 1.1283,1.3855 1.5786,3.6418 1.7273,5.8498 z"
       fill="#155429"
       id="path544" />
    <path
       fill-rule="evenodd"
       clip-rule="evenodd"
       d="m 27.1082,34.9215 h 0.262 l 0.015,-2.0233 H 27.082 v -0.3095 h 1.8419 l 0.015,0.6946 h -0.3481 l -0.0225,-0.3851 h -0.76 l -0.0075,0.8154 h 0.7488 v 0.3322 h -0.7488 l -0.0074,0.8757 h 0.7974 l 0.0299,-0.4303 h 0.3519 l -0.0299,0.7398 h -1.8345 z"
       fill="#ffffff"
       id="path546" />
    <path
       fill-rule="evenodd"
       clip-rule="evenodd"
       d="m 29.411,34.9215 h 0.2546 l 0.015,-2.0233 h -0.3295 v -0.3095 h 0.6888 l 1.213,1.5968 c 0.0787,0.1056 0.191,0.2792 0.2621,0.3963 h 0.0076 l -0.015,-1.6836 h -0.292 v -0.3095 h 0.9134 v 0.3095 h -0.2545 l -0.015,2.3328 h -0.3406 l -1.3105,-1.7138 c -0.0748,-0.098 -0.146,-0.2037 -0.1834,-0.2792 l -0.0076,0.0076 0.015,1.6759 h 0.2883 V 35.231 H 29.411 Z"
       fill="#ffffff"
       id="path548" />
    <path
       fill-rule="evenodd"
       clip-rule="evenodd"
       d="m 48.5298,27.5091 h 6e-4 l -6e-4,-0.003 z"
       fill="url(#paint0_linear)"
       id="path550"
       style="fill:url(#paint0_linear)" />
    <path
       fill-rule="evenodd"
       clip-rule="evenodd"
       d="m 57.665,14.7589 c 0,-1.3644 -1.8224,-0.9333 -2.8218,-0.9333 -0.9998,0 -0.9285,-1.2904 -0.9285,-1.2904 h 1.9027 c 1.5187,0 2.4899,0.9357 1.8476,2.2237 z"
       fill="#d2ad15"
       id="path552" />
    <path
       fill-rule="evenodd"
       clip-rule="evenodd"
       d="m 51.7603,11.967 c 0.444,-0.4438 0.9046,-0.6883 1.5596,-0.6883 1.4541,0 3.5571,-0.0926 3.8506,-0.8557 0.2553,0.2675 0.2316,0.8076 -0.3899,1.4282 1.6373,0 1.9255,0.3722 2.0907,0.7201 0.4272,0.8993 -0.314,2.1875 -1.2066,2.1875 0.6423,-1.2879 -0.3289,-2.2236 -1.8475,-2.2236 h -1.9028 -0.2847 -0.3098 c -0.2229,0 -0.4673,0.1167 -0.6707,0.32 -0.4312,0.4311 -0.4312,1.1326 0,1.5635 l 3.0144,3.0125 c 0.1904,0.1901 0.3279,0.406 0.4398,0.6359 L 51.1446,14.2666 C 50.926,13.4739 51.138,12.5892 51.7603,11.967 Z"
       fill="#efd544"
       id="path554" />
    <path
       fill-rule="evenodd"
       clip-rule="evenodd"
       d="M 48.2068,9.01705 C 48.1826,8.92657 48.1671,8.84143 48.1587,8.76074 48.5961,8.24788 49.3262,8.0461 50.3124,8.46217 51.5537,8.98544 52.6848,8.07907 52.6848,8.07907 51.8312,9.71347 50.6459,9.18325 49.6181,8.86051 49.0568,8.68452 48.53,8.85754 48.2068,9.01705 Z"
       fill="#b98f16"
       id="path556" />
    <path
       fill-rule="evenodd"
       clip-rule="evenodd"
       d="m 42.9824,15.1644 c -1.055,-0.6027 -1.9031,-1.042 -1.9048,-1.0428 l -3e-4,-1e-4 0.4014,1.7355 c 0,0 -1.1909,1.9367 -1.8288,2.9877 0.0136,0.0068 0.028,0.0122 0.0417,0.0195 0,0 3.2968,-3.6962 3.2966,-3.6963 v -10e-5 c -0.0019,-0.0011 -0.0038,-0.0022 -0.0058,-0.0034 z"
       fill="#b98f16"
       id="path558" />
    <path
       fill-rule="evenodd"
       clip-rule="evenodd"
       d="m 48.6867,12.4238 c 0,-1.2707 -0.8582,-1.7918 -1.242,-1.9617 -0.569,-0.0233 -1.1557,0.0299 -1.6591,0.2351 0.1644,1.5026 2.3239,3.5109 3.6216,3.9545 0.0104,0.0031 0.0201,0.0064 0.0307,0.0096 -0.6199,-0.4778 0.4108,-2.2375 -0.7512,-2.2375 z"
       fill="#d2ad15"
       id="path560" />
    <path
       fill-rule="evenodd"
       clip-rule="evenodd"
       d="m 44.2989,15.9438 c -0.4428,-0.2729 -0.8928,-0.5372 -1.3108,-0.776 l -1e-4,10e-5 -3.2967,3.6961 c -0.1829,-0.0974 -0.3876,-0.1584 -0.609,-0.1584 v 1.2953 h 0.0019 c -0.556,0.1226 -0.9275,0.5829 -0.9275,1.2931 h 0.9282 l -7e-4,1.1554 c 0.1228,0.1366 0.3162,0.2237 0.5127,0.2294 l 4.7075,-6.7317 c -0.0021,-8e-4 -0.0067,-0.0017 -0.0055,-0.0033 z"
       fill="#e2c029"
       id="path562" />
    <path
       fill-rule="evenodd"
       clip-rule="evenodd"
       d="m 49.1478,15.8991 c -1.2844,0.8054 -3.8448,0.6904 -3.8473,0.6888 -0.0014,-0.001 -0.0027,-0.0019 -0.0041,-0.0028 -0.003,0.0012 0.723,0.445 1.4738,1.1682 l 5.0423,0.8024 c 0,0 -1.6278,-1.6229 -2.6647,-2.6566 z"
       fill="#d2ad15"
       id="path564" />
    <path
       fill-rule="evenodd"
       clip-rule="evenodd"
       d="m 54.6545,24.9717 c -0.583,0 -2.3443,-0.2324 -2.3443,-1.5244 v -2.6762 l -1.3448,2.1917 -0.0176,2.2198 c 2.1721,2.4905 1.6279,5.33 0.637,6.474 v 0.8593 c 0.6164,-0.0119 1.2221,-0.0263 1.8026,-0.0475 l -0.1515,-0.6457 0.8046,-1.3951 c 0,0 -0.3514,-4.4913 0.614,-5.4559 z"
       fill="#d2ad15"
       id="path566" />
    <path
       fill-rule="evenodd"
       clip-rule="evenodd"
       d="m 44.3046,15.9472 -4.7074,6.7315 c 0.0064,0 0.0126,0.0011 0.0198,0.0011 0.0789,0 1.6651,-1.1779 1.6651,-1.1779 l 4.0186,-4.9141 c -0.3152,-0.2134 -0.6534,-0.4294 -0.9961,-0.6406 z"
       fill="#efd544"
       id="path568" />
    <path
       fill-rule="evenodd"
       clip-rule="evenodd"
       d="m 45.7855,10.6973 c -1.7401,0.8989 -2.5374,3.4971 -4.7084,3.4243 0.0031,0.0014 2.4674,1.2779 4.2234,2.4662 0.0033,0.0023 4.5645,0.2065 4.5645,-1.8458 -1.1578,0 -3.894,-2.3464 -4.0795,-4.0447 z"
       fill="#f6e477"
       id="path570" />
    <path
       fill-rule="evenodd"
       clip-rule="evenodd"
       d="m 41.4074,12.575 c 0.3771,-0.9749 0.5154,-2.5607 0.9286,-4.13512 L 40.3622,7.18548 39.8884,6.36426 H 37.672 l -0.4122,0.71352 c 0.8558,0.08242 1.4034,0.14464 1.4203,0.14625 l 0.387,0.04896 v 3.09331 z"
       fill="#e2c029"
       id="path572" />
    <path
       fill-rule="evenodd"
       clip-rule="evenodd"
       d="M 44.0819,5.03987 V 3.71198 l 1.3665,0.60123 c -0.0122,-0.0704 -0.041,-0.44247 0.6022,-0.79966 -0.028,0.40033 0.5557,0.69468 1.2299,0.90055 -0.6991,1.62373 -1.7325,4.10898 -1.4949,6.2831 -1.7397,0.899 -2.5372,3.4971 -4.7083,3.4244 0,0 -0.5545,-0.2632 -0.7399,-0.5857 2.0589,0 0.9433,-5.6961 3.7445,-8.49603 z"
       fill="#efd544"
       id="path574" />
    <path
       fill-rule="evenodd"
       clip-rule="evenodd"
       d="m 49.7318,26.5753 c 0.6698,0.6716 1.0718,1.4498 1.0718,2.2014 0,1.6955 -1.1488,2.3123 -1.1488,2.3123 -1.3627,-0.4365 -1.7447,0.9464 -1.8394,1.4486 0.4818,8e-4 0.9835,0.001 1.5053,0.001 0.7458,0 1.5571,-0.0079 2.2639,-0.0208 v -0.8612 c 0.991,-1.1439 1.535,-3.9836 -0.6369,-6.4739 z"
       fill="#efd544"
       id="path576" />
    <path
       fill-rule="evenodd"
       clip-rule="evenodd"
       d="m 48.4013,24.2083 c -4e-4,-0.2745 -6e-4,-0.7383 -10e-4,-1.0023 l -2e-4,10e-5 c 10e-5,0.0634 10e-5,0.1268 2e-4,0.1913 l -4.2237,0.9824 -2.7962,5.503 c 0.8388,0.0681 1.5919,0.1411 2.2448,0.2115 L 43.356,29.382 46.7651,24.5211 Z"
       fill="#efd544"
       id="path578" />
    <path
       fill-rule="evenodd"
       clip-rule="evenodd"
       d="m 42.2047,24.8385 c -0.3146,2.7484 -2.119,3.6198 -2.119,3.6198 0,0 -0.3444,-0.0854 -0.7013,-0.0854 -0.7936,0 -1.1818,1.3114 -1.1818,1.3114 0.4188,0.0189 0.8576,0.044 1.2966,0.0713 0.3725,0.0198 0.7369,0.0425 1.0854,0.0677 0.2737,0.0202 0.5366,0.0407 0.7944,0.0623 l 2.7978,-5.5058 z"
       fill="#e2c029"
       id="path580" />
    <path
       fill-rule="evenodd"
       clip-rule="evenodd"
       d="m 48.3981,21.683 -1.8158,-1.3303 -5.0642,4.19 c 0,0 0.2632,0.3667 0.6864,0.2958 L 48.4,23.3974 c -8e-4,-0.6544 -0.0014,-1.2568 -0.0019,-1.7144 z"
       fill="#d2ad15"
       id="path582" />
    <path
       fill-rule="evenodd"
       clip-rule="evenodd"
       d="m 45.3006,16.588 -1.4446,1.7666 4.5425,3.3284 c -5e-4,-0.5253 -9e-4,-0.8597 -9e-4,-0.8597 0,-0.2864 -0.0485,-0.5669 -0.1331,-0.8384 -0.264,-0.8753 -0.8863,-1.646 -1.494,-2.2317 C 46.0434,17.053 45.3418,16.616 45.3007,16.588 Z"
       fill="#efd544"
       id="path584" />
    <path
       fill-rule="evenodd"
       clip-rule="evenodd"
       d="m 48.0217,5.75553 c -0.3057,0.01042 -0.561,-0.18752 -0.569,-0.44172 -10e-4,-0.02863 0.0023,-0.05676 0.0072,-0.0844 0.3766,0.02342 0.7664,0.07424 1.0916,0.1258 -0.0376,0.21789 -0.2571,0.39091 -0.5298,0.40032 z M 50.5995,6.50846 49.4294,5.63716 49.231,4.80503 c 0,0 -1.0554,-0.11737 -1.9505,-0.39091 -0.699,1.62362 -1.7324,4.10898 -1.4948,6.28318 1.6092,-0.6558 4.0696,0.2382 4.0696,0.2382 L 49.4688,9.89549 50.0336,9.24208 c 0,0 -1.6763,0.1952 -1.6769,0.19421 -0.4948,-1.11224 -0.0808,-1.66005 0.9974,-1.66005 0.4498,0 0.7988,0.21789 0.7988,0.21789 l 0.2334,-0.75901 -0.2019,-0.37603 0.2851,0.02627 z"
       fill="#e2c029"
       id="path586" />
    <path
       fill-rule="evenodd"
       clip-rule="evenodd"
       d="m 10.7378,27.5053 h 5e-4 v -0.003 z"
       fill="url(#paint1_linear)"
       id="path588"
       style="fill:url(#paint1_linear)" />
    <path
       fill-rule="evenodd"
       clip-rule="evenodd"
       d="m 1.39934,14.7561 c 0,-1.3643 1.8134,-0.9332 2.8079,-0.9332 0.99487,0 0.92391,-1.2904 0.92391,-1.2904 H 3.23779 c -1.51118,0 -2.477546,0.9357 -1.83845,2.2236 z"
       fill="#d2ad15"
       id="path590" />
    <path
       fill-rule="evenodd"
       clip-rule="evenodd"
       d="M 7.27473,11.9643 C 6.83295,11.5205 6.37463,11.276 5.72282,11.276 c -1.44689,0 -3.53955,-0.0926 -3.83164,-0.8557 -0.25396,0.2675 -0.23039,0.8076 0.38798,1.4281 -1.62916,0 -1.915946,0.3722 -2.080318,0.7201 -0.425121,0.8993 0.312454,2.1876 1.200578,2.1876 -0.639098,-1.2879 0.32727,-2.2236 1.83845,-2.2236 h 1.89336 0.28333 0.30826 c 0.22176,0 0.46498,0.1167 0.66736,0.32 0.42907,0.431 0.42907,1.1325 0,1.5635 l -2.99954,3.0125 c -0.18942,0.1901 -0.32627,0.406 -0.43758,0.6359 L 7.88742,14.2639 C 8.10486,13.4712 7.89396,12.5865 7.27473,11.9643 Z"
       fill="#e2c029"
       id="path592" />
    <path
       fill-rule="evenodd"
       clip-rule="evenodd"
       d="M 10.8104,9.01433 C 10.8345,8.92386 10.8499,8.83871 10.8583,8.75802 10.4231,8.24516 9.6966,8.04339 8.71518,8.45945 7.48004,8.98273 6.35449,8.07635 6.35449,8.07635 7.20387,9.71075 8.38335,9.18054 9.40611,8.8578 9.96463,8.6818 10.4888,8.85482 10.8104,9.01433 Z"
       fill="#b98f16"
       id="path594" />
    <path
       fill-rule="evenodd"
       clip-rule="evenodd"
       d="m 16.0092,15.1617 c 1.0498,-0.6027 1.8937,-1.0421 1.8955,-1.0428 l 2e-4,-10e-5 -0.3994,1.7355 c 0,0 1.185,1.9367 1.8198,2.9877 -0.0136,0.0068 -0.0279,0.0121 -0.0415,0.0195 l -3.2804,-3.6963 v -10e-5 c 0.002,-0.0011 0.0038,-0.0023 0.0058,-0.0034 z"
       fill="#e2c029"
       id="path596" />
    <path
       fill-rule="evenodd"
       clip-rule="evenodd"
       d="m 11.5685,10.4594 c -0.3819,0.1699 -1.2358,0.691 -1.2358,1.9617 -1.15633,0 -0.1306,1.7597 -0.74725,2.2375 0.01037,-0.0032 0.01999,-0.0066 0.03036,-0.0097 1.29129,-0.4436 3.44029,-2.4519 3.60359,-3.9544 -0.5009,-0.2052 -1.0847,-0.2583 -1.6509,-0.2351 z"
       fill="#d2ad15"
       id="path598" />
    <path
       fill-rule="evenodd"
       clip-rule="evenodd"
       d="m 14.6988,15.9411 c 0.4407,-0.273 0.8884,-0.5372 1.3044,-0.776 l 10e-5,10e-5 3.2804,3.6961 c 0.182,-0.0974 0.3856,-0.1584 0.606,-0.1584 v 1.2953 h -0.002 c 0.5534,0.1226 0.923,0.5829 0.923,1.2931 h -0.9236 l 6e-4,1.1554 c -0.1221,0.1365 -0.3145,0.2237 -0.5101,0.2294 l -4.6842,-6.7317 c 0.0021,-9e-4 0.0066,-0.0017 0.0054,-0.0033 z"
       fill="#efd544"
       id="path600" />
    <path
       fill-rule="evenodd"
       clip-rule="evenodd"
       d="m 9.8742,15.8964 c 1.2781,0.8054 3.8258,0.6903 3.8283,0.6887 0.0014,-0.001 0.0027,-0.0018 0.0041,-0.0027 0.0029,0.0011 -0.7195,0.4449 -1.4665,1.1681 l -5.01744,0.8024 c 0,0 1.61977,-1.6228 2.65154,-2.6565 z"
       fill="#e2c029"
       id="path602" />
    <path
       fill-rule="evenodd"
       clip-rule="evenodd"
       d="m 4.39453,24.9689 c 0.58012,0 2.3328,-0.2323 2.3328,-1.5243 v -2.6762 l 1.33817,2.1917 0.01753,2.2198 c -2.1614,2.4904 -1.61991,5.33 -0.63392,6.474 v 0.8593 C 6.8358,32.5013 6.2331,32.4869 5.65546,32.4657 L 5.80613,31.82 5.0055,30.4249 c 0,0 0.34972,-4.4913 -0.61097,-5.456 z"
       fill="#f6e477"
       id="path604" />
    <path
       fill-rule="evenodd"
       clip-rule="evenodd"
       d="m 7.4495,32.5151 c 0.70327,0.0129 1.51057,0.0208 2.25283,0.0208 0.51927,0 1.01847,-2e-4 1.49787,-10e-4 -0.0942,-0.5023 -0.4744,-1.8851 -1.83031,-1.4486 0,0 -1.14308,-0.6168 -1.14308,-2.3125 0,-0.7536 0.39588,-1.529 1.06595,-2.202 l -1.20934,-1.392 c -2.16139,2.4905 -1.6199,5.3301 -0.63392,6.474 z"
       fill="#e2c029"
       id="path606" />
    <path
       fill-rule="evenodd"
       clip-rule="evenodd"
       d="m 14.6933,15.9444 4.6842,6.7316 c -0.0064,0 -0.0124,0.0011 -0.0197,0.0011 -0.0785,0 -1.6569,-1.1779 -1.6569,-1.1779 l -3.9988,-4.9141 c 0.3137,-0.2135 0.6503,-0.4295 0.9912,-0.6407 z"
       fill="#d2ad15"
       id="path608" />
    <path
       fill-rule="evenodd"
       clip-rule="evenodd"
       d="m 9.16016,14.7392 c 0,2.0524 4.53864,1.8482 4.54204,1.846 1.7473,-1.1884 4.1994,-2.465 4.2024,-2.4663 -2.1603,0.0727 -2.9535,-2.5254 -4.685,-3.4244 -0.1847,1.6984 -2.9074,4.0447 -4.05944,4.0447 z"
       fill="#f6e477"
       id="path610" />
    <path
       fill-rule="evenodd"
       clip-rule="evenodd"
       d="M 17.5764,12.5723 C 17.2011,11.5974 17.0635,10.0116 16.6523,8.43716 l 1.9641,-1.25439 0.4715,-0.82123 h 2.2056 l 0.4101,0.71352 C 20.852,7.15748 20.307,7.2197 20.2902,7.22131 l -0.3851,0.04896 v 3.09333 z"
       fill="#d2ad15"
       id="path612" />
    <path
       fill-rule="evenodd"
       clip-rule="evenodd"
       d="M 14.9152,5.03715 V 3.70926 l -1.3598,0.60123 c 0.0121,-0.07039 0.041,-0.44246 -0.5992,-0.79966 0.0279,0.40033 -0.553,0.69469 -1.2238,0.90055 0.6956,1.62374 1.724,4.10898 1.4875,6.28312 1.7311,0.8989 2.5247,3.4971 4.6851,3.4243 0,0 0.5517,-0.2631 0.7362,-0.5856 -2.0487,0 -0.9386,-5.69612 -3.726,-8.49605 z"
       fill="#e2c029"
       id="path614" />
    <path
       fill-rule="evenodd"
       clip-rule="evenodd"
       d="m 3.40181,20.7684 c 0.44375,0.4462 1.03448,0.6917 1.66284,0.6917 0.628,0 1.21897,-0.2455 1.66285,-0.6917 l 1.33818,2.1918 0.01752,2.2198 2.5293,2.9112 c 0.0012,-0.8108 0.0082,-7.2706 0.0082,-7.2706 0,-0.2864 0.0483,-0.5669 0.1323,-0.8384 0.2627,-0.8753 0.8821,-1.6461 1.4868,-2.2317 L 7.22234,18.5529 6.19428,19.568 c 0,0 -1.10494,1.119 -1.90743,0.3123 -0.42956,-0.4313 -0.42956,-1.1326 0,-1.5635 L 7.2859,15.3045 c 0.29789,-0.299 0.49706,-0.6593 0.60134,-1.0406 l -4.93437,3.8005 c -0.42611,0.8809 -0.27852,1.9733 0.44894,2.704 z M 12.2404,17.75 c -10e-5,2e-4 -4e-4,4e-4 -5e-4,5e-4 10e-5,-10e-5 4e-4,-3e-4 5e-4,-5e-4 z"
       fill="#efd544"
       id="path616" />
    <path
       fill-rule="evenodd"
       clip-rule="evenodd"
       d="m 10.6167,24.2056 c 4e-4,-0.2745 6e-4,-0.7383 10e-4,-1.0023 l 2e-4,10e-5 c -10e-5,0.0633 -10e-5,0.1268 -2e-4,0.1912 l 4.2028,0.9825 2.7825,5.5029 c -0.8347,0.0682 -1.5841,0.1412 -2.2337,0.2116 l 0.2678,-0.7123 -3.3922,-4.8609 z"
       fill="#f6e477"
       id="path618" />
    <path
       fill-rule="evenodd"
       clip-rule="evenodd"
       d="m 16.7827,24.8358 c 0.313,2.7484 2.1085,3.6198 2.1085,3.6198 0,0 0.3427,-0.0854 0.6979,-0.0854 0.7896,0 1.1759,1.3114 1.1759,1.3114 -0.4168,0.0189 -0.8534,0.044 -1.2902,0.0713 -0.3707,0.0198 -0.7333,0.0425 -1.08,0.0677 -0.2724,0.0202 -0.534,0.0408 -0.7905,0.0623 l -2.784,-5.5058 z"
       fill="#d2ad15"
       id="path620" />
    <path
       fill-rule="evenodd"
       clip-rule="evenodd"
       d="m 10.62,21.6803 1.8069,-1.3304 5.0392,4.1901 c 0,0 -0.262,0.3667 -0.683,0.2958 l -6.1649,-1.4411 c 7e-4,-0.6545 0.0013,-1.2568 0.0018,-1.7144 z"
       fill="#e2c029"
       id="path622" />
    <path
       fill-rule="evenodd"
       clip-rule="evenodd"
       d="m 13.7022,16.5852 1.4375,1.7666 -4.5201,3.3284 c 5e-4,-0.5252 9e-4,-0.8596 9e-4,-0.8596 0,-0.2864 0.0482,-0.5669 0.1324,-0.8385 0.2627,-0.8752 0.882,-1.646 1.4866,-2.2316 0.7235,-0.7003 1.4217,-1.1373 1.4626,-1.1653 z"
       fill="#b98f16"
       id="path624" />
    <path
       fill-rule="evenodd"
       clip-rule="evenodd"
       d="M 10.9946,5.75281 C 10.7232,5.74327 10.5048,5.57037 10.4674,5.35236 c 0.3236,-0.05143 0.7114,-0.10225 1.0862,-0.1258 0.0048,0.02776 0.0081,0.0559 0.0072,0.08453 -0.0081,0.2542 -0.262,0.45201 -0.5662,0.44172 z m 0.7377,-1.3414 C 10.8416,4.68482 9.79143,4.80231 9.79143,4.80231 L 9.59399,5.63432 8.42969,6.50574 8.55901,6.88264 8.84272,6.85637 8.64182,7.2324 8.87406,7.99141 c 0,0 0.34725,-0.21789 0.79483,-0.21789 1.07291,0 1.48491,0.54769 0.99251,1.66006 -6e-4,9.9e-4 -1.66863,-0.19422 -1.66863,-0.19422 l 0.5621,0.65341 -0.38465,1.04003 c 0,0 2.44818,-0.894 4.04948,-0.2383 0.2364,-2.17411 -0.7919,-4.65948 -1.4874,-6.28309 z"
       fill="#efd544"
       id="path626" />
    <path
       fill-rule="evenodd"
       clip-rule="evenodd"
       d="m 38.1222,23.8456 c 0,4.8778 -8.6562,6.6055 -8.6562,6.6055 0,0 -8.6555,-1.7277 -8.6555,-6.6055 V 8.10364 c 0,0 2.929,-0.55823 8.6555,-0.55823 5.7273,0 8.6562,0.55823 8.6562,0.55823 z"
       fill="#d2ad15"
       id="path628" />
    <path
       fill-rule="evenodd"
       clip-rule="evenodd"
       d="m 29.4662,30.4511 c 0,0 8.6562,-1.7276 8.6562,-6.6055 V 8.10363 c 0,0 -2.9289,-0.5581 -8.6562,-0.5581 -1.3489,0 -2.5427,0.03099 -3.5795,0.07833 7.815,0.31357 10.9383,1.37474 10.9383,1.37474 0,0 0.007,10.9807 0.007,15.0045 0,4.0239 -7.3658,6.448 -7.3658,6.448 z"
       fill="#b98f16"
       id="path630" />
    <path
       fill-rule="evenodd"
       clip-rule="evenodd"
       d="m 31.2139,17.0765 -0.6625,-0.0828 -0.205,0.2747 -1.5476,-0.9908 c 0.1556,0.7822 0.5803,2.2723 1.6692,3.54 0.7253,0.5271 1.4835,1.079 2.0855,1.5169 -0.0475,-2.559 -0.9102,-3.968 -1.1347,-4.5326 z"
       fill="#4b4b4b"
       id="path632" />
    <path
       fill-rule="evenodd"
       clip-rule="evenodd"
       d="m 28.0465,18.0612 c -0.811,-0.5814 -0.5456,-1.7316 -0.0121,-2.2727 l 2.3122,1.4798 0.2049,-0.2746 0.6626,0.0828 0.2048,-0.2747 1.7099,0.2955 c -0.3192,-0.513 -0.8509,-1.3389 -1.6587,-1.8919 l 0.205,-0.2746 c -0.4129,-0.1953 -1.3568,-0.3502 -2.448,-0.3502 h -1.6642 l 1.176,-3.3673 C 29.0517,10.3069 28.4945,9.58183 27.8881,9.51453 26.9719,9.41327 26.5929,10.4033 26.5929,10.4033 l 1.0049,1.0281 c 0.0227,0.0052 -1.2959,3.0938 -1.2959,3.0938 -0.1346,0.3235 -0.2227,0.7426 -0.2257,1.1955 -0.0055,0.8649 0.388,1.7478 1.1899,2.5301 0.6802,0.6637 3.6239,2.9826 3.6239,2.9826 l 0.237,-0.3162 1.4266,0.4172 c 0,0 -4.2806,-3.1112 -4.5071,-3.2732 z"
       fill="#ffffff"
       id="path634" />
    <path
       fill-rule="evenodd"
       clip-rule="evenodd"
       d="m 28.7989,16.2775 -0.7645,-0.489 c -0.5336,0.5411 -0.7991,1.6912 0.0119,2.2726 0.2468,0.1764 1.2933,0.9364 2.4217,1.7564 -1.0889,-1.2677 -1.5134,-2.7577 -1.6691,-3.54 z"
       fill="#636363"
       id="path636" />
    <path
       fill-rule="evenodd"
       clip-rule="evenodd"
       d="m 33.1287,17.0973 -1.7098,-0.2955 c 0.2244,0.5647 1.0871,1.9736 1.1347,4.5326 0.6826,0.4968 1.164,0.8468 1.164,0.8468 l 0.3375,-0.4517 0.8845,0.6148 c -0.0484,-0.4074 -0.1168,-0.791 -0.2008,-1.1544 -0.3835,-1.8064 -1.0179,-3.1658 -1.6101,-4.0926 z"
       fill="#000000"
       id="path638" />
    <path
       fill-rule="evenodd"
       clip-rule="evenodd"
       d="M 31.6304,27.6567 C 31.5925,27.561 31.5219,27.4696 31.3865,27.4696 h -0.4968 v -2.3612 l -0.407,0.1858 v 2.1683 H 29.728 c -0.0876,0 -0.2567,0.1249 -0.3147,0.1249 h -0.3372 c -0.136,0 -0.2068,0.091 -0.2442,0.1871 l -0.0247,0.0743 -0.0141,0.094 C 28.79,27.9729 28.79,27.9931 28.79,27.9931 h 0.8138 l 0.1672,-0.1247 h 0.3394 c -0.2138,0.1319 -0.4426,0.2736 -0.5294,0.3266 -0.1162,0.0715 -0.1304,0.1871 -0.1135,0.2887 l 0.018,0.0788 0.035,0.085 c 0.013,0.0278 0.0225,0.0451 0.0225,0.0451 l 1.3788,-0.8177 h 0.7504 c 0,0 -5e-4,-0.0199 -0.0033,-0.0502 l -0.0233,-0.0973 z"
       fill="#4b4b4b"
       id="path640" />
    <path
       fill-rule="evenodd"
       clip-rule="evenodd"
       d="m 24.4803,18.8967 -0.0765,0.103 0.0455,0.6706 0.1274,-0.1727 0.0917,0.0112 0.526,0.9169 c 0,0 0.0068,-0.0043 0.0179,-0.0111 l 0.0653,-0.0537 0.0572,-0.0511 c 0.076,-0.0828 0.14,-0.2031 0.0635,-0.3376 -0.0206,-0.0358 -0.0544,-0.0953 -0.0961,-0.1682 l 1.5552,0.7416 0.6358,-0.1509 -2.5485,-1.2124 c -0.0564,-0.0971 -0.1338,-0.2449 -0.1338,-0.2449 -0.0454,-0.0706 -0.2143,-0.097 -0.3306,-0.0407 z"
       fill="#636363"
       id="path642" />
    <path
       fill-rule="evenodd"
       clip-rule="evenodd"
       d="m 27.5981,11.4314 -1.005,-1.028 -4.3294,1.028 z"
       fill="#000000"
       id="path644" />
    <path
       fill-rule="evenodd"
       clip-rule="evenodd"
       d="m 24.3211,19.1118 -0.8283,0.1067 c 0,0 -0.2473,0.3184 -0.3735,0.4887 -0.0812,0.1098 -0.052,0.222 0.0012,0.3101 l 0.0501,0.0652 0.0592,0.0673 c 0.0216,0.0201 0.0375,0.0324 0.0375,0.0324 l 0.4221,-0.57 0.3406,-0.0485 c -0.163,0.2208 -0.3369,0.4554 -0.3975,0.5379 -0.0812,0.1098 -0.0517,0.2222 0.002,0.3102 l 0.0538,0.0696 0.0549,0.0627 c 0.0217,0.0206 0.0376,0.0328 0.0376,0.0328 l 0.6687,-0.9066 -0.0455,-0.6706 z"
       fill="#4b4b4b"
       id="path646" />
    <path
       fill-rule="evenodd"
       clip-rule="evenodd"
       d="m 29.9043,20.4496 c -0.1294,-0.1035 -0.2659,-0.213 -0.4067,-0.3263 v 1.1883 l -0.0602,0.0075 -1.9436,-0.9244 -0.6359,0.1509 2.4238,1.1558 0.2486,0.3219 0.3987,-0.0575 0.1505,-0.3793 -0.1752,-0.2263 z"
       fill="#4b4b4b"
       id="path648" />
    <path
       fill-rule="evenodd"
       clip-rule="evenodd"
       d="m 28.1662,10.3997 c 0,0 -0.4634,0.2082 -0.5768,0.2082 -0.1129,0 -0.2188,-0.0934 -0.2188,-0.2082 0,-0.1151 0.1059,-0.2084 0.2188,-0.2084 0.1134,0 0.5768,0.2084 0.5768,0.2084 z"
       fill="#000000"
       id="path650" />
    <path
       fill-rule="evenodd"
       clip-rule="evenodd"
       d="m 23.4209,12.9807 c -0.2906,-0.5169 0.0496,-0.8328 0.2885,-1.0753 0.1728,-0.1764 0.3226,-0.3277 0.3258,-0.5503 0.0043,-0.2923 -0.1611,-0.3457 -0.5677,-0.4049 -0.2416,-0.0354 -0.4914,-0.0718 -0.6336,-0.2558 -0.0804,-0.1053 -0.1132,-0.228 -0.0943,-0.3545 0.0422,-0.2826 0.3307,-0.49379 0.3631,-0.51684 0.0816,-0.05739 0.1928,-0.03681 0.2488,0.04511 0.0567,0.08205 0.0368,0.19493 -0.0442,0.25233 -0.0639,0.0457 -0.1996,0.1722 -0.2147,0.2739 -0.0027,0.0203 -0.0021,0.0438 0.0235,0.077 0.0528,0.0691 0.2383,0.096 0.4019,0.1201 0.3519,0.0513 0.8836,0.1289 0.8742,0.7688 -0.0052,0.3694 -0.2308,0.5989 -0.4297,0.8013 -0.2267,0.23 -0.4114,0.3982 -0.2889,0.723 0.0803,0.2129 0.4439,0.3259 0.374,0.4519 -0.0659,0.1187 -0.4843,-0.1025 -0.6267,-0.3558 z"
       fill="#000000"
       id="path652" />
    <path
       fill-rule="evenodd"
       clip-rule="evenodd"
       d="m 30.8899,21.2334 c 0,0 -0.1577,-0.1242 -0.4069,-0.3221 v 0.7491 h 0.0048 l -0.2017,0.3539 0.1969,0.3466 v 2.9333 l 0.4069,-0.1858 V 22.368 l 0.2017,-0.3537 -0.2017,-0.3539 z"
       fill="#000000"
       id="path654" />
    <path
       fill-rule="evenodd"
       clip-rule="evenodd"
       d="m 33.9227,21.9065 -0.2049,0.2747 z"
       fill="#636363"
       id="path656" />
    <path
       fill-rule="evenodd"
       clip-rule="evenodd"
       d="m 33.8483,16.4399 c -0.6202,-0.6446 -1.3556,-1.1634 -2.173,-1.5091 l -0.2051,0.2747 c 0.8078,0.5529 1.3394,1.3789 1.6587,1.8918 0.5922,0.9268 1.2266,2.2862 1.6101,4.0927 0.0838,0.3633 0.1524,0.7469 0.2008,1.1543 l 0.8547,0.6018 c 0.4358,-2.4825 -0.3921,-4.8911 -1.9462,-6.5062 z"
       fill="#636363"
       id="path658" />
    <path
       fill-rule="evenodd"
       clip-rule="evenodd"
       d="m 55.981,18.0671 -4.9342,-3.8005 c 0.1041,0.3813 0.3034,0.7416 0.6013,1.0406 l 2.9989,3.0123 c 0.4296,0.431 0.4296,1.1322 0,1.5635 -0.8023,0.8067 -1.9074,-0.3122 -1.9074,-0.3122 l -1.028,-1.0152 -5.0175,-0.8023 c 0.6048,0.5855 1.2241,1.3563 1.4868,2.2317 0.0841,0.2714 0.1323,0.552 0.1323,0.8383 0,0 0.007,6.4597 0.0084,7.2706 l 2.5292,-2.9113 0.0174,-2.2197 1.3382,-2.1918 c 0.444,0.4462 1.0348,0.6917 1.663,0.6917 0.6282,0 1.2191,-0.2455 1.6627,-0.6917 0.7274,-0.7306 0.875,-1.8231 0.4489,-2.704 z m -9.2871,-0.3138 c -2e-4,-2e-4 -4e-4,-4e-4 -5e-4,-5e-4 1e-4,10e-5 3e-4,3e-4 5e-4,5e-4 z"
       fill="#e2c029"
       id="path660" />
  </g>
  <defs
     id="defs679">
    <linearGradient
       id="paint0_linear"
       x1="48.5312"
       y1="27.5089"
       x2="48.530201"
       y2="27.5089"
       gradientUnits="userSpaceOnUse">
      <stop
         stop-color="#B88E15"
         id="stop666" />
      <stop
         offset="1"
         stop-color="#D1AC14"
         id="stop668" />
    </linearGradient>
    <linearGradient
       id="paint1_linear"
       x1="10.7377"
       y1="27.506001"
       x2="10.7386"
       y2="27.506001"
       gradientUnits="userSpaceOnUse">
      <stop
         stop-color="#B88E15"
         id="stop671" />
      <stop
         offset="1"
         stop-color="#D1AC14"
         id="stop673" />
    </linearGradient>
    <clipPath
       id="clip0">
      <rect
         width="147"
         height="39.748199"
         fill="#ffffff"
         id="rect676"
         x="0"
         y="0" />
    </clipPath>
  </defs>
</svg>
