<svg width="734" height="274" viewBox="0 0 734 274" fill="none" xmlns="http://www.w3.org/2000/svg">
<path d="M299.867 -6.81555L299.613 -7.24644L299.613 -7.24615L299.867 -6.81555ZM306.496 -8.82254L306.445 -9.31995L306.441 -9.31949L306.496 -8.82254ZM317.4 -4.7322L317.895 -4.80053L317.895 -4.80219L317.4 -4.7322ZM307.934 1.57691L307.88 1.07983L307.88 1.07984L307.934 1.57691ZM297.03 -2.51487L297.526 -2.58285L297.525 -2.58368L297.03 -2.51487ZM343.721 -12.3664L343.917 -12.8262C343.784 -12.8831 343.633 -12.8794 343.503 -12.8161L343.721 -12.3664ZM355.696 -7.25596L355.915 -6.8063C356.091 -6.89193 356.201 -7.07249 356.196 -7.26827C356.191 -7.46404 356.073 -7.63897 355.893 -7.71583L355.696 -7.25596ZM344.04 -1.58799L343.843 -1.12817C343.976 -1.07125 344.128 -1.07495 344.258 -1.13833L344.04 -1.58799ZM332.061 -6.70414L331.843 -7.15392C331.666 -7.06837 331.556 -6.88783 331.561 -6.69204C331.566 -6.49625 331.684 -6.32125 331.865 -6.24433L332.061 -6.70414ZM417.372 -12.3664L417.591 -12.8161C417.46 -12.8794 417.309 -12.8831 417.176 -12.8262L417.372 -12.3664ZM429.027 -6.70414L429.224 -6.24437C429.404 -6.32132 429.522 -6.49629 429.527 -6.69205C429.532 -6.88781 429.422 -7.06832 429.246 -7.15388L429.027 -6.70414ZM417.055 -1.58799L416.837 -1.13821C416.967 -1.07493 417.118 -1.07128 417.252 -1.12821L417.055 -1.58799ZM405.392 -7.25164L405.196 -7.71148C405.015 -7.63458 404.897 -7.45958 404.892 -7.26377C404.887 -7.06797 404.997 -6.88742 405.173 -6.80186L405.392 -7.25164ZM443.694 -4.72788L443.198 -4.79649L443.198 -4.79578L443.694 -4.72788ZM454.603 -8.82254L454.658 -9.31951L454.654 -9.31995L454.603 -8.82254ZM461.224 -6.81555L461.478 -7.24598L461.477 -7.24665L461.224 -6.81555ZM464.06 -2.51487L463.565 -2.58419L463.565 -2.58356L464.06 -2.51487ZM453.161 1.57691L453.216 1.0799L453.215 1.07982L453.161 1.57691ZM468.823 12.3444L468.78 12.8426C469.045 12.8654 469.281 12.6772 469.318 12.4142L468.823 12.3444ZM473.152 -18.3712L473.647 -18.3014C473.666 -18.4381 473.628 -18.5766 473.542 -18.6842C473.455 -18.7918 473.328 -18.8589 473.191 -18.8697L473.152 -18.3712ZM287.641 -18.3309L287.603 -18.8294C287.465 -18.8188 287.337 -18.7515 287.251 -18.6434C287.164 -18.5353 287.126 -18.3961 287.146 -18.2591L287.641 -18.3309ZM292.159 12.8012L291.664 12.873C291.702 13.1366 291.94 13.3239 292.205 13.299L292.159 12.8012ZM300.12 -6.38466C301.772 -7.35705 304.057 -8.04874 306.551 -8.32559L306.441 -9.31949C303.847 -9.03156 301.417 -8.30842 299.613 -7.24644L300.12 -6.38466ZM306.547 -8.32514C307.291 -8.40142 308.035 -8.44356 308.768 -8.44356V-9.44356C307.997 -9.44356 307.219 -9.39926 306.445 -9.31993L306.547 -8.32514ZM308.768 -8.44356C311.12 -8.44356 313.109 -8.02853 314.534 -7.33296C315.965 -6.63474 316.759 -5.69442 316.905 -4.66222L317.895 -4.80219C317.685 -6.28845 316.567 -7.4538 314.973 -8.23166C313.374 -9.01215 311.224 -9.44356 308.768 -9.44356V-8.44356ZM316.905 -4.66388C317.071 -3.45592 316.341 -2.19669 314.719 -1.11635C313.111 -0.044934 310.725 0.771138 307.88 1.07983L307.988 2.07399C310.946 1.75306 313.497 0.899288 315.274 -0.284099C317.037 -1.45855 318.138 -3.03907 317.895 -4.80053L316.905 -4.66388ZM307.88 1.07984C307.129 1.16151 306.388 1.20226 305.657 1.20226V2.20226C306.425 2.20226 307.202 2.15943 307.988 2.07398L307.88 1.07984ZM305.657 1.20226C303.304 1.20226 301.314 0.786854 299.889 0.0905043C298.459 -0.608473 297.667 -1.54958 297.526 -2.58285L296.535 -2.44688C296.739 -0.957374 297.856 0.210082 299.45 0.98897C301.05 1.77049 303.2 2.20226 305.657 2.20226V1.20226ZM297.525 -2.58368C297.349 -3.8564 298.146 -5.21913 300.121 -6.38495L299.613 -7.24615C297.492 -5.99437 296.276 -4.30843 296.535 -2.44605L297.525 -2.58368ZM343.525 -11.9065L355.5 -6.79608L355.893 -7.71583L343.917 -12.8262L343.525 -11.9065ZM355.478 -7.70562L343.821 -2.03765L344.258 -1.13833L355.915 -6.8063L355.478 -7.70562ZM344.236 -2.0478L332.257 -7.16396L331.865 -6.24433L343.843 -1.12817L344.236 -2.0478ZM332.279 -6.25437L343.939 -11.9166L343.503 -12.8161L331.843 -7.15392L332.279 -6.25437ZM380.546 -12.8513C383.635 -12.8513 386.311 -12.2609 388.196 -11.307C390.099 -10.3442 391.08 -9.08095 391.08 -7.76689H392.08C392.08 -9.63692 390.69 -11.1658 388.648 -12.1993C386.588 -13.2416 383.747 -13.8513 380.546 -13.8513V-12.8513ZM391.08 -7.76689C391.08 -6.45279 390.099 -5.18915 388.196 -4.22604C386.311 -3.27182 383.634 -2.68105 380.546 -2.68105V-1.68105C383.747 -1.68105 386.588 -2.29115 388.648 -3.33384C390.69 -4.36762 392.08 -5.89691 392.08 -7.76689H391.08ZM380.546 -2.68105C377.456 -2.68105 374.779 -3.27183 372.894 -4.22606C370.991 -5.18917 370.009 -6.45281 370.009 -7.76689H369.009C369.009 -5.89689 370.399 -4.3676 372.442 -3.33382C374.502 -2.29114 377.344 -1.68105 380.546 -1.68105V-2.68105ZM370.009 -7.76689C370.009 -9.08093 370.991 -10.3442 372.893 -11.307C374.779 -12.2609 377.456 -12.8513 380.546 -12.8513V-13.8513C377.344 -13.8513 374.502 -13.2416 372.442 -12.1993C370.399 -11.1659 369.009 -9.63694 369.009 -7.76689H370.009ZM417.154 -11.9166L428.809 -6.25441L429.246 -7.15388L417.591 -12.8161L417.154 -11.9166ZM428.831 -7.16392L416.859 -2.04776L417.252 -1.12821L429.224 -6.24437L428.831 -7.16392ZM417.274 -2.03776L405.61 -7.70141L405.173 -6.80186L416.837 -1.13821L417.274 -2.03776ZM405.588 -6.79179L417.569 -11.9065L417.176 -12.8262L405.196 -7.71148L405.588 -6.79179ZM444.189 -4.65927C444.332 -5.69287 445.125 -6.63381 446.555 -7.33247C447.981 -8.02851 449.971 -8.44356 452.324 -8.44356V-9.44356C449.867 -9.44356 447.716 -9.01217 446.117 -8.23106C444.522 -7.45257 443.405 -6.28568 443.198 -4.79649L444.189 -4.65927ZM452.324 -8.44356C453.054 -8.44356 453.804 -8.40141 454.552 -8.32512L454.654 -9.31995C453.876 -9.39927 453.092 -9.44356 452.324 -9.44356V-8.44356ZM454.548 -8.32559C457.041 -8.04881 459.315 -7.35728 460.97 -6.38446L461.477 -7.24665C459.67 -8.30819 457.252 -9.03148 454.658 -9.31949L454.548 -8.32559ZM460.969 -6.38513C462.942 -5.21868 463.743 -3.85597 463.565 -2.58419L464.555 -2.44554C464.816 -4.30886 463.595 -5.99481 461.478 -7.24598L460.969 -6.38513ZM463.565 -2.58356C463.422 -1.5507 462.631 -0.609488 461.204 0.0896176C459.782 0.786184 457.795 1.20226 455.443 1.20226V2.20226C457.9 2.20226 460.047 1.76971 461.644 0.987695C463.235 0.208215 464.349 -0.959133 464.555 -2.44618L463.565 -2.58356ZM455.443 1.20226C454.71 1.20226 453.958 1.16147 453.216 1.0799L453.106 2.07392C453.885 2.15948 454.674 2.20226 455.443 2.20226V1.20226ZM453.215 1.07982C450.366 0.771119 447.981 -0.0449674 446.374 -1.11579C444.753 -2.19548 444.024 -3.4538 444.189 -4.65999L443.198 -4.79578C442.957 -3.03687 444.057 -1.4576 445.819 -0.283574C447.595 0.899322 450.146 1.75308 453.107 2.074L453.215 1.07982ZM383.027 9.55518C421.058 9.55518 449.72 11.2042 468.78 12.8426L468.866 11.8463C449.777 10.2055 421.087 8.55518 383.027 8.55518V9.55518ZM469.318 12.4142L473.647 -18.3014L472.657 -18.441L468.328 12.2747L469.318 12.4142ZM473.191 -18.8697C454.558 -20.3295 419.446 -23.9773 381.281 -23.9773V-22.9773C419.396 -22.9773 454.452 -19.3348 473.113 -17.8728L473.191 -18.8697ZM381.281 -23.9773C342.76 -23.9773 306.579 -20.2835 287.603 -18.8294L287.679 -17.8323C306.685 -19.2886 342.809 -22.9773 381.281 -22.9773V-23.9773ZM287.146 -18.2591L291.664 12.873L292.653 12.7294L288.136 -18.4027L287.146 -18.2591ZM292.205 13.299C311.089 11.5254 341.449 9.55518 383.027 9.55518V8.55518C341.418 8.55518 311.026 10.5269 292.112 12.3034L292.205 13.299Z" fill="#CBCBCB" fill-opacity="0.2"/>
<path d="M417.372 -12.3658L417.591 -12.8156C417.461 -12.8789 417.309 -12.8826 417.176 -12.8257L417.372 -12.3658ZM429.027 -6.70364L429.224 -6.24385C429.404 -6.32078 429.523 -6.49576 429.527 -6.69152C429.532 -6.88729 429.422 -7.06781 429.246 -7.15338L429.027 -6.70364ZM417.055 -1.58893L416.837 -1.13913C416.967 -1.07588 417.119 -1.07223 417.252 -1.12913L417.055 -1.58893ZM405.392 -7.25113L405.196 -7.71098C405.016 -7.63407 404.897 -7.45906 404.892 -7.26325C404.887 -7.06743 404.997 -6.88688 405.174 -6.80134L405.392 -7.25113ZM443.693 -4.72738L443.198 -4.79599L443.198 -4.7953L443.693 -4.72738ZM454.602 -8.82203L454.657 -9.31902L454.654 -9.31936L454.602 -8.82203ZM461.223 -6.81505L461.477 -7.24561L461.476 -7.24614L461.223 -6.81505ZM464.06 -2.51436L463.564 -2.58318L463.564 -2.58305L464.06 -2.51436ZM453.16 1.57741L453.106 2.07449L453.107 2.07452L453.16 1.57741ZM371.652 -4.37605L371.934 -4.78919C371.824 -4.86427 371.688 -4.89226 371.557 -4.86696C371.427 -4.84166 371.311 -4.76516 371.237 -4.65445L371.652 -4.37605ZM362.54 9.219L362.124 8.94061C362.021 9.09517 362.011 9.29448 362.1 9.45794C362.189 9.62139 362.362 9.72195 362.548 9.71894L362.54 9.219ZM468.821 12.344L468.778 12.8422C469.043 12.8649 469.279 12.6768 469.316 12.4138L468.821 12.344ZM473.15 -18.3702L473.645 -18.3004C473.664 -18.4371 473.626 -18.5756 473.54 -18.6832C473.453 -18.7908 473.326 -18.8579 473.189 -18.8687L473.15 -18.3702ZM384.442 -23.4662L384.445 -23.9662C384.277 -23.967 384.12 -23.8839 384.027 -23.7447L384.442 -23.4662ZM377.529 -13.1561L377.113 -13.4345C377.004 -13.2714 377 -13.0593 377.104 -12.8924C377.207 -12.7256 377.399 -12.6348 377.594 -12.6603L377.529 -13.1561ZM417.154 -11.9161L428.809 -6.25391L429.246 -7.15338L417.591 -12.8156L417.154 -11.9161ZM428.831 -7.16344L416.859 -2.04873L417.252 -1.12913L429.224 -6.24385L428.831 -7.16344ZM417.274 -2.03873L405.61 -7.70093L405.174 -6.80134L416.837 -1.13913L417.274 -2.03873ZM405.588 -6.79129L417.569 -11.906L417.176 -12.8257L405.196 -7.71098L405.588 -6.79129ZM444.189 -4.65877C444.332 -5.69236 445.124 -6.63331 446.555 -7.33196C447.98 -8.028 449.97 -8.44306 452.323 -8.44306V-9.44306C449.866 -9.44306 447.716 -9.01166 446.116 -8.23056C444.522 -7.45207 443.404 -6.28517 443.198 -4.79599L444.189 -4.65877ZM452.323 -8.44306C453.054 -8.44306 453.804 -8.40228 454.551 -8.32471L454.654 -9.31936C453.876 -9.40027 453.091 -9.44306 452.323 -9.44306V-8.44306ZM454.547 -8.32506C457.04 -8.04974 459.314 -7.35685 460.97 -6.38395L461.476 -7.24614C459.67 -8.3076 457.252 -9.03243 454.657 -9.31901L454.547 -8.32506ZM460.969 -6.38449C462.941 -5.21994 463.741 -3.85571 463.564 -2.58318L464.555 -2.44554C464.814 -4.30812 463.595 -5.99544 461.477 -7.2456L460.969 -6.38449ZM463.564 -2.58305C463.421 -1.5502 462.631 -0.608983 461.203 0.0901224C459.781 0.786689 457.795 1.20276 455.443 1.20276V2.20276C457.899 2.20276 460.046 1.77022 461.643 0.9882C463.235 0.20872 464.349 -0.958628 464.555 -2.44567L463.564 -2.58305ZM455.443 1.20276C454.711 1.20276 453.958 1.1606 453.214 1.0803L453.107 2.07452C453.884 2.15847 454.673 2.20276 455.443 2.20276V1.20276ZM453.214 1.08034C450.366 0.770927 447.98 -0.0455148 446.373 -1.11637C444.752 -2.19613 444.023 -3.45409 444.189 -4.65945L443.198 -4.7953C442.957 -3.03702 444.057 -1.45811 445.819 -0.28415C447.594 0.898717 450.145 1.75284 453.106 2.07449L453.214 1.08034ZM380.546 -2.68177C376.877 -2.68177 373.802 -3.51613 371.934 -4.78919L371.371 -3.96291C373.46 -2.53886 376.756 -1.68177 380.546 -1.68177V-2.68177ZM371.237 -4.65445L362.124 8.94061L362.955 9.4974L372.068 -4.09766L371.237 -4.65445ZM362.548 9.71894C369.047 9.6138 375.87 9.55476 383.026 9.55476V8.55476C375.865 8.55476 369.036 8.61385 362.531 8.71907L362.548 9.71894ZM383.026 9.55476C421.058 9.55476 449.72 11.2052 468.778 12.8422L468.864 11.8459C449.777 10.2065 421.087 8.55476 383.026 8.55476V9.55476ZM469.316 12.4138L473.645 -18.3004L472.655 -18.44L468.326 12.2742L469.316 12.4138ZM473.189 -18.8687C455.07 -20.2867 421.375 -23.7773 384.445 -23.9662L384.44 -22.9662C421.322 -22.7776 454.964 -19.292 473.111 -17.8717L473.189 -18.8687ZM384.027 -23.7447L377.113 -13.4345L377.944 -12.8776L384.857 -23.1877L384.027 -23.7447ZM377.594 -12.6603C378.527 -12.7829 379.511 -12.852 380.546 -12.852V-13.852C379.467 -13.852 378.439 -13.7799 377.464 -13.6518L377.594 -12.6603ZM380.546 -12.852C383.634 -12.852 386.311 -12.2616 388.196 -11.3077C390.098 -10.345 391.08 -9.08167 391.08 -7.76761H392.08C392.08 -9.63764 390.689 -11.1666 388.647 -12.2C386.587 -13.2423 383.747 -13.852 380.546 -13.852V-12.852ZM391.08 -7.76761C391.08 -6.4535 390.098 -5.18987 388.195 -4.22676C386.31 -3.27254 383.634 -2.68177 380.546 -2.68177V-1.68177C383.747 -1.68177 386.587 -2.29187 388.647 -3.33456C390.689 -4.36834 392.08 -5.89763 392.08 -7.76761H391.08Z" fill="#CBCBCB" fill-opacity="0.2"/>
<path fill-rule="evenodd" clip-rule="evenodd" d="M630.34 253.878H630.348L630.34 253.843V253.878Z" stroke="#CBCBCB" stroke-opacity="0.2" stroke-linecap="round" stroke-linejoin="round"/>
<path fill-rule="evenodd" clip-rule="evenodd" d="M630.34 253.878H630.348L630.34 253.843V253.878Z" stroke="#CBCBCB" stroke-opacity="0.2" stroke-linecap="round" stroke-linejoin="round"/>
<path d="M750.497 106.449C750.497 90.673 726.527 95.6573 713.381 95.6573C700.23 95.6573 701.168 80.7373 701.168 80.7373H726.195C746.171 80.7373 758.945 91.5558 750.497 106.449" stroke="#CBCBCB" stroke-opacity="0.2" stroke-linecap="round" stroke-linejoin="round"/>
<path d="M672.833 74.1678C678.672 69.0359 684.731 66.2083 693.347 66.2083C712.473 66.2083 740.134 65.1378 743.995 56.3142C747.352 59.4068 747.041 65.6523 738.867 72.8278C760.402 72.8278 764.193 77.1314 766.366 81.1542C771.985 91.5527 762.236 106.448 750.496 106.448C758.944 91.557 746.17 80.7371 726.194 80.7371H701.167H697.421H693.347C690.415 80.7371 687.2 82.0871 684.525 84.4374C678.854 89.4217 678.854 97.5331 684.525 102.516L724.175 137.349C726.679 139.547 728.488 142.044 729.959 144.702L664.734 100.758C661.86 91.5914 664.647 81.362 672.833 74.1678" stroke="#CBCBCB" stroke-opacity="0.2" stroke-linecap="round" stroke-linejoin="round"/>
<path d="M626.093 40.0574C625.775 39.0112 625.571 38.0267 625.46 37.0937C631.213 31.1636 640.816 28.8305 653.789 33.6414C670.116 39.6919 684.994 29.2117 684.994 29.2117C673.766 48.11 658.175 41.9792 644.656 38.2474C637.273 36.2124 630.344 38.213 626.093 40.0574" stroke="#CBCBCB" stroke-opacity="0.2" stroke-linecap="round" stroke-linejoin="round"/>
<path d="M557.374 111.139C543.497 104.169 532.342 99.0891 532.319 99.0805L532.316 99.0791L537.596 119.147C537.596 119.147 521.931 141.54 513.541 153.693C513.72 153.772 513.909 153.834 514.089 153.918C514.089 153.918 557.452 111.18 557.451 111.179V111.177C557.425 111.164 557.4 111.152 557.374 111.139" stroke="#CBCBCB" stroke-opacity="0.2" stroke-linecap="round" stroke-linejoin="round"/>
<path d="M632.404 79.4494C632.404 64.7558 621.116 58.7311 616.067 56.7663C608.583 56.4969 600.866 57.1117 594.245 59.4849C596.406 76.8584 624.812 100.08 641.881 105.209C642.018 105.245 642.145 105.284 642.284 105.321C634.131 99.7966 647.688 79.4494 632.404 79.4494" stroke="#CBCBCB" stroke-opacity="0.2" stroke-linecap="round" stroke-linejoin="round"/>
<path d="M574.694 120.15V120.15C568.869 116.994 562.951 113.939 557.452 111.177L557.451 111.178L514.089 153.916C511.683 152.79 508.991 152.085 506.078 152.085V167.062H506.104C498.79 168.48 493.904 173.802 493.904 182.014H506.112L506.104 195.373C507.719 196.952 510.262 197.96 512.847 198.026L574.766 120.188C574.738 120.178 574.678 120.168 574.694 120.15" stroke="#CBCBCB" stroke-opacity="0.2" stroke-linecap="round" stroke-linejoin="round"/>
<path d="M638.473 119.634C621.579 128.946 587.901 127.616 587.868 127.597C587.85 127.586 587.833 127.576 587.815 127.566C587.775 127.579 597.324 132.711 607.2 141.073L673.523 150.351C673.523 150.351 652.112 131.586 638.473 119.634" stroke="#CBCBCB" stroke-opacity="0.2" stroke-linecap="round" stroke-linejoin="round"/>
<path d="M710.9 224.537C703.232 224.537 680.064 221.85 680.064 206.911V175.966L662.375 201.309L662.144 226.976C690.714 255.773 683.556 288.606 670.523 301.834V311.77C678.63 311.632 686.597 311.466 694.232 311.221L692.241 303.754L702.824 287.623C702.824 287.623 698.201 235.69 710.9 224.537" stroke="#CBCBCB" stroke-opacity="0.2" stroke-linecap="round" stroke-linejoin="round"/>
<path d="M574.765 120.188L512.847 198.025C512.932 198.025 513.013 198.037 513.108 198.037C514.145 198.037 535.01 184.417 535.01 184.417L587.867 127.596C583.721 125.128 579.272 122.63 574.765 120.188" stroke="#CBCBCB" stroke-opacity="0.2" stroke-linecap="round" stroke-linejoin="round"/>
<path d="M594.246 59.4841C571.359 69.8784 560.872 99.9205 532.316 99.0793C532.357 99.0951 564.77 113.855 587.866 127.595C587.91 127.622 647.906 129.983 647.906 106.252C632.677 106.252 596.686 79.1219 594.246 59.4841" stroke="#CBCBCB" stroke-opacity="0.2" stroke-linecap="round" stroke-linejoin="round"/>
<path fill-rule="evenodd" clip-rule="evenodd" d="M536.658 81.1965C541.618 69.9237 543.437 51.5872 548.872 33.3825L522.91 18.8781L516.677 9.38232H487.525L482.103 17.6327C493.359 18.5857 500.563 19.3051 500.785 19.3237L505.876 19.8898V55.6572L536.658 81.1965Z" stroke="#CBCBCB" stroke-opacity="0.2" stroke-linecap="round" stroke-linejoin="round"/>
<path d="M571.837 -5.93119V-21.2854L589.811 -14.3335C589.651 -15.1475 589.271 -19.4496 597.732 -23.5798C597.363 -18.9509 605.042 -15.5473 613.909 -13.1669C604.714 5.60814 591.121 34.3447 594.246 59.4842C571.364 69.8784 560.874 99.9205 532.316 99.0793C532.316 99.0793 525.023 96.0368 522.584 92.3079C549.666 92.3079 534.991 26.444 571.837 -5.93119" stroke="#CBCBCB" stroke-opacity="0.2" stroke-linecap="round" stroke-linejoin="round"/>
<path fill-rule="evenodd" clip-rule="evenodd" d="M646.152 243.08C654.962 250.846 660.249 259.845 660.249 268.535C660.249 288.14 645.139 295.272 645.139 295.272C627.216 290.225 622.19 306.216 620.945 312.023C627.283 312.031 633.881 312.034 640.745 312.034C650.555 312.034 661.226 311.942 670.522 311.793V301.835C683.557 288.609 690.713 255.773 662.145 226.978L646.152 243.08Z" stroke="#CBCBCB" stroke-opacity="0.2" stroke-linecap="round" stroke-linejoin="round"/>
<path fill-rule="evenodd" clip-rule="evenodd" d="M628.651 215.711C628.646 212.537 628.643 207.174 628.638 204.122L628.635 204.123C628.637 204.855 628.637 205.589 628.638 206.334L573.083 217.694L536.303 281.324C547.336 282.112 557.242 282.956 565.829 283.77L562.289 275.534L607.129 219.328L628.651 215.711Z" stroke="#CBCBCB" stroke-opacity="0.2" stroke-linecap="round" stroke-linejoin="round"/>
<path fill-rule="evenodd" clip-rule="evenodd" d="M547.147 222.998C543.009 254.778 519.275 264.854 519.275 264.854C519.275 264.854 514.745 263.866 510.051 263.866C499.612 263.866 494.507 279.03 494.507 279.03C500.015 279.248 505.787 279.539 511.561 279.854C516.461 280.083 521.254 280.345 525.837 280.636C529.437 280.87 532.895 281.108 536.287 281.357L573.087 217.695L547.147 222.998Z" stroke="#CBCBCB" stroke-opacity="0.2" stroke-linecap="round" stroke-linejoin="round"/>
<path d="M628.614 186.511L604.73 171.128L538.119 219.577C538.119 219.577 541.582 223.818 547.147 222.998L628.639 206.334C628.629 198.767 628.621 191.802 628.614 186.511" stroke="#CBCBCB" stroke-opacity="0.2" stroke-linecap="round" stroke-linejoin="round"/>
<path fill-rule="evenodd" clip-rule="evenodd" d="M587.866 127.598L568.864 148.025L628.613 186.511C628.606 180.438 628.602 176.571 628.602 176.571C628.602 173.259 627.964 170.016 626.851 166.876C623.378 156.756 615.193 147.843 607.2 141.072C597.636 132.975 588.407 127.922 587.867 127.598H587.866Z" stroke="#CBCBCB" stroke-opacity="0.2" stroke-linecap="round" stroke-linejoin="round"/>
<path d="M623.659 2.34445L623.674 2.84423L623.674 2.84422L623.659 2.34445ZM616.175 -2.76312L616.675 -2.78114L616.675 -2.78281L616.175 -2.76312ZM616.27 -3.73906L616.297 -4.23832C616.049 -4.2519 615.828 -4.08072 615.78 -3.83668L616.27 -3.73906ZM630.628 -2.28446L631.118 -2.18821C631.145 -2.32304 631.115 -2.46281 631.035 -2.57469C630.955 -2.68658 630.833 -2.76071 630.697 -2.77968L630.628 -2.28446ZM657.564 11.0499L658.029 11.2325C658.116 11.0121 658.036 10.7613 657.838 10.6316L657.564 11.0499ZM642.174 0.975219L641.691 1.10611C641.723 1.22424 641.797 1.32652 641.9 1.39356L642.174 0.975219ZM639.564 -8.64662L640.046 -8.77752C639.992 -8.97804 639.819 -9.12404 639.612 -9.14425L639.564 -8.64662ZM613.908 -13.1666L614.038 -13.6495C613.807 -13.7116 613.564 -13.6013 613.459 -13.3865L613.908 -13.1666ZM594.247 59.4844L593.751 59.5461C593.77 59.6968 593.856 59.8308 593.985 59.9103C594.115 59.9898 594.273 60.0063 594.416 59.9552L594.247 59.4844ZM647.775 62.2389L647.623 62.7152C647.809 62.7746 648.013 62.7202 648.144 62.576C648.276 62.4318 648.312 62.2241 648.236 62.0442L647.775 62.2389ZM642.692 50.2137L642.336 49.8632C642.194 50.0072 642.153 50.2223 642.232 50.4084L642.692 50.2137ZM650.121 42.6584L650.477 43.009C650.625 42.8587 650.663 42.6318 650.571 42.4419C650.48 42.2519 650.279 42.1395 650.07 42.161L650.121 42.6584ZM628.064 44.9041L627.618 45.1298C627.629 45.1521 627.642 45.1735 627.656 45.1939L628.064 44.9041ZM651.69 28.2285L651.449 28.6668C651.578 28.7376 651.732 28.748 651.869 28.6954C652.006 28.6427 652.113 28.5324 652.162 28.3936L651.69 28.2285ZM654.76 19.4522L655.232 19.6173C655.281 19.4758 655.265 19.3195 655.187 19.1916L654.76 19.4522ZM652.104 15.1042L652.145 14.6058C651.957 14.5906 651.777 14.6819 651.678 14.8421C651.58 15.0023 651.58 15.2043 651.678 15.3648L652.104 15.1042ZM655.854 15.408L655.814 15.9064C656.034 15.9242 656.239 15.7959 656.32 15.5906L655.854 15.408ZM623.644 1.84467C621.729 1.90202 619.99 1.38424 618.731 0.52501C617.471 -0.334779 616.721 -1.50971 616.675 -2.78114L615.676 -2.7451C615.736 -1.07724 616.717 0.361803 618.167 1.35107C619.618 2.34089 621.569 2.90726 623.674 2.84423L623.644 1.84467ZM616.675 -2.78281C616.664 -3.05817 616.7 -3.34018 616.76 -3.64145L615.78 -3.83668C615.712 -3.49878 615.66 -3.13016 615.676 -2.74343L616.675 -2.78281ZM616.243 -3.23981C621.178 -2.96997 626.29 -2.38428 630.559 -1.78925L630.697 -2.77968C626.412 -3.37698 621.27 -3.96644 616.297 -4.23832L616.243 -3.23981ZM630.137 -2.38072C629.705 -0.176959 627.099 1.73976 623.644 1.84468L623.674 2.84422C627.393 2.73131 630.562 0.646811 631.118 -2.18821L630.137 -2.38072ZM657.838 10.6316L642.447 0.55688L641.9 1.39356L657.29 11.4683L657.838 10.6316ZM642.656 0.844324L640.046 -8.77752L639.081 -8.51573L641.691 1.10611L642.656 0.844324ZM639.564 -8.64662C639.612 -9.14425 639.612 -9.14425 639.612 -9.14426C639.612 -9.14427 639.612 -9.14428 639.612 -9.1443C639.611 -9.14434 639.611 -9.14439 639.61 -9.14447C639.608 -9.14463 639.606 -9.14487 639.603 -9.14519C639.596 -9.14584 639.586 -9.14682 639.573 -9.14813C639.547 -9.15076 639.508 -9.15472 639.456 -9.16003C639.352 -9.17066 639.198 -9.1867 638.998 -9.20825C638.597 -9.25135 638.01 -9.31651 637.27 -9.4046C635.788 -9.58078 633.69 -9.84864 631.225 -10.2151C626.291 -10.9485 619.898 -12.0752 614.038 -13.6495L613.778 -12.6837C619.692 -11.0952 626.127 -9.96192 631.078 -9.22599C633.554 -8.85783 635.662 -8.58872 637.152 -8.4116C637.896 -8.32303 638.486 -8.25745 638.891 -8.21398C639.093 -8.19225 639.249 -8.17604 639.354 -8.16524C639.407 -8.15985 639.447 -8.1558 639.474 -8.1531C639.487 -8.15175 639.497 -8.15073 639.504 -8.15005C639.508 -8.14971 639.51 -8.14945 639.512 -8.14927C639.513 -8.14919 639.514 -8.14912 639.514 -8.14907C639.514 -8.14905 639.515 -8.14903 639.515 -8.14902C639.515 -8.14901 639.515 -8.149 639.564 -8.64662ZM613.459 -13.3865C608.862 -3.99928 603.152 7.9061 598.983 20.6159C594.816 33.3217 592.175 46.8719 593.751 59.5461L594.743 59.4228C593.194 46.9575 595.787 33.569 599.933 20.9275C604.078 8.29008 609.761 -3.56034 614.357 -12.9467L613.459 -13.3865ZM594.416 59.9552C604.877 56.2075 618.156 56.879 628.873 58.5125C634.222 59.3277 638.912 60.3792 642.265 61.2269C643.942 61.6507 645.283 62.0234 646.204 62.2898C646.665 62.423 647.021 62.5297 647.261 62.6029C647.381 62.6395 647.472 62.6677 647.533 62.6867C647.563 62.6962 647.586 62.7034 647.601 62.7082C647.608 62.7106 647.614 62.7124 647.618 62.7135C647.62 62.7141 647.621 62.7145 647.622 62.7148C647.622 62.7149 647.623 62.715 647.623 62.7151C647.623 62.7152 647.623 62.7152 647.775 62.2389C647.927 61.7626 647.927 61.7625 647.927 61.7624C647.926 61.7623 647.926 61.7622 647.925 61.762C647.924 61.7616 647.923 61.7611 647.921 61.7605C647.916 61.7591 647.91 61.7572 647.902 61.7546C647.886 61.7495 647.862 61.742 647.831 61.7322C647.768 61.7125 647.675 61.6836 647.552 61.6464C647.308 61.5718 646.948 61.4638 646.482 61.3292C645.551 61.06 644.199 60.6843 642.51 60.2574C639.134 59.4039 634.412 58.3451 629.024 57.5239C618.269 55.8846 604.784 55.1789 594.079 59.0137L594.416 59.9552ZM648.236 62.0442L643.153 50.019L642.232 50.4084L647.315 62.4335L648.236 62.0442ZM643.049 50.5643L650.477 43.009L649.764 42.3079L642.336 49.8632L643.049 50.5643ZM650.121 42.6584C650.07 42.161 650.07 42.161 650.07 42.161C650.069 42.161 650.069 42.1611 650.069 42.1611C650.068 42.1612 650.067 42.1613 650.066 42.1614C650.063 42.1617 650.059 42.1621 650.054 42.1626C650.043 42.1637 650.027 42.1653 650.007 42.1675C649.965 42.1717 649.903 42.1781 649.822 42.1863C649.661 42.2029 649.424 42.2271 649.122 42.258C648.519 42.3197 647.658 42.4078 646.625 42.5135C644.557 42.7249 641.801 43.0067 639.044 43.2881C636.288 43.5695 633.531 43.8506 631.463 44.0606C630.429 44.1656 629.567 44.2528 628.964 44.3134C628.662 44.3437 628.425 44.3673 628.264 44.3831C628.183 44.3911 628.122 44.397 628.081 44.4008C628.06 44.4028 628.046 44.404 628.038 44.4048C628.033 44.4052 628.032 44.4052 628.034 44.4051C628.035 44.405 628.037 44.4049 628.038 44.4048C628.04 44.4047 628.045 44.4045 628.048 44.4044C628.053 44.4043 628.068 44.4041 628.078 44.4043C628.105 44.4058 628.323 44.4764 628.471 44.6143L627.656 45.1939C627.805 45.3318 628.023 45.4024 628.05 45.4039C628.06 45.4041 628.076 45.404 628.082 45.4038C628.091 45.4035 628.099 45.403 628.102 45.4028C628.109 45.4023 628.116 45.4017 628.122 45.4012C628.135 45.4001 628.153 45.3985 628.174 45.3965C628.217 45.3924 628.28 45.3863 628.362 45.3784C628.524 45.3624 628.762 45.3387 629.064 45.3084C629.668 45.2477 630.53 45.1605 631.564 45.0555C633.632 44.8455 636.389 44.5644 639.146 44.283C641.903 44.0015 644.659 43.7197 646.726 43.5083C647.76 43.4026 648.621 43.3145 649.224 43.2528C649.526 43.2219 649.763 43.1977 649.924 43.1812C650.005 43.1729 650.067 43.1666 650.108 43.1623C650.129 43.1601 650.145 43.1585 650.156 43.1574C650.161 43.1569 650.165 43.1565 650.168 43.1562C650.169 43.1561 650.17 43.156 650.171 43.1559C650.171 43.1559 650.171 43.1558 650.171 43.1558C650.172 43.1558 650.172 43.1558 650.121 42.6584ZM628.51 44.6783C625.278 38.293 625.121 33.7317 627.269 30.7779C629.439 27.7939 634.123 26.2091 641.183 26.2091V25.2091C634.062 25.2091 628.932 26.7915 626.46 30.1898C623.967 33.6184 624.34 38.6545 627.618 45.1298L628.51 44.6783ZM641.183 26.2091C644.073 26.2091 646.645 26.8248 648.497 27.4431C649.422 27.7519 650.165 28.0603 650.674 28.2905C650.929 28.4056 651.125 28.501 651.257 28.567C651.322 28.6 651.372 28.6256 651.404 28.6427C651.42 28.6512 651.432 28.6576 651.44 28.6617C651.444 28.6637 651.446 28.6652 651.448 28.666C651.449 28.6665 651.449 28.6667 651.449 28.6669C651.45 28.6669 651.45 28.667 651.45 28.667C651.45 28.667 651.45 28.6669 651.45 28.6669C651.449 28.6669 651.449 28.6668 651.69 28.2285C651.931 27.7902 651.93 27.7901 651.93 27.79C651.93 27.79 651.93 27.7899 651.93 27.7898C651.93 27.7897 651.929 27.7895 651.929 27.7892C651.928 27.7887 651.927 27.7881 651.925 27.7873C651.922 27.7858 651.918 27.7836 651.913 27.7809C651.903 27.7754 651.889 27.7677 651.87 27.7577C651.832 27.7379 651.777 27.7094 651.706 27.6735C651.563 27.6017 651.354 27.5003 651.086 27.3792C650.55 27.137 649.776 26.8156 648.814 26.4945C646.892 25.8531 644.21 25.2091 641.183 25.2091V26.2091ZM652.162 28.3936L655.232 19.6173L654.288 19.2871L651.218 28.0634L652.162 28.3936ZM655.187 19.1916L652.531 14.8435L651.678 15.3648L654.333 19.7128L655.187 19.1916ZM652.064 15.6025L655.814 15.9064L655.895 14.9096L652.145 14.6058L652.064 15.6025ZM656.32 15.5906L658.029 11.2325L657.098 10.8673L655.389 15.2254L656.32 15.5906Z" fill="#CBCBCB" fill-opacity="0.2"/>
<path fill-rule="evenodd" clip-rule="evenodd" d="M133.253 253.834H133.26V253.8L133.253 253.834Z" stroke="#CBCBCB" stroke-opacity="0.2" stroke-linecap="round" stroke-linejoin="round"/>
<path fill-rule="evenodd" clip-rule="evenodd" d="M133.253 253.834H133.26V253.8L133.253 253.834Z" stroke="#CBCBCB" stroke-opacity="0.2" stroke-linecap="round" stroke-linejoin="round"/>
<path d="M10.417 106.417C10.417 90.6417 34.2692 95.6261 47.3501 95.6261C60.436 95.6261 59.5026 80.7061 59.5026 80.7061H34.5987C14.7216 80.7061 2.0107 91.5245 10.417 106.417" stroke="#CBCBCB" stroke-opacity="0.2" stroke-linecap="round" stroke-linejoin="round"/>
<path d="M87.6977 74.1356C81.8869 69.0036 75.8585 66.1761 67.285 66.1761C48.2536 66.1761 20.7282 65.1056 16.8862 56.282C13.5458 59.3746 13.8558 65.6201 21.9894 72.7956C0.560593 72.7956 -3.21161 77.0992 -5.37364 81.1219C-10.9654 91.5205 -1.26383 106.416 10.418 106.416C2.01169 91.5248 14.7226 80.7049 34.5997 80.7049H59.5036H63.2304H67.285C70.2018 80.7049 73.401 82.0549 76.063 84.4052C81.7067 89.3895 81.7067 97.5008 76.063 102.484L36.6091 137.317C34.1176 139.515 32.3175 142.012 30.8534 144.67L95.7567 100.725C98.6167 91.5592 95.8427 81.3297 87.6977 74.1356" stroke="#CBCBCB" stroke-opacity="0.2" stroke-linecap="round" stroke-linejoin="round"/>
<path d="M134.206 40.025C134.522 38.9789 134.725 37.9943 134.835 37.0614C129.11 31.1312 119.555 28.7981 106.646 33.609C90.4 39.6596 75.5952 29.1793 75.5952 29.1793C86.7674 48.0776 102.281 41.9468 115.734 38.215C123.08 36.18 129.976 38.1806 134.206 40.025" stroke="#CBCBCB" stroke-opacity="0.2" stroke-linecap="round" stroke-linejoin="round"/>
<path d="M202.588 111.107C216.396 104.138 227.497 99.0579 227.52 99.0493L227.523 99.0479L222.269 119.116C222.269 119.116 237.856 141.509 246.205 153.662C246.027 153.741 245.838 153.802 245.66 153.887L202.512 111.148V111.146C202.538 111.133 202.562 111.12 202.588 111.107" stroke="#CBCBCB" stroke-opacity="0.2" stroke-linecap="round" stroke-linejoin="round"/>
<path d="M144.182 56.7336C139.159 58.6984 127.926 64.7232 127.926 79.4168C112.717 79.4168 126.209 99.7639 118.098 105.289C118.234 105.251 118.361 105.213 118.497 105.177C135.482 100.048 163.749 76.8257 165.897 59.4522C159.308 57.079 151.629 56.4656 144.182 56.7336" stroke="#CBCBCB" stroke-opacity="0.2" stroke-linecap="round" stroke-linejoin="round"/>
<path d="M185.354 120.118V120.118C191.15 116.963 197.039 113.907 202.51 111.146L202.512 111.147L245.66 153.885C248.054 152.759 250.732 152.054 253.631 152.054V167.031H253.605C260.884 168.448 265.745 173.771 265.745 181.983H253.597L253.605 195.342C251.999 196.921 249.468 197.929 246.895 197.995L185.282 120.157C185.31 120.147 185.37 120.137 185.354 120.118" stroke="#CBCBCB" stroke-opacity="0.2" stroke-linecap="round" stroke-linejoin="round"/>
<path d="M121.888 119.601C138.699 128.914 172.21 127.584 172.243 127.565C172.261 127.554 172.279 127.544 172.296 127.534C172.335 127.546 162.833 132.678 153.007 141.041L87.0112 150.318C87.0112 150.318 108.317 131.553 121.888 119.601" stroke="#CBCBCB" stroke-opacity="0.2" stroke-linecap="round" stroke-linejoin="round"/>
<path d="M49.8193 224.507C57.4498 224.507 80.5034 221.82 80.5034 206.881V175.936L98.1048 201.279L98.3353 226.946C69.9058 255.742 77.0282 288.576 89.9972 301.804V311.739C81.9301 311.602 74.0026 311.436 66.4047 311.191L68.3865 303.724L57.8555 287.593C57.8555 287.593 62.4556 235.66 49.8193 224.507" stroke="#CBCBCB" stroke-opacity="0.2" stroke-linecap="round" stroke-linejoin="round"/>
<path fill-rule="evenodd" clip-rule="evenodd" d="M89.9959 311.761C99.2462 311.91 109.865 312.002 119.628 312.002C126.458 312.002 133.024 311.999 139.33 311.991C138.091 306.182 133.091 290.193 115.255 295.24C115.255 295.24 100.22 288.108 100.22 268.502C100.22 259.787 105.427 250.821 114.241 243.04L98.334 226.945C69.9046 255.741 77.027 288.575 89.9959 301.803V311.761Z" stroke="#CBCBCB" stroke-opacity="0.2" stroke-linecap="round" stroke-linejoin="round"/>
<path d="M185.28 120.157L246.893 197.993C246.809 197.993 246.729 198.006 246.634 198.006C245.601 198.006 224.84 184.386 224.84 184.386L172.243 127.565C176.369 125.097 180.796 122.599 185.28 120.157" stroke="#CBCBCB" stroke-opacity="0.2" stroke-linecap="round" stroke-linejoin="round"/>
<path d="M112.502 106.221C112.502 129.953 172.2 127.591 172.246 127.565C195.228 113.825 227.481 99.0638 227.52 99.048C199.106 99.8893 188.672 69.8472 165.898 59.4529C163.468 79.0907 127.656 106.221 112.502 106.221" stroke="#CBCBCB" stroke-opacity="0.2" stroke-linecap="round" stroke-linejoin="round"/>
<path fill-rule="evenodd" clip-rule="evenodd" d="M223.201 81.1653C218.265 69.8926 216.455 51.556 211.047 33.3513L236.881 18.8469L243.083 9.3512H272.094L277.487 17.6016C266.286 18.5546 259.118 19.274 258.897 19.2926L253.831 19.8587V55.626L223.201 81.1653Z" stroke="#CBCBCB" stroke-opacity="0.2" stroke-linecap="round" stroke-linejoin="round"/>
<path d="M188.196 -5.96342V-21.3177L170.31 -14.3657C170.469 -15.1797 170.849 -19.4819 162.428 -23.6121C162.795 -18.9831 155.155 -15.5795 146.332 -13.1991C155.481 5.57591 169.007 34.3125 165.897 59.4519C188.667 69.8462 199.105 99.8883 227.521 99.0471C227.521 99.0471 234.779 96.0046 237.205 92.2757C210.258 92.2757 224.86 26.4118 188.196 -5.96342" stroke="#CBCBCB" stroke-opacity="0.2" stroke-linecap="round" stroke-linejoin="round"/>
<path d="M36.7593 175.936L37.0905 175.562L37.0903 175.562L36.7593 175.936ZM80.5032 175.936L80.9139 175.651C80.8325 175.534 80.7048 175.457 80.5631 175.44C80.4214 175.423 80.2791 175.467 80.1721 175.562L80.5032 175.936ZM98.1047 201.279L98.6046 201.275C98.6037 201.174 98.5726 201.077 98.5153 200.994L98.1047 201.279ZM98.3351 226.946L97.8352 226.951C97.8363 227.081 97.8881 227.205 97.9795 227.298L98.3351 226.946ZM131.603 260.608L131.248 260.96C131.39 261.104 131.605 261.148 131.793 261.071C131.98 260.994 132.103 260.812 132.103 260.609L131.603 260.608ZM131.712 176.54L132.212 176.54V176.54H131.712ZM133.452 166.845L133.924 167.011L133.925 167.006L133.452 166.845ZM153.008 141.04L153.332 141.421C153.501 141.277 153.555 141.038 153.464 140.835C153.373 140.633 153.158 140.514 152.938 140.545L153.008 141.04ZM87.0121 150.318L86.9425 149.823C86.8469 149.837 86.7572 149.877 86.6843 149.941L87.0121 150.318ZM73.4896 162.055L73.1618 161.678L73.1571 161.682L73.4896 162.055ZM48.4006 165.667L48.7317 165.292L48.7315 165.292L48.4006 165.667ZM48.4006 147.588L48.7313 147.963L48.7315 147.963L48.4006 147.588ZM87.848 112.758L87.5171 112.383L87.517 112.383L87.848 112.758ZM95.7576 100.726L96.235 100.874C96.2981 100.672 96.2262 100.451 96.0556 100.324C95.8851 100.198 95.6531 100.193 95.4773 100.312L95.7576 100.726ZM30.8543 144.67L30.574 144.256C30.5085 144.301 30.4544 144.36 30.4163 144.429L30.8543 144.67ZM153.45 141.282C153.586 141.041 153.501 140.736 153.261 140.6C153.021 140.464 152.715 140.549 152.579 140.789L153.45 141.282ZM152.677 140.666C152.47 140.849 152.45 141.165 152.633 141.372C152.816 141.579 153.132 141.599 153.339 141.416L152.677 140.666ZM36.4282 176.311C42.3625 181.556 50.2525 184.435 58.6313 184.435V183.435C50.4799 183.435 42.8299 180.635 37.0905 175.562L36.4282 176.311ZM58.6313 184.435C67.0052 184.435 74.8985 181.556 80.8343 176.311L80.1721 175.562C74.4311 180.635 66.7778 183.435 58.6313 183.435V184.435ZM80.0926 176.222L97.694 201.565L98.5153 200.994L80.9139 175.651L80.0926 176.222ZM97.6047 201.284L97.8352 226.951L98.8351 226.942L98.6046 201.275L97.6047 201.284ZM97.9795 227.298L131.248 260.96L131.959 260.257L98.6908 226.595L97.9795 227.298ZM132.103 260.609C132.111 255.921 132.139 234.904 132.164 215.059C132.176 205.136 132.188 195.507 132.197 188.358C132.202 184.783 132.205 181.829 132.208 179.768C132.209 178.738 132.21 177.931 132.211 177.382C132.211 177.107 132.212 176.897 132.212 176.755C132.212 176.684 132.212 176.63 132.212 176.595C132.212 176.577 132.212 176.563 132.212 176.554C132.212 176.549 132.212 176.546 132.212 176.544C132.212 176.543 132.212 176.542 132.212 176.541C132.212 176.541 132.212 176.54 131.712 176.54C131.212 176.539 131.212 176.539 131.212 176.54C131.212 176.541 131.212 176.541 131.212 176.543C131.212 176.545 131.212 176.548 131.212 176.553C131.212 176.562 131.212 176.575 131.212 176.593C131.212 176.629 131.212 176.683 131.212 176.754C131.212 176.895 131.211 177.106 131.211 177.38C131.21 177.93 131.209 178.737 131.208 179.767C131.205 181.828 131.202 184.782 131.197 188.356C131.188 195.505 131.176 205.135 131.164 215.058C131.139 234.903 131.111 255.92 131.103 260.607L132.103 260.609ZM132.212 176.54C132.212 173.292 132.834 170.106 133.924 167.011L132.98 166.679C131.859 169.864 131.212 173.163 131.212 176.54H132.212ZM133.925 167.006C137.337 157.014 145.401 148.173 153.332 141.421L152.684 140.66C144.707 147.451 136.478 156.435 132.979 166.683L133.925 167.006ZM152.938 140.545L86.9425 149.823L87.0817 150.813L153.077 141.536L152.938 140.545ZM86.6843 149.941L73.1619 161.678L73.8173 162.433L87.3398 150.696L86.6843 149.941ZM73.4896 162.055C73.1571 161.682 73.1572 161.682 73.1572 161.682C73.1572 161.682 73.1571 161.682 73.157 161.682C73.1567 161.682 73.1562 161.683 73.1555 161.683C73.1541 161.685 73.1518 161.687 73.1487 161.689C73.1424 161.695 73.1326 161.704 73.1195 161.715C73.0931 161.738 73.0532 161.772 73.0003 161.817C72.8945 161.907 72.7367 162.038 72.5315 162.203C72.1208 162.533 71.5208 162.995 70.7674 163.522C69.2588 164.576 67.1441 165.881 64.7106 166.898C59.8312 168.936 53.7976 169.769 48.7317 165.292L48.0695 166.041C53.5589 170.893 60.0698 169.92 65.0961 167.82C67.6154 166.768 69.7938 165.422 71.3402 164.341C72.1142 163.8 72.7321 163.325 73.1575 162.983C73.3703 162.812 73.535 162.675 73.6473 162.58C73.7034 162.532 73.7464 162.495 73.7757 162.47C73.7904 162.457 73.8016 162.447 73.8094 162.44C73.8132 162.437 73.8162 162.434 73.8184 162.432C73.8194 162.431 73.8203 162.43 73.8209 162.43C73.8212 162.43 73.8215 162.429 73.8217 162.429C73.8219 162.429 73.8221 162.429 73.4896 162.055ZM48.7315 165.292C43.3067 160.504 43.3069 152.747 48.7313 147.963L48.0699 147.213C42.1939 152.395 42.1941 160.856 48.0697 166.042L48.7315 165.292ZM48.7315 147.963L88.1789 113.133L87.517 112.383L48.0696 147.213L48.7315 147.963ZM88.1788 113.133C92.1649 109.615 94.8359 105.371 96.235 100.874L95.2802 100.577C93.9362 104.897 91.3676 108.985 87.5171 112.383L88.1788 113.133ZM95.4773 100.312L30.574 144.256L31.1347 145.084L96.0379 101.14L95.4773 100.312ZM30.4163 144.429C24.6968 154.823 26.6875 167.709 36.4284 176.311L37.0903 175.562C27.6943 167.264 25.8024 154.888 31.2924 144.912L30.4163 144.429ZM152.579 140.789C152.63 140.699 152.695 140.65 152.715 140.636C152.724 140.629 152.736 140.621 152.728 140.627C152.726 140.628 152.72 140.632 152.712 140.638C152.705 140.643 152.692 140.653 152.677 140.666L153.339 141.416C153.324 141.429 153.312 141.438 153.305 141.443C153.298 141.448 153.292 141.452 153.291 141.453C153.284 141.458 153.297 141.449 153.308 141.441C153.329 141.425 153.397 141.374 153.45 141.282L152.579 140.789ZM153.339 141.416C153.324 141.429 153.312 141.438 153.305 141.443C153.298 141.448 153.292 141.452 153.291 141.453C153.284 141.458 153.297 141.449 153.308 141.441C153.329 141.425 153.397 141.374 153.45 141.282L152.579 140.789C152.63 140.699 152.695 140.65 152.715 140.636C152.724 140.629 152.736 140.621 152.728 140.627C152.726 140.628 152.72 140.632 152.712 140.638C152.705 140.643 152.692 140.653 152.677 140.666L153.339 141.416Z" fill="#CBCBCB" fill-opacity="0.2"/>
<path fill-rule="evenodd" clip-rule="evenodd" d="M131.663 215.68C131.668 212.506 131.671 207.143 131.676 204.09L131.679 204.092C131.678 204.824 131.678 205.558 131.676 206.303L186.957 217.663L223.556 281.293C212.577 282.081 202.72 282.925 194.175 283.739L197.698 275.503L153.079 219.297L131.663 215.68Z" stroke="#CBCBCB" stroke-opacity="0.2" stroke-linecap="round" stroke-linejoin="round"/>
<path fill-rule="evenodd" clip-rule="evenodd" d="M212.765 222.966C216.883 254.745 240.5 264.821 240.5 264.821C240.5 264.821 245.008 263.834 249.679 263.834C260.066 263.834 265.146 278.998 265.146 278.998C259.665 279.215 253.922 279.506 248.176 279.822C243.3 280.051 238.531 280.313 233.97 280.604C230.388 280.838 226.947 281.076 223.572 281.325L186.954 217.662L212.765 222.966Z" stroke="#CBCBCB" stroke-opacity="0.2" stroke-linecap="round" stroke-linejoin="round"/>
<path d="M131.699 186.481L155.465 171.098L221.748 219.547C221.748 219.547 218.302 223.787 212.764 222.968L131.674 206.304C131.684 198.737 131.692 191.772 131.699 186.481" stroke="#CBCBCB" stroke-opacity="0.2" stroke-linecap="round" stroke-linejoin="round"/>
<path fill-rule="evenodd" clip-rule="evenodd" d="M172.247 127.566L191.155 147.993L131.701 186.479C131.707 180.405 131.712 176.539 131.712 176.539C131.712 173.227 132.347 169.984 133.454 166.844C136.909 156.723 145.054 147.811 153.008 141.04C162.524 132.943 171.708 127.889 172.245 127.566H172.247Z" stroke="#CBCBCB" stroke-opacity="0.2" stroke-linecap="round" stroke-linejoin="round"/>
<path d="M136.628 2.31396L136.613 2.81372L136.613 2.81374L136.628 2.31396ZM129.694 -2.31639L129.625 -2.81158C129.489 -2.79258 129.367 -2.71852 129.287 -2.60676C129.207 -2.49501 129.177 -2.35539 129.203 -2.22065L129.694 -2.31639ZM143.981 -3.77099L144.472 -3.86773C144.423 -4.11229 144.202 -4.28398 143.953 -4.27023L143.981 -3.77099ZM144.075 -2.79362L143.576 -2.81321L143.576 -2.81155L144.075 -2.79362ZM146.331 -13.1967L146.781 -13.4157C146.676 -13.6312 146.433 -13.7419 146.201 -13.6794L146.331 -13.1967ZM120.803 -8.67665L120.754 -9.17425C120.547 -9.1539 120.374 -9.00767 120.32 -8.80696L120.803 -8.67665ZM118.206 0.943756L118.48 1.36145C118.582 1.29428 118.656 1.19205 118.688 1.07407L118.206 0.943756ZM102.891 11.0199L102.616 10.6022C102.419 10.7319 102.34 10.9818 102.425 11.2017L102.891 11.0199ZM104.592 15.378L104.126 15.5598C104.207 15.7655 104.413 15.8942 104.633 15.8763L104.592 15.378ZM108.324 15.0741L108.751 15.3338C108.849 15.1732 108.848 14.9714 108.749 14.8115C108.651 14.6516 108.471 14.5605 108.283 14.5758L108.324 15.0741ZM105.681 19.4222L105.254 19.1625C105.177 19.29 105.16 19.4456 105.209 19.5865L105.681 19.4222ZM108.736 28.1985L108.264 28.3628C108.312 28.502 108.42 28.6127 108.557 28.6654C108.695 28.7181 108.849 28.7074 108.978 28.6363L108.736 28.1985ZM132.246 44.874L132.654 45.1629C132.668 45.1426 132.681 45.1212 132.692 45.0989L132.246 44.874ZM110.298 42.6284L110.349 42.131C110.139 42.1094 109.939 42.2215 109.847 42.4112C109.756 42.6009 109.793 42.8276 109.94 42.9781L110.298 42.6284ZM117.691 50.1837L118.152 50.3776C118.23 50.1921 118.189 49.9778 118.048 49.834L117.691 50.1837ZM112.632 62.2088L112.171 62.0149C112.095 62.1949 112.131 62.4026 112.263 62.5466C112.395 62.6906 112.599 62.7446 112.784 62.6849L112.632 62.2088ZM165.895 59.4544L165.726 59.9249C165.869 59.9763 166.028 59.96 166.157 59.8804C166.287 59.8008 166.373 59.6666 166.392 59.5158L165.895 59.4544ZM136.644 1.8142C133.208 1.70797 130.615 -0.206042 130.185 -2.41214L129.203 -2.22065C129.757 0.61491 132.91 2.69925 136.613 2.81372L136.644 1.8142ZM129.763 -1.8212C134.011 -2.41481 139.098 -3.0005 144.009 -3.27175L143.953 -4.27023C139.005 -3.99691 133.889 -3.40745 129.625 -2.81158L129.763 -1.8212ZM143.491 -3.67426C143.55 -3.37108 143.586 -3.08884 143.576 -2.81321L144.575 -2.77402C144.59 -3.16049 144.538 -3.52887 144.472 -3.86773L143.491 -3.67426ZM143.576 -2.81155C143.53 -1.53911 142.783 -0.364544 141.53 0.494607C140.277 1.35331 138.548 1.87082 136.643 1.81418L136.613 2.81374C138.709 2.87605 140.651 2.30942 142.095 1.31942C143.539 0.329868 144.515 -1.10883 144.575 -2.77568L143.576 -2.81155ZM146.201 -13.6794C140.37 -12.1058 134.009 -10.9792 129.1 -10.2456C126.646 -9.87907 124.559 -9.61108 123.085 -9.43479C122.348 -9.34665 121.764 -9.28144 121.365 -9.23831C121.166 -9.21674 121.013 -9.20069 120.909 -9.19005C120.858 -9.18473 120.819 -9.18076 120.792 -9.17813C120.779 -9.17682 120.77 -9.17584 120.763 -9.17519C120.76 -9.17487 120.757 -9.17463 120.756 -9.17447C120.755 -9.1744 120.754 -9.17434 120.754 -9.1743C120.754 -9.17428 120.754 -9.17427 120.754 -9.17426C120.754 -9.17425 120.754 -9.17425 120.803 -8.67665C120.852 -8.17905 120.852 -8.17906 120.852 -8.17908C120.852 -8.17909 120.852 -8.17911 120.852 -8.17913C120.853 -8.17918 120.853 -8.17924 120.854 -8.17933C120.856 -8.17951 120.859 -8.17977 120.862 -8.18011C120.869 -8.18079 120.879 -8.18181 120.893 -8.18316C120.92 -8.18587 120.959 -8.18992 121.012 -8.19532C121.117 -8.20612 121.272 -8.22235 121.473 -8.2441C121.875 -8.28761 122.462 -8.35324 123.203 -8.44187C124.685 -8.6191 126.783 -8.88835 129.247 -9.25661C134.174 -9.99273 140.577 -11.1261 146.462 -12.7139L146.201 -13.6794ZM120.32 -8.80696L117.723 0.813445L118.688 1.07407L121.285 -8.54634L120.32 -8.80696ZM117.931 0.526058L102.616 10.6022L103.166 11.4376L118.48 1.36145L117.931 0.526058ZM102.425 11.2017L104.126 15.5598L105.058 15.1962L103.357 10.8381L102.425 11.2017ZM104.633 15.8763L108.364 15.5725L108.283 14.5758L104.552 14.8796L104.633 15.8763ZM107.897 14.8145L105.254 19.1625L106.109 19.6818L108.751 15.3338L107.897 14.8145ZM105.209 19.5865L108.264 28.3628L109.208 28.0341L106.154 19.2578L105.209 19.5865ZM108.736 28.1985C108.978 28.6363 108.977 28.6363 108.977 28.6364C108.977 28.6364 108.977 28.6364 108.977 28.6364C108.977 28.6364 108.977 28.6364 108.977 28.6363C108.978 28.6362 108.978 28.6359 108.979 28.6355C108.981 28.6346 108.983 28.6332 108.987 28.6311C108.995 28.6271 109.006 28.6207 109.023 28.6122C109.055 28.5951 109.104 28.5695 109.169 28.5365C109.3 28.4705 109.495 28.3751 109.748 28.2601C110.255 28.0299 110.994 27.7216 111.915 27.4128C113.758 26.7946 116.316 26.1791 119.191 26.1791V25.1791C116.178 25.1791 113.509 25.8232 111.597 26.4647C110.639 26.7859 109.868 27.1073 109.335 27.3496C109.068 27.4707 108.861 27.5721 108.718 27.6439C108.647 27.6798 108.593 27.7083 108.555 27.7282C108.536 27.7381 108.522 27.7459 108.512 27.7514C108.507 27.7541 108.503 27.7562 108.5 27.7578C108.498 27.7586 108.497 27.7592 108.496 27.7597C108.496 27.7599 108.496 27.7601 108.495 27.7603C108.495 27.7604 108.495 27.7605 108.495 27.7605C108.495 27.7606 108.495 27.7607 108.736 28.1985ZM119.191 26.1791C126.216 26.1791 130.875 27.7632 133.034 30.7464C135.172 33.7006 135.015 38.2631 131.799 44.6492L132.692 45.0989C135.953 38.6229 136.325 33.5879 133.844 30.1601C131.384 26.7614 126.277 25.1791 119.191 25.1791V26.1791ZM131.838 44.5852C131.986 44.4468 132.204 44.3758 132.231 44.3743C132.242 44.3741 132.257 44.3742 132.262 44.3744C132.27 44.3746 132.276 44.3751 132.276 44.3751C132.277 44.3752 132.277 44.3752 132.272 44.3748C132.264 44.374 132.25 44.3728 132.229 44.3708C132.188 44.367 132.127 44.3611 132.047 44.3531C131.886 44.3373 131.651 44.3137 131.351 44.2834C130.75 44.2228 129.893 44.1356 128.864 44.0306C126.806 43.8206 124.063 43.5395 121.32 43.2581C118.577 42.9767 115.834 42.6949 113.777 42.4835C112.748 42.3778 111.891 42.2897 111.291 42.228C110.991 42.1971 110.756 42.1729 110.595 42.1563C110.515 42.1481 110.453 42.1417 110.412 42.1375C110.391 42.1353 110.375 42.1337 110.365 42.1326C110.359 42.1321 110.355 42.1317 110.353 42.1314C110.351 42.1313 110.35 42.1312 110.35 42.1311C110.349 42.1311 110.349 42.131 110.349 42.131C110.349 42.131 110.349 42.131 110.298 42.6284C110.246 43.1258 110.246 43.1258 110.247 43.1258C110.247 43.1258 110.247 43.1258 110.247 43.1259C110.248 43.1259 110.249 43.126 110.25 43.1262C110.253 43.1264 110.257 43.1268 110.262 43.1274C110.273 43.1285 110.289 43.1301 110.309 43.1322C110.351 43.1365 110.412 43.1428 110.493 43.1511C110.653 43.1676 110.889 43.1919 111.189 43.2227C111.789 43.2844 112.646 43.3725 113.675 43.4783C115.732 43.6897 118.475 43.9715 121.218 44.2529C123.961 44.5343 126.704 44.8154 128.762 45.0254C129.791 45.1304 130.649 45.2177 131.25 45.2783C131.551 45.3086 131.787 45.3323 131.949 45.3483C132.03 45.3563 132.092 45.3624 132.135 45.3664C132.156 45.3684 132.174 45.37 132.187 45.3711C132.193 45.3716 132.2 45.3723 132.208 45.3727C132.21 45.3729 132.218 45.3735 132.227 45.3738C132.233 45.3739 132.249 45.3741 132.259 45.3739C132.287 45.3724 132.505 45.3014 132.654 45.1629L131.838 44.5852ZM109.94 42.9781L117.334 50.5334L118.048 49.834L110.655 42.2787L109.94 42.9781ZM117.23 49.9898L112.171 62.0149L113.093 62.4027L118.152 50.3776L117.23 49.9898ZM112.632 62.2088C112.784 62.6849 112.784 62.6849 112.785 62.6849C112.785 62.6848 112.785 62.6847 112.786 62.6846C112.786 62.6843 112.788 62.6839 112.79 62.6833C112.793 62.6821 112.799 62.6803 112.806 62.6779C112.821 62.6732 112.844 62.666 112.874 62.6565C112.935 62.6375 113.026 62.6092 113.145 62.5727C113.384 62.4995 113.738 62.3928 114.196 62.2596C115.113 61.9932 116.447 61.6205 118.115 61.1968C121.452 60.3491 126.119 59.2976 131.441 58.4824C142.105 56.8489 155.317 56.1776 165.726 59.9249L166.065 58.984C155.411 55.1487 141.992 55.8546 131.29 57.4939C125.928 58.3152 121.229 59.374 117.869 60.2276C116.189 60.6544 114.843 61.0301 113.917 61.2993C113.454 61.434 113.095 61.542 112.852 61.6165C112.73 61.6538 112.638 61.6827 112.575 61.7024C112.544 61.7122 112.52 61.7197 112.504 61.7248C112.496 61.7274 112.49 61.7293 112.485 61.7306C112.483 61.7313 112.482 61.7318 112.481 61.7322C112.48 61.7324 112.48 61.7325 112.479 61.7326C112.479 61.7327 112.479 61.7328 112.632 62.2088ZM166.392 59.5158C167.959 46.8421 165.332 33.2923 161.185 20.5866C157.038 7.87688 151.355 -4.02842 146.781 -13.4157L145.882 -12.9776C150.456 -3.59126 156.11 8.25924 160.235 20.8968C164.361 33.5384 166.941 46.9272 165.399 59.393L166.392 59.5158Z" fill="#CBCBCB" fill-opacity="0.2"/>
<path fill-rule="evenodd" clip-rule="evenodd" d="M493.449 211.517C493.449 267.918 379.592 287.896 379.592 287.896C379.592 287.896 265.744 267.918 265.744 211.517V29.4948C265.744 29.4948 304.27 23.0402 379.592 23.0402C454.925 23.0402 493.449 29.4948 493.449 29.4948V211.517Z" stroke="#CBCBCB" stroke-opacity="0.2" stroke-linecap="round" stroke-linejoin="round"/>
<path d="M379.592 287.897C379.592 287.897 493.45 267.921 493.45 211.518V29.4956C493.45 29.4956 454.924 23.0424 379.592 23.0424C361.85 23.0424 346.147 23.4006 332.51 23.9481C435.302 27.5738 476.384 39.844 476.384 39.844C476.384 39.844 476.477 166.813 476.477 213.34C476.477 259.867 379.592 287.897 379.592 287.897" stroke="#CBCBCB" stroke-opacity="0.2" stroke-linecap="round" stroke-linejoin="round"/>
<path fill-rule="evenodd" clip-rule="evenodd" d="M402.583 133.247L393.868 132.289L391.172 135.465L370.816 124.009C372.863 133.053 378.448 150.284 392.771 164.941C402.312 171.036 412.285 177.418 420.202 182.481C419.577 152.892 408.23 136.6 405.278 130.071L402.583 133.247Z" stroke="#CBCBCB" stroke-opacity="0.2" stroke-linecap="round" stroke-linejoin="round"/>
<path d="M360.918 144.633C350.251 137.91 353.742 124.611 360.759 118.354L391.172 135.465L393.868 132.29L402.583 133.247L405.277 130.071L427.768 133.488C423.569 127.556 416.576 118.006 405.951 111.611L408.647 108.437C403.216 106.178 390.801 104.387 376.447 104.387H354.557L370.026 65.4511C374.141 54.9708 366.812 46.5872 358.836 45.809C346.784 44.6382 341.799 56.0858 341.799 56.0858L355.017 67.9734C355.315 68.0336 337.972 103.746 337.972 103.746C336.201 107.487 335.042 112.334 335.003 117.57C334.93 127.57 340.106 137.78 350.654 146.825C359.6 154.5 398.321 181.313 398.321 181.313L401.437 177.657L420.202 182.481C420.202 182.481 363.899 146.506 360.918 144.633" stroke="#CBCBCB" stroke-opacity="0.2" stroke-linecap="round" stroke-linejoin="round"/>
<path d="M370.815 124.01L360.759 118.355C353.741 124.612 350.249 137.911 360.917 144.633C364.163 146.673 377.927 155.46 392.769 164.942C378.447 150.284 372.863 133.055 370.815 124.01" stroke="#CBCBCB" stroke-opacity="0.2" stroke-linecap="round" stroke-linejoin="round"/>
<path d="M427.766 133.487L405.277 130.07C408.228 136.6 419.575 152.891 420.202 182.48C429.179 188.224 435.511 192.271 435.511 192.271L439.951 187.049L451.585 194.157C450.949 189.447 450.048 185.011 448.944 180.809C443.9 159.922 435.555 144.204 427.766 133.487" stroke="#CBCBCB" stroke-opacity="0.2" stroke-linecap="round" stroke-linejoin="round"/>
<path fill-rule="evenodd" clip-rule="evenodd" d="M408.063 255.584C407.564 254.478 406.636 253.42 404.855 253.42H398.321V226.118L392.967 228.266V253.338H383.04C381.888 253.338 379.664 254.783 378.901 254.783H374.465C372.676 254.783 371.745 255.835 371.253 256.945L370.928 257.805L370.743 258.892C370.703 259.24 370.703 259.473 370.703 259.473H381.406L383.605 258.032H388.07C385.257 259.556 382.248 261.195 381.107 261.808C379.578 262.635 379.391 263.972 379.614 265.146L379.851 266.057L380.31 267.04C380.482 267.361 380.607 267.562 380.607 267.562L398.743 258.106H408.613C408.613 258.106 408.606 257.877 408.569 257.526L408.262 256.401L408.063 255.584Z" stroke="#CBCBCB" stroke-opacity="0.2" stroke-linecap="round" stroke-linejoin="round"/>
<path d="M314.013 154.294L313.007 155.485L313.606 163.239L315.281 161.243L316.487 161.372L323.406 171.974C323.406 171.974 323.496 171.924 323.642 171.845L324.5 171.225L325.252 170.634C326.252 169.677 327.094 168.285 326.088 166.73C325.817 166.316 325.372 165.628 324.823 164.786L345.28 173.36L353.642 171.616L320.121 157.597C319.379 156.474 318.362 154.765 318.362 154.765C317.764 153.949 315.542 153.643 314.013 154.294" stroke="#CBCBCB" stroke-opacity="0.2" stroke-linecap="round" stroke-linejoin="round"/>
<path fill-rule="evenodd" clip-rule="evenodd" d="M355.016 67.9734L341.797 56.0858L284.851 67.9734H355.016Z" stroke="#CBCBCB" stroke-opacity="0.2" stroke-linecap="round" stroke-linejoin="round"/>
<path fill-rule="evenodd" clip-rule="evenodd" d="M311.916 156.781L301.022 158.015C301.022 158.015 297.769 161.696 296.108 163.665C295.04 164.935 295.425 166.232 296.125 167.251L296.784 168.005L297.563 168.783C297.847 169.015 298.056 169.157 298.056 169.157L303.607 162.566L308.087 162.006C305.943 164.558 303.656 167.271 302.859 168.225C301.791 169.495 302.179 170.795 302.885 171.813L303.593 172.616L304.315 173.342C304.601 173.58 304.81 173.721 304.81 173.721L313.606 163.238L313.007 155.484L311.916 156.781Z" stroke="#CBCBCB" stroke-opacity="0.2" stroke-linecap="round" stroke-linejoin="round"/>
<path fill-rule="evenodd" clip-rule="evenodd" d="M385.35 172.25C383.647 171.053 381.852 169.786 380 168.476V182.217L379.208 182.303L353.643 171.615L345.279 173.359L377.16 186.724L380.43 190.446L385.675 189.781L387.653 185.396L385.35 182.779V172.25Z" stroke="#CBCBCB" stroke-opacity="0.2" stroke-linecap="round" stroke-linejoin="round"/>
<path d="M362.492 56.0437C362.492 56.0437 356.397 58.4513 354.906 58.4513C353.421 58.4513 352.028 57.3722 352.028 56.0437C352.028 54.7138 353.421 53.6346 354.906 53.6346C356.397 53.6346 362.492 56.0437 362.492 56.0437" stroke="#CBCBCB" stroke-opacity="0.2" stroke-linecap="round" stroke-linejoin="round"/>
<path d="M300.077 85.8873C296.254 79.9112 300.729 76.2582 303.872 73.4537C306.144 71.4144 308.114 69.6645 308.157 67.0907C308.213 63.7114 306.038 63.0938 300.69 62.4088C297.512 62.0003 294.227 61.579 292.355 59.4508C291.299 58.2341 290.867 56.8154 291.115 55.3522C291.67 52.0847 295.465 49.6427 295.892 49.3761C296.965 48.7126 298.428 48.9505 299.164 49.8978C299.909 50.8465 299.648 52.152 298.583 52.8156C297.743 53.3444 295.957 54.8062 295.759 55.9827C295.723 56.2178 295.731 56.4886 296.067 56.8727C296.762 57.6724 299.202 57.9833 301.354 58.2614C305.983 58.8547 312.976 59.7518 312.852 67.1509C312.784 71.423 309.817 74.0756 307.201 76.4159C304.219 79.0757 301.789 81.0204 303.401 84.7766C304.458 87.2387 309.239 88.5442 308.321 90.0017C307.454 91.3746 301.95 88.8165 300.077 85.8873" stroke="#CBCBCB" stroke-opacity="0.2" stroke-linecap="round" stroke-linejoin="round"/>
<path fill-rule="evenodd" clip-rule="evenodd" d="M398.32 181.313C398.32 181.313 396.246 179.877 392.967 177.588V186.25H393.03L390.378 190.341L392.967 194.35V228.267L398.32 226.119V194.431L400.972 190.341L398.32 186.25V181.313Z" stroke="#CBCBCB" stroke-opacity="0.2" stroke-linecap="round" stroke-linejoin="round"/>
<path d="M438.208 189.097L435.512 192.272" stroke="#CBCBCB" stroke-opacity="0.2" stroke-linecap="round" stroke-linejoin="round"/>
<path d="M437.229 125.887C429.071 118.433 419.399 112.434 408.647 108.437L405.949 111.613C416.574 118.006 423.567 127.558 427.766 133.488C435.555 144.204 443.9 159.923 448.945 180.812C450.047 185.012 450.949 189.447 451.586 194.158L462.828 201.117C468.561 172.412 457.671 144.561 437.229 125.887" stroke="#CBCBCB" stroke-opacity="0.2" stroke-linecap="round" stroke-linejoin="round"/>
<path d="M728.345 144.701L728.783 144.46C728.744 144.39 728.69 144.331 728.625 144.287L728.345 144.701ZM663.443 100.756L663.723 100.342C663.547 100.223 663.316 100.228 663.145 100.354C662.974 100.481 662.902 100.702 662.966 100.904L663.443 100.756ZM671.353 112.788L671.684 112.413L671.683 112.413L671.353 112.788ZM710.798 147.618L710.467 147.993L710.468 147.993L710.798 147.618ZM710.798 165.697L710.467 165.322L710.467 165.322L710.798 165.697ZM685.709 162.087L686.042 161.713L686.037 161.709L685.709 162.087ZM672.187 150.348L672.515 149.971C672.442 149.908 672.352 149.867 672.256 149.853L672.187 150.348ZM606.191 141.072L606.261 140.577C606.041 140.546 605.826 140.664 605.735 140.867C605.644 141.07 605.698 141.309 605.867 141.453L606.191 141.072ZM625.747 166.876L625.274 167.038L625.275 167.043L625.747 166.876ZM627.487 176.57H626.987L626.987 176.57L627.487 176.57ZM627.597 260.638L627.097 260.639C627.098 260.842 627.22 261.024 627.408 261.101C627.595 261.178 627.811 261.134 627.953 260.99L627.597 260.638ZM660.865 226.976L661.221 227.328C661.312 227.235 661.364 227.111 661.365 226.981L660.865 226.976ZM661.094 201.31L660.684 201.024C660.626 201.107 660.595 201.205 660.594 201.305L661.094 201.31ZM678.696 175.967L679.027 175.592C678.92 175.497 678.778 175.453 678.636 175.47C678.494 175.487 678.366 175.564 678.285 175.681L678.696 175.967ZM722.44 175.967L722.109 175.592L722.108 175.592L722.44 175.967ZM605.756 141.318C605.893 141.559 606.198 141.643 606.438 141.507C606.678 141.371 606.763 141.066 606.627 140.826L605.756 141.318ZM606.516 140.692C606.309 140.509 605.993 140.528 605.81 140.735C605.627 140.942 605.647 141.258 605.854 141.441L606.516 140.692ZM728.625 144.287L663.723 100.342L663.163 101.17L728.064 145.115L728.625 144.287ZM662.966 100.904C664.363 105.401 667.036 109.645 671.022 113.163L671.683 112.413C667.833 109.015 665.263 104.927 663.92 100.608L662.966 100.904ZM671.022 113.163L710.467 147.993L711.129 147.244L671.684 112.413L671.022 113.163ZM710.468 147.993C715.892 152.779 715.892 160.534 710.467 165.322L711.129 166.072C717.005 160.886 717.005 152.427 711.129 147.243L710.468 147.993ZM710.467 165.322C705.402 169.799 699.368 168.966 694.489 166.929C692.055 165.912 689.94 164.607 688.432 163.553C687.678 163.027 687.078 162.564 686.667 162.235C686.462 162.07 686.304 161.938 686.199 161.849C686.146 161.804 686.106 161.769 686.079 161.746C686.066 161.735 686.057 161.726 686.05 161.721C686.047 161.718 686.045 161.716 686.043 161.715C686.043 161.714 686.042 161.714 686.042 161.714C686.042 161.713 686.042 161.713 686.042 161.713C686.042 161.713 686.042 161.713 685.709 162.087C685.377 162.46 685.377 162.461 685.377 162.461C685.377 162.461 685.378 162.461 685.378 162.461C685.379 162.462 685.38 162.463 685.381 162.464C685.383 162.466 685.386 162.468 685.39 162.472C685.397 162.478 685.409 162.488 685.423 162.501C685.453 162.527 685.496 162.564 685.552 162.611C685.664 162.707 685.829 162.844 686.042 163.015C686.467 163.356 687.085 163.832 687.859 164.373C689.406 165.453 691.584 166.799 694.104 167.851C699.13 169.951 705.641 170.923 711.129 166.072L710.467 165.322ZM686.037 161.709L672.515 149.971L671.859 150.726L685.382 162.465L686.037 161.709ZM672.256 149.853L606.261 140.577L606.122 141.567L672.117 150.844L672.256 149.853ZM605.867 141.453C613.799 148.203 621.862 157.044 625.274 167.038L626.22 166.715C622.721 156.465 614.493 147.481 606.515 140.691L605.867 141.453ZM625.275 167.043C626.366 170.136 626.987 173.324 626.987 176.57H627.987C627.987 173.195 627.342 169.894 626.219 166.71L625.275 167.043ZM627.487 176.57C626.987 176.57 626.987 176.571 626.987 176.571C626.987 176.572 626.987 176.573 626.987 176.574C626.987 176.576 626.987 176.58 626.987 176.584C626.987 176.593 626.987 176.607 626.987 176.625C626.987 176.661 626.987 176.714 626.987 176.785C626.987 176.927 626.988 177.137 626.988 177.412C626.989 177.961 626.99 178.768 626.991 179.798C626.994 181.859 626.997 184.813 627.002 188.388C627.011 195.537 627.023 205.166 627.035 215.089C627.061 234.934 627.088 255.952 627.097 260.639L628.097 260.638C628.088 255.95 628.061 234.933 628.035 215.088C628.023 205.165 628.011 195.536 628.002 188.387C627.997 184.812 627.994 181.858 627.991 179.797C627.99 178.767 627.989 177.96 627.988 177.41C627.988 177.136 627.987 176.925 627.987 176.784C627.987 176.713 627.987 176.659 627.987 176.623C627.987 176.605 627.987 176.592 627.987 176.583C627.987 176.578 627.987 176.575 627.987 176.573C627.987 176.572 627.987 176.571 627.987 176.57C627.987 176.57 627.987 176.569 627.487 176.57ZM627.953 260.99L661.221 227.328L660.51 226.625L627.242 260.287L627.953 260.99ZM661.365 226.981L661.594 201.314L660.594 201.305L660.365 226.972L661.365 226.981ZM661.505 201.595L679.106 176.252L678.285 175.681L660.684 201.024L661.505 201.595ZM678.365 176.341C684.302 181.586 692.194 184.465 700.569 184.465V183.465C692.421 183.465 684.769 180.665 679.027 175.592L678.365 176.341ZM700.569 184.465C708.946 184.465 716.838 181.586 722.771 176.341L722.108 175.592C716.371 180.665 708.719 183.465 700.569 183.465V184.465ZM722.77 176.341C732.511 167.741 734.502 154.853 728.783 144.46L727.907 144.942C733.397 154.918 731.505 167.296 722.109 175.592L722.77 176.341ZM606.627 140.826C606.574 140.733 606.507 140.682 606.485 140.666C606.475 140.658 606.462 140.65 606.468 140.654C606.469 140.655 606.475 140.659 606.482 140.664C606.489 140.669 606.501 140.679 606.516 140.692L605.854 141.441C605.869 141.454 605.882 141.464 605.889 141.47C605.897 141.475 605.903 141.479 605.905 141.48C605.913 141.486 605.901 141.478 605.892 141.471C605.873 141.457 605.807 141.408 605.756 141.318L606.627 140.826ZM605.854 141.441C605.869 141.454 605.882 141.464 605.889 141.47C605.897 141.475 605.903 141.479 605.905 141.48C605.913 141.486 605.901 141.478 605.892 141.471C605.873 141.457 605.807 141.408 605.756 141.318L606.627 140.826C606.574 140.733 606.507 140.682 606.485 140.666C606.475 140.658 606.462 140.65 606.468 140.654C606.469 140.655 606.475 140.659 606.482 140.664C606.489 140.669 606.501 140.679 606.516 140.692L605.854 141.441Z" fill="#CBCBCB" fill-opacity="0.2"/>
</svg>
